<?xml version="1.0" encoding="utf-8"?>
<!-- Generator: Adobe Illustrator 17.0.0, SVG Export Plug-In . SVG Version: 6.00 Build 0)  -->
<!DOCTYPE svg PUBLIC "-//W3C//DTD SVG 1.1//EN" "http://www.w3.org/Graphics/SVG/1.1/DTD/svg11.dtd">
<svg version="1.1" id="图层_1" xmlns="http://www.w3.org/2000/svg" xmlns:xlink="http://www.w3.org/1999/xlink" x="0px" y="0px"
	 width="800px" height="500px" viewBox="0 0 800 500" enable-background="new 0 0 800 500" xml:space="preserve">
<path id="东南大学_9_" fill-rule="evenodd" clip-rule="evenodd" d="M569.49,219.006c-0.149-1.462-0.18-1.943-0.283-5.939
	c-0.068-2.654-0.015-4.269-0.361-6.771c-1.01-7.302-0.489-5.12-2.097-10.634c-0.213-0.732-1.118-6.242-1.196-7.001
	c-0.251-2.451,0.85-4.312,1.822-4.839c1.508-0.817,3.539,1.379,4.427,2.534c2.545,3.309,3.672,6.39,4.018,8.378
	c0.256,1.467,1.06,8.358,1.068,8.484c0.248,3.528,0.653,7.209,1.005,10.495c0.377,3.519-0.691,4.022,1.065,6.057
	c0.864,1.001,2.056,0.548,2.414,0.548c2.315-0.517,2.717-3.522,2.396-6.118c-0.917-7.42-2.121-8.581-2.922-13.118
	c-0.566-3.205-0.475-3.62-0.707-5.216c-0.181-1.249-0.57-3.09-0.864-9.175c-0.188-3.896-0.047-4.003,0.676-7.18
	c0.57-2.507,1.561-4.02,2.653-4.449c2.956-1.16,4.827-0.709,4.983,0.584c0.867,7.215,0.985,7.904,1.115,12.796
	c0.133,5.006,0.642,6.025,0.77,8.932c0.133,3.004,1.006,7.401,1.178,11.783c0.2,5.09,1.205,11.567,4.86,6.7
	c1.315-1.751,0.185-3.845,0.466-6.134c0.325-2.645-0.097-3.176,0.236-6.08c0.564-4.931-0.189-6.316,0.189-13.008
	c0.117-2.08,1.859-3.22,1.791-3.692c-0.126-0.88-0.112-0.631-1.383-3.959c-1.32-3.456,0.817-17.706,1.005-24.21
	c0.068-2.357-0.435-7.122,1.65-9.474c1.235-1.392,3.299-0.579,5.341,0.453l1.257,1.055c0.141,1.98-3.582,6.174,6.127,1.65
	c1.977-0.921,5.797-3.252,8.719-2.027c2.419,1.014,0.754,6.041,0.754,6.127c-0.088,0.673-6.256,2.676-8.534,4.076
	c-4.803,2.953-11.55,0.836-11.026,13.315c-0.056,1.256-0.047,3.912-0.141,6.504c-0.069,1.901,3.12-1.415,5.043-1.414
	c0.956,0.001,2.742,1.732,2.899,1.838c0.679,0.461,1.98,1.791,1.532,1.296c0.617,0.682,1.029,1.229,1.084,1.626
	c0.259,1.885,0.306,6.18,2.922,5.208c3.642-1.353,1.911-0.695,4.336-1.791c1.161-0.525,3.959,0.047,5.892-0.33
	c2.509-0.49,3.211-4.792,3.346-7.023c0.251-4.148-0.066-5.241-1.602-6.504c-2.155-1.772-5.434-1.225-9.662,0
	c-5.043,1.461-6.592,6.033-9.214,5.844c-0.201-0.014-2.055-0.416-2.262-0.448c-0.092-0.757,0.047-0.966,0.57-2.085
	c2.977-6.368,22.14-17.884,28.958-8.614c3.724,5.062,2.4,10.135,1.414,14.737c-0.943,4.399-2.371,7.718-3.205,10.997
	c-0.732,2.878-0.466,3.078-1.005,6.221c-0.51,2.97-0.431,2.132-0.942,4.675c-0.361,1.795-1.813,6.285-0.503,6.849
	c2.966,1.205,7.704-0.019,10.275-0.613c4.695-1.086,13.294,1.422,15.239,3.535c2.314,2.514-3.409,8.691-5.404,9.803
	c-2.068,0.422-8.236,5.863-10.306,6.284c-4.408,2.529-4.264,2.248-8.672,4.776c-4.8,1.805-11.406-1.822-7.918,1.995
	c1.945,2.129,1.093,4.405-0.384,8.116c-1.483,0.555-4.587,2.457-6.151,3.274c-1.687,2.155-1.739,2.039-2.262,3.142
	c-1.773,3.734-6.569,9.235-2.769,9.121c9.388-0.282,7.419,8.978,7.419,8.978s3.377-0.908,7.415-0.44
	c3.838,0.445,7.097-0.388,9.175,0.126c4.324,1.071,8.201,6.001,9.898,9.442c0.646,1.309,0.179,2.595-1.084,3.016
	c-1.414,0.471-2.985,1.225-4.163,0.424c-2.659-1.808-3.101-3.435-5.404-3.833c-5.342-0.924-15.695-1.068-15.695-1.068
	s-0.569,6.033-0.66,6.316c-0.916,2.839-4.202,7.818-5.562,9.756c-2.545,3.629-8.416,6.407-11.359,7.117
	c-13.668,3.299-19.299-6.497-16.936-20.675c0.817-4.902,4.565-7.872,9.175-9.112c3.895-1.047,11.096-0.179,10.872-3.833
	c-0.189-3.079-0.742-1.39-2.451-3.394c-4.21-4.936-0.684-6.672,1.885-9.316c1.626-1.673,1.591-2.117,2.357-3.346
	c0.567-0.911,1.321-2.755,1.461-3.676c0.212-1.39-1.885-0.801-4.006-0.542c-5.17,0.632-5.538,2.639-9.332,1.548
	c-1.625-0.468-2.939-1.641-2.168-2.797c1.634-2.451,1.423-2.717,3.236-3.582c2.283-1.089,2.985-1.508,5.954-3.158
	c4.258-2.366,5.737-3.161,8.107-3.346c1.727,0.639,4.084,1.436,6.433,1.013c4.385-0.79,4.12-1.231,8.083-4.312
	c3.296-2.563,8.243-6.357,10.181-8.363c0.392-0.406,2.32-1.611,4.542-4.057c0.466-0.513,0.552-0.857,0.524-1.885
	c-0.012-0.448,0.093-0.801-0.165-1.367c-0.258-0.566-1.338-0.705-2.852-0.165c-0.99,0.354-1.555,0.542-2.564,1.049
	c-0.171,0.086-2.719,1.422-2.888,1.51c-1.173,0.611-1.688,0.647-2.82,1.211c-2.761,1.376-2.138,1.17-5.314,1.74
	c-0.627,0.113-2.539,1.002-4.604,1.687c-1.733,0.575-2.572,2.452-3.514,0.391c-0.377-0.825-0.707-1.602-0.495-2.71
	c0.215-1.122,0.448-0.919,0.573-2.122c0.038-0.367-0.051-1.063-0.408-1.154c-0.596-0.153,0.542,0.173-1.343-0.33
	c-1.326-0.354-3.488,1.128-3.246,0.962c1.812-1.24-0.879,0.895-3.046,1.135c-1.148,0.127-1.789,1.204-2.734,2.097
	c-1.464,1.384-2.592,2.027-4.053,2.239c-2.185,0.317-2.262-1.131-4.713-1.791c-2.411-0.649-4.961,0.695-6.583,2.168
	c-0.967,0.877-0.628,0.754-2.891,1.571c-0.677,0.245-2.451,0.566-5.165-0.391c-1.755-0.619-0.557-1.022-4.139-1.022
	c-1.943,0-2.503,0.724-5.527-0.347c-1.188-0.421-2.133-1.406-2.601-2.428 M216.83,155.874c4.607-0.08,8.719,2.835,9.995,5.985
	c1.414,3.488,0.943,4.747,0.943,7.07c0,2.592-0.15,5.265-0.283,6.41c-0.22,1.893-0.278,2.592,0,5.326
	c0.202,1.989,2.898,2.357,4.619,3.943c1.721,1.586,2.096,4.743,1.194,7.101c-0.836,1.461-2.21,2.362-3.582,2.891
	c-1.979,0.763-3.845,1.152-3.186,4.695c0.488,0.375,0.98,0.748,1.47,1.122c3.651,0.907,7.475-0.426,10.263-0.978
	c6.033-1.194,9.626-1.732,15.013-2.105c2.524-0.484,6.179-0.845,9.118-1.1c3.18,1.69,7.416,9.218,4.965,14.768
	c-3.782,8.428-18.082,13.754-24.194,20.738c-1.927,2.201-3.914,3.878-5.467,5.782c-2.356,2.886-4.648,4.302-7.64,6.596
	c-2.195,1.68-4.457,2.638-6.154,4.841c-1.273,0.84-1.546,1.889-3.08,3.585c-1.761,1.947-1.629,13.723-1.539,17.09
	c0.126,4.713-0.189,9.442,0.141,13.401c0.069,0.825,0.849,2.314,1.508,4.572c0.215,0.736,0.395,3.602,0.377,4.619
	c0,0,0.487,3.488-0.267,5.75c-0.622,1.865-3.746,2.842-5.216,4.148c-1.077-0.092-3.008-0.223-4.085-0.314
	c-2.693-1.232-5.46-3.813-7.667-5.467c-3.807-2.851-7.451-2.23-8.17-7.415c-0.299-2.158-0.015-1.507,0.596-2.352
	c0.127-0.175,2.761,0.068,2.957-0.023c3.398,0.041,5.742,0.323,8.822,0.159c3.52-0.188,2.645-3.125,3.022-6.016
	c0.302-2.318,0-3.016-0.126-6.598c-0.081-2.297,0.166-4.488-1.401-6.169c-0.099,0-0.195,0-0.296,0
	c-7.387,5.368-22.25,20.101-34.974,17.928c-0.099-0.934-0.196-1.866-0.296-2.802c5.648-2.838,9.661-6.974,14.109-10.923
	c9.535-8.466,11.585-10.248,20.78-20.825c0.115-0.132,0.162-0.722,0.13-1.969c-0.015-0.577,0.166-2.309-0.063-2.388
	c-1.228-0.427-0.95-0.207-1.885-0.157c-2.461,0.132-1.387,0.112-4.87,0.408c-6.901,0.588-16.121,4.621-19.387,0.126
	c-1.671-2.301-1.331-5.493-1.822-8.295c-1.059-2.048-1.847-5.617-3.456-7.73c-1.332-1.749-5.093-4.477-5.884-6.233
	c-0.887-1.964,0.912-3.165,1.469-3.921c6.464-1.874,9.23,1.458,13.575,3.445c1.852,0.847,4.715,0.021,6.881-0.094
	c3.535-0.189,6.36-0.4,8.279-0.763c6.101-1.154,9.185-1.98,9.065-5.364c-0.028-0.791,0.13-0.42,0.094-2.592
	c-0.01-0.635-0.031-1.453-0.236-1.791c-0.107-0.177-1.482-0.379-2.074-0.141c-2.975,1.192-4.036,1.511-6.551,1.697
	c-7.023,0.518-12.228,1.271-16.826-2.734c-1.461-1.273-0.759-3.588-0.66-4.336c0.195-0.28,2.965-0.543,3.299-0.613
	c9.011-1.874,6.399-1.114,11.123-2.074c2.014-0.409,11.89,0.215,11.814-3.519c-0.046-2.259,0.505-5.133-0.64-6.074
	c-2.506-2.061-3-0.374-6.225-0.293c-4.32,0.108-9.052,0.134-13.579-5.287c0.001-2.058,0.368-2.276,1.177-3.363
	c5.909-0.893,11.44-1.224,14.899-1.73c2.613-0.383,4.416-0.512,4.525-2.451c0.259-4.618,0.113-8.769,0.189-10.84
	c0.11-3.007-0.006-2.315-4.619-8.861c-0.323-0.458-0.299-3.009-0.299-3.569c0.431-0.574,1.25-1.783,1.902-2.181
	C211.207,156.083,214.384,157.412,216.83,155.874L216.83,155.874z M461.778,186.555c0.016-0.557,0.126-11.04,0.251-11.437
	c0.36-1.141,0.361-2.31,0.793-2.749l0.465-0.523c3.554-1.714,5.115-0.201,6.063,1.513c0.905,2.54,0.662,11.417,0.597,13.448
	c-0.204,6.409-0.127,6.727-0.251,11.437c-0.077,2.921,0.498,10.093,0.566,12.443c0.07,2.427,0.245,4.286,0.503,5.342
	c0.321,1.315,0.774,2.558,2.891,2.954c4.713,0.88,7.835,0.031,15.648-3.205c6.221-2.577,8.5-2.543,12.254-5.656
	c2.577-2.137,2.7-5.02,4.231-5.231c2.619-0.362,3.262,0.958,4.127,0.958c1.472,1.914,5.221,11.274,4.21,13.951
	c-0.652,1.414-0.652,1.414-3.163,2.018c-6.16,1.482-8.999,1.76-14.621,3.637c-2.311,0.772-3.833,1.112-6.221,2.074
	c-3.639,1.466-4.058,1.886-8.284,3.007c-6.823,1.81-15.937,2.335-16.036,9.184c-0.098,6.727,0.189,5.279-0.817,10.935
	c-0.462,2.601-1.082,5.763-2.128,8.786c-0.928,2.683-1.065,4.857-2.397,7.365c-3.78,7.115-4.682,8.264-11.563,10.432
	c-7.051,2.221-16.01,3.959-20.629,1.118c-0.341-1.175-0.503-1.829-0.262-3.171c2.941-3.604,8.197-5.315,12.03-7.468
	c4.148-2.329,5.939-3.425,9.395-8.704c1.854-2.831,5.108-9.984,5.97-13.26c0.589-2.239,1.529-5.543,1.626-7.47
	c0.118-2.333,0.301-1.842-0.047-4.36c-4.203-2.107-10.032-1.883-14.776-4.006c-2.512-1.126-5.813-3.885-7.258-6.41
	c-2.357-4.116-1.131-0.22-2.797,2.199c-0.681,0.989-1.413-0.901-2.482-1.822c-1.077-0.927-3.615-1.099-3.959-1.948
	c-0.338-0.831-0.877-2.757-0.189-3.331c1.508-1.257,3.425-1.383,4.996,0.377c1.909,2.138,3.474,3.376,5.939,1.697
	c1.388-0.945,5.089-0.632,6.316-0.613c1.98,0.031,5.881,0.256,7.635,0.189c1.767-0.067,3.701,0.231,5.467,0.11
	c3.282-0.225,3.483,0.431,4.366-2.1c1.855-5.315,1.215-6.832,1.101-12.762 M382.492,248.078c0.585-2.018,1.383-7.667,1.885-10.62
	c0.491-2.886,0.837-7.383,0.848-11.343c0.014-4.695-1.238-5.762-3.064-5.813c-8.39-0.236-15.812-1.276-23.208,0.175
	c-3.659,0.717-4.113,0.736-5.684,1.113c-0.317,0.076-1.168,0.789-1.155,1.115c0.092,2.286,0.118,1.438,0.149,2.89
	c0.016,0.718,0.088,4.626-0.55,4.957c-1.507,0.782-6.053,2.899-7.777,5.727c-0.75,1.23-1.461,1.555-0.66,3.064
	c0.37,0.697,2.929-0.054,4.383-0.943c3.481-2.126,5.006-3.744,9.343-3.912c1.114,0.807,2.23,1.616,3.344,2.423
	c-0.092,0.451-0.186,0.899-0.278,1.348c-1.876,3.111-12.079,3.135-15.815,6.804c0.092,0.808,0.045,1.982,0.012,3.659
	c-0.039,1.981-0.909,3.497,0.943,4.242c2.657-0.356,3.048-1.929,5.939-2.215c0.838,0.448,2.605,0.209,3.441,0.66
	c0.372,1.168,0.372,1.168-0.281,3.018c-0.938,2.655-1.299,2.548-2.17,2.968c-2.734,1.32-5.305,0.625-7.871,1.885
	c-1.125,6.058,0.991,14.03-1.681,20.408c-1.948,4.65-1.408,4.928-5.177,9.096c-1.555,1.72-4.867,4.549-6.151,4.289
	c-0.972-0.197-3.881-1.194-3.881-3.708c0-2.746,1.067-1.26,2.45-2.58c2.094-1.999,2.378-3.007,3.732-6.188
	c0.485-1.139,0.626-2.066,1.234-3.99c0.434-1.374,1.114-3.231,1.023-4.669c0.301-1.256-0.012-1.635,0.109-3.752
	c0.126-2.199-0.897-4.292-2.687-3.865c-2.372,0.566-4.011,1.511-7.918,1.697c-2.607,0.124-5.956,0.717-7.353-1.131
	c-0.016-1.733,0.076-1.624,0.66-2.592c4.856-1.158,8.585-2.284,12.773-3.441c1.904-0.526,2.891-0.408,3.993-1.506
	c0.825-0.821,0.374-1.543,0.343-2.548c-0.094-3.048-0.233-6.069-0.233-6.069s-5.697,2.119-8.769,3.76
	c-2.402,1.283-3.591,1.863-6.41-0.094c-1.697-1.178-1.481-1.998-1.131-2.828c0.754-1.791,0.283-2.168,0.047-4.996
	c-0.494-5.925-3.877-5.31-6.551-7.777c-0.526-0.486-1.555-1.414-1.367-2.862c0.483-3.713,5.609-5.692,7.518-8.186
	c1.514-1.978,2.026-2.805,3.464-5.542c0.794-1.511,1.613-3.486,2.309-5.043c1.638-3.663,5.373-9.992,4.902-15.742
	c-0.133-1.629-1.912-3.629-3.111-3.912c-3.113-0.735-4.511-1.049-6.928-0.236c-2.568,0.864-4.35,1.591-7.117-0.707
	c-2.264-1.88-3.355-4.029-1.634-5.079c2.695-0.966,7.797-0.16,10.4-0.153c4.488,0.011,5.928-0.232,9.191-0.118
	c1.343,0.047,1.152-0.444,1.202-1.461c0.165-3.37-0.316-9.457,0.094-12.537c0.092-0.691-0.316-1.975,0.324-2.388
	c0.731-0.471,2.61-1.508,3.493-1.171c2.935,1.121,8.481,5.391,5.744,3.241c-0.206-0.162,1.985,1.225,1.758,2.855
	c-0.534,3.833-1.634,4.038-1.445,7.29c0.163,2.803,0.721,3.547,5.373,2.199c3.827-1.109,8.386-3.682,11.736-3.991
	c1.46,0.713,2.144,2.065,1.65,3.629c-1.461,4.619-4.635,5.066-9.097,6.378c-2.596,0.762-4.882,1.064-7.163,1.87
	c-2.991,1.057-2.576,0.613-3.912,1.885c-2.922,2.781-2.718,4.996-3.613,7.73c-1.116,3.408-2.269,5.839-3.456,8.861
	c-0.549,1.396-1.296,4.113-1.909,5.609c-0.725,1.768-2.547,6.244-3.213,7.243c-1.332,1.993-0.848,1.414-2.074,3.519
	c-0.488,0.838-0.459,2.797,0.503,2.694c2.639-0.283,2.957-0.007,4.926-1.325c1.578-1.056,5.346-3.848,5.961-2.964
	c1.461,2.097-1.636,4.687-3.205,6.693c-1.482,1.895-3.968,3.862-4.478,4.478c-0.343,0.414-1.283,4.769,1.211,3.605l5.525-4.7
	c3.916-2.511,8.272-10.615,7.121-13.658c-0.994-2.009-1.343-2.357-1.438-4.407c-0.029-0.627,0.595-1.837,1.485-2.592
	c0.778-0.66,2.241-1.157,2.427-1.249c13.323-2.503,15.636-1.377,27.722-3.857c2.044,0,5.766-0.738,7.793-1.005
	c6.591-0.871,10.139-2.286,12.192,4.588c2.702,9.049,2.783,12.13,1.885,19.356c-0.465,3.745-1.377,7.636-2.471,11.247
	c-1.053,3.474-1.496,5.718-2.179,7.92c-0.721,2.322-1.32,4.525-2.513,7.844c-0.963,2.677-2.302,6.596-3.959,10.254
	c-2.492,5.502-4.894,12.335-12.191,12.631c-6.177-2.955-11.452-8.147-15.53-13.244c-0.566-0.707-0.952-2.648,0.212-2.828
	c3.653-0.566,12.498,1.853,15.884-0.424c3.296-2.216,4.45-5.064,6.316-10.039 M597.753,187.718c1.791,1.477,2.514,1.983,2.514,2.922
	c-0.004,5.305-0.205,13.266-0.566,17.47c-0.157,1.834,4.098-1.374,4.43-2.325c0.697-1.996,2.051-3.432,2.231-7.038
	c0.128-2.577,0.055-3.958,0.063-5.782c0.008-1.929,0.136-3.253-1.383-3.331l-2.954-0.88L597.753,187.718z M626.001,191.363
	c-1.767,1.084-1.313,1.575-3.243,3.039c-0.865,0.656-3.597,2.818-5.241,3.654c-1.536,0.781-1.374,0.224-2.121-0.801
	c-1.994-0.67-2.736-0.353-2.828,1.838c-0.124,2.977-0.33,3.205-0.283,5.397c0.043,1.986-0.137,2.284-0.024,4.36
	c0.021,0.38,0.256,4.454,0.573,4.666c2.027,1.353,4.511,0.366,6.441,0.126c7.054-0.88,4.068-5.626,0.911-5.97
	c-3.392-0.37-3.771-0.566-3.645-4.148c0.003-0.085-0.517-2.854,0.031-3.794c1.003-1.719,0.755-1.564,2.64-2.71
	c1.002-0.609,2.76-1.086,3.33-0.252c0.465,0.681,0.083,2.282,0.126,3.425c0.066,1.782-0.063,5.436,1.602,3.959
	c1.233-1.094,2.293-3.476,3.456-6.536c1.008-2.652,1.364-3.376,1.218-5.522c-0.071-1.037-0.774-1.096-1.225-1.178L626.001,191.363z
	 M235.937,209.242c-5.286,0.707-13.574-1.948-12.82,6.787c0.263,3.047,2.114,2.214,3.959,2.137c2.902-0.122,5.779-0.622,7.07,0.597
	c0.659,0.622,1.114,2.075,1.131,3.425c0.02,1.601-1.376,3.293-1.791,3.708c-0.723,0.723-1.738,0.239-2.765,0.251
	c-3.797,0.046-7.723-0.945-7.478,2.262c0.295,3.868,0.19,8.532,4.881,4.904c4.647-3.594,17.937-14.857,21.035-19.982
	c1.634-2.702,1.48-5.012,0.791-5.409c-1.801-0.888-4.21-0.44-7.227,0.189L235.937,209.242z M553.449,221.433
	c2.891-1.068,5.213,4.515,5.53,6.598c0.847,5.568-0.409,9.443-3.182,16.826c-1.651,4.396-13.079,7.993-13.409,4.226
	c-0.88-10.055,4.491-10.671,6.517-16.753c1.153-3.451,1.245-5.825,2.533-8.385L553.449,221.433z M205.993,230.105
	c-7.447,0.707-9.945-1.084-11.972,1.697c-0.989,1.357-1.61,3.238-1.555,4.43c0.079,1.737-0.239,4.043,2.074,4.289
	c4.669,0.496,6.693,0.377,12.207-0.189c2.847-0.292,3.912-1.461,4.406-4.495c0.228-1.402-0.023-1.538,0.039-3.911
	c0.011-0.438,0.235-1.687-0.486-1.775L205.993,230.105z M296.241,231.195c0.931,0,1.948-0.389,2.797,0
	c2.01,0.921,4.272,5.32,4.65,7.583c1.12,6.717,0.28,8.594,0.094,11.783c-0.205,3.522,0.038,4.259,0.283,6.253
	c0.471,3.833,2.502,5.628,2.439,7.674c-0.114,3.7,0.64,3.26-2.314,8.099c-1.006,1.647-2.947-0.198-3.645-1.257
	c-1.599-2.429-1.599-2.429-3.139-4.888c-2.105-3.364-5.721-4.489-4.214-11.639c1.507-7.147,1.526-2.426,1.508-7.855
	C294.68,240.676,292.656,235.245,296.241,231.195L296.241,231.195z M486.137,251.931c0.966-0.397,3.606,0.357,5.554,1.363
	c1.773,0.915,2.244,1.756,4.148,3.016c1.278,0.846,2.445,1.486,3.833,2.137c2.011,0.943,2.991,1.818,3.771,2.828
	c2.129,1.486,3.496,2.918,5.027,4.933c1.625,2.136,3.12,4.715,4.336,7.353c0.897,1.945,2.733,6.823,1.508,10.652
	c-0.203,0.633-2.591,2.422-3.025,2.928c-0.867-0.085-1.733-0.169-2.601-0.254c-4.568-2.159-10.399-4.936-12.756-9.272
	c-1.904-3.503-2.942-9.037-4.713-14.234 M236.157,263.192c8.278,1.387,13.519,3.562,19.764,5.31c6.91,1.93,9.944,3.127,10.306,8.044
	c0.274,3.717-0.625,5.868-3.299,10.495c-2.405,4.161-4.581,3.43-6.292,2.757c-1.008-0.396-1.547-1.09-2.286-2.05
	c-1.885-2.451-1.825-6.703-1.98-7.4c-0.943-4.242-10.637-7.337-16.029-10.613c-2.888-1.755-6.151-2.957-4.22-6.142
	c0.174-0.083,0.688-0.711,2.685-0.59L236.157,263.192z M606.394,277.677c-2.387-0.044-3.739-0.503-7.195,0.126
	c-3.523,0.64-4.494,1.824-7.227,4.273c-4.654,4.171,0.833,16.405,8.107,14.14c3.361-1.047,7.353-3.896,8.17-9.552
	c0.273-1.893,0.094-6.316,0.094-8.892L606.394,277.677z"/>
<rect x="171.869" y="301.34" fill-rule="evenodd" clip-rule="evenodd" fill="none" width="492.487" height="89"/>
</svg>
