<?xml version="1.0" encoding="utf-8"?>
<!-- Generator: Adobe Illustrator 17.0.0, SVG Export Plug-In . SVG Version: 6.00 Build 0)  -->
<!DOCTYPE svg PUBLIC "-//W3C//DTD SVG 1.1//EN" "http://www.w3.org/Graphics/SVG/1.1/DTD/svg11.dtd">
<svg version="1.1" id="图层_1" xmlns="http://www.w3.org/2000/svg" xmlns:xlink="http://www.w3.org/1999/xlink" x="0px" y="0px"
	 width="1000px" height="1000px" viewBox="0 0 1000 1000" enable-background="new 0 0 1000 1000" xml:space="preserve">
<g>
	<circle id="全白底_2_" fill="#FFFFFF" cx="500.957" cy="498.996" r="396.066"/>
	<path id="外粗线_2_" d="M500,892.034c215.009,0,390.372-175.362,390.372-390.371S715.009,111.292,500,111.292
		S109.628,286.654,109.628,501.663S284.991,892.034,500,892.034L500,892.034z M500,906.25
		c-222.84,0-404.588-181.748-404.588-404.587S277.16,97.076,500,97.076s404.588,181.748,404.588,404.587S722.84,906.25,500,906.25
		L500,906.25z"/>
	<circle id="黄色底_2_" fill="#FFCC00" cx="496.403" cy="501.585" r="376.487"/>
	<path id="外细线_2_" fill="#FFE610" stroke="#000000" stroke-width="4" stroke-miterlimit="10" d="M500,877.74
		c205.954,0,373.93-168.941,373.93-376.077S705.953,125.586,500,125.586S126.07,294.527,126.07,501.663S294.047,877.74,500,877.74
		L500,877.74z M500,880.498c-207.464,0-376.672-170.18-376.672-378.835S292.536,122.828,500,122.828s376.672,170.18,376.672,378.835
		S707.464,880.498,500,880.498L500,880.498z"/>
	<circle fill-rule="evenodd" clip-rule="evenodd" fill="none" cx="500" cy="499.5" r="404.588"/>
	
		<circle fill-rule="evenodd" clip-rule="evenodd" fill="none" stroke="#E6B800" stroke-width="0.216" stroke-miterlimit="2.4142" cx="500" cy="499.5" r="286.465"/>
	<polygon fill-rule="evenodd" clip-rule="evenodd" fill="none" points="271.7,390.584 731.861,390.584 500.654,791.046 
		271.7,390.584 	"/>
	<path fill-rule="evenodd" clip-rule="evenodd" fill="none" d="M496.866,401.44v8.419l-21.76,5.83v11.691l4.625,2.67v3.787
		c0,0-63.171,7.755-77.419,76.404l-12.953,1.295v9.067l-35.62,1.295l-3.886,5.829l77.068,132.764l150.898,1.295l79.011-132.764
		l-5.829-7.124h-34.324l-0.648-9.714h-11.657c0,0-12.953-66.058-80.306-78.363v-5.829h7.772l-1.943-11.01l-20.077-6.476
		l-1.295-7.124l-5.181-5.181L496.866,401.44L496.866,401.44z"/>
	<path fill-rule="evenodd" clip-rule="evenodd" d="M444.077,334.925"/>
	<path fill-rule="evenodd" clip-rule="evenodd" d="M444.077,334.925"/>
	<path id="止于至善_2_" fill-rule="evenodd" clip-rule="evenodd" d="M621.312,770.506c2.364,0.074,8.782,4.414,7.433,7.789
		c-1.069,2.485-3.415,4.675-5.915,5.616c0.113,1.209,0.019,1.189-0.505,1.993c-0.452,0.122-0.903,0.243-1.351,0.362
		c-0.282-0.24-0.564-0.482-0.846-0.724c0-0.121,0-0.241,0-0.363c-0.612-2.651,1.556-3.449,1.351-5.436
		c-0.166-1.615-2.061-6.972-2.026-7.247C619.792,771.269,620.471,771.153,621.312,770.506L621.312,770.506z M611.336,783.466
		c0.394,0.122,0.786,0.243,1.18,0.362c-0.056,2.176-0.11,4.35-0.167,6.523c-0.676,0.785-1.351,1.571-2.029,2.356
		c-3.964,0.049-5.564-3.273-7.263-5.616c0.126-0.808,0.211-0.762,0.505-1.27c0.056,0,0.113,0,0.169,0
		c2.181,0.104,2.827,1.259,5.069,1.449C609.112,785.492,610.386,784.576,611.336,783.466L611.336,783.466z M628.388,785.808
		c0.506,0,1.014,0,1.519,0c0.509,0.483,1.014,0.964,1.522,1.449c-0.057,0.484-0.114,0.966-0.17,1.448
		c-0.718,1.489-6.908,4.14-8.952,4.712c-0.113,0.24-0.227,0.484-0.338,0.724c0.219,1.283,0.774,2.363,1.352,3.259
		c2.535,0.172,5.051-1.86,6.757-3.259c1.557,0.092,2.765,1,1.858,2.535c-2.133,3.608-7.642,2.718-8.278,8.334
		c0.71,1.896,1.27,2.159,2.363,3.442c-0.498,2.858-11.267,9.478-13.853,12.141c-2.197,0.043-3.354-0.672-4.56-1.632
		c0.057-0.484,0.114-0.968,0.168-1.449c0.394-0.304,0.788-0.606,1.183-0.907c1.35-0.373,1.917,0.386,3.043,0.724
		c1.305-3.865,7.531-2.46,7.771-7.609c-0.577-1.24-1.258-1.884-2.196-2.718c-2.746,0.496-4.92,4.51-8.108,3.263
		c-0.338-0.243-0.676-0.484-1.014-0.725c0.036-0.819,0.117-0.979,0.338-1.452c1.888-0.067,9.099-5.486,9.797-6.884
		c-0.221-1.487-0.991-1.622-1.688-2.536c-0.508-0.06-1.013-0.121-1.522-0.179c-1.786,1.424-3.588,2.958-5.068,4.708
		c-1.952,0.05-2.92-0.502-4.053-1.266c-0.092-2.674,3.562-3.04,5.236-4.348c1.436-1.124,3.388-1.737,4.898-2.899
		c3.085-2.374,5.733-6.166,9.125-8.153C626.474,786.291,627.429,786.047,628.388,785.808L628.388,785.808z M342.612,780.139
		c0.419,0.108,0.839,0.217,1.258,0.325c0.668,1.885,3.053,2.56,3.373,4.705c1.492,10.076-8.851,10.91-10.266,16.618
		c0.122,0.013,3.21,1.223,3.326,1.255c3.465,0.965,3.389,0.753,6.213,1.443c4.102,1.003,12.642,5.754,16.505,5.46
		c2.543-0.195,3.7-0.946,6.398-0.869c2.04,1.198,7.95,7.154,6.281,10.305c-1.419,2.569-4.834,1.352-6.832,0.025
		c-5.933-3.942-14.563-7.149-21.915-10.847c-4.336-2.179-14.85-0.131-16.67-1.216c-1.886-0.954-2.664-4.434-1.084-7.107
		c2.194-2.094,4.387-4.188,6.58-6.282c1.367-1.497,1.681-3.139,2.932-4.976c1.051-1.21,2.105-2.418,3.155-3.629
		c-0.171-1.278-0.34-2.556-0.51-3.832C341.775,781.058,342.193,780.599,342.612,780.139L342.612,780.139z M390.849,788.761
		c4.853,0.668,4.608,4.226,5.635,8.135c0.299,1.14,1.33,2.344,0.756,3.65c-2.42,4.322-11.235,0.68-11.095-3.568
		c1.02-1.212,2.043-2.422,3.066-3.633c0.733-2.131,0.028-2.99,1.238-4.426C390.584,788.866,390.715,788.814,390.849,788.761
		L390.849,788.761z M429.069,826.946c-5.789,1.139-13.398,15.598-20.225,14.577c-0.329-0.115-0.662-0.232-0.991-0.348
		c-0.025-0.468-0.049-0.939-0.074-1.409c1.357-2.347,4.72-2.643,7.144-4.342c1.895-1.326,11.758-13.629,12.273-15.589
		c-0.074-0.401-0.149-0.802-0.223-1.203c-0.329-0.115-0.658-0.233-0.987-0.348c-4.889,0.922-5.98,2.956-7.141,3.709
		c-0.381,0.247-3.727,1.956-3.169,1.632c-1.799,1.046-2.178,0.963-3.431,1.82c-1.59,1.088-2.053,0.79-3.114,0.59
		c-0.362-0.068-1.623,0.49-1.99,0.498c-0.9,1.357-1.097,1.252-3.18,1.883c-0.492-0.323-0.889-0.513-1.381-0.837
		c-0.302-2.446,1.351-5.31,3.012-6.694c1.506-1.255,2.093-1.501,3.389-1.506c1.663-0.006,1.816-1.003,2.698-1.462
		c1.443-0.753,2.121,0.523,5.461,0.123c1.443-0.173,2.521-0.564,3.724-1.381c1.155-0.385,1.553-0.064,2.205-0.143
		c4.535-0.552,7.121-5.831,8.771-8.55c-0.397-2.352-0.877-10.088-0.28-11.489c0.006-0.15,0.073-0.743-0.266-0.749
		c-1.658-0.031-3.032-1.428-2.807-1.876c0.028-3.871,7.241-1.655,8.215,0.432c2.478,5.326-0.816,10.02-0.644,14.499
		c1.077,1.184,1.947,1.563,2.372,3.824c-0.391,1.439-0.894,2.339-3.015,2.688c0.596,0.794,0.999,2.045,2.233,2.071
		c2.287-1.568,11.173-14.387,10.819-17.449c-1.593-1.737-1.494-2.278-0.407-4.188c0.06-0.011,0.121-0.022,0.181-0.034
		c3.544-0.557,9.358,4.683,7.646,8.35c-2.46,5.279-6.144,10.483-10.644,14.402c-2.352,2.047-6.726,2.57-7.961,5.913
		c-0.835,2.249-0.711,4.132-1.212,6.438c-0.284,1.305-1.792,2.849-2.04,3.985c-0.551,2.525-0.12,1.085-0.572,4.805
		c-0.084,0.69-0.186,1.844-0.101,2.3c0.112,0.497,0.014,0.288,0.1,0.759c0.232,3.318-0.48,6.116-2.844,7.756
		c-3.349,2.325-6.658-0.627-8.017-1.777c0.544,0.46-0.299-0.377-0.79-0.859c-0.113-0.274-0.327-0.771-0.439-1.046
		c0.205-0.747,0.37-0.64,0.987-1.13c1.558-0.858,3.491-0.459,4.667-1.752C428.337,842.39,429.688,830.152,429.069,826.946
		L429.069,826.946z M637.34,797.023c1.246,0,1.504,0.251,2.196,0.724c0.057,0.606,0.114,1.208,0.171,1.812
		c-1.469,3.103-6.482,2.954-8.616,6.704c-1.127-0.061-2.254-0.122-3.38-0.183c-0.225-0.118-0.449-0.24-0.676-0.362
		c0.056-0.362,0.113-0.724,0.171-1.087C628.131,802.497,634.879,798.532,637.34,797.023L637.34,797.023z M361.242,786.477
		c0.703,0.142,1.405,0.283,2.106,0.425c1.105,1.293,1.374,1.605,2.61,3.055c3.111,1.581,4.915-0.715,7.292,1.378
		c-0.007,0.066-0.014,0.131-0.021,0.194c-0.176,1.089-0.32,1.126-0.768,1.703c-3.187,1.056-4.436,5.29-7.49,5.942
		c-2.802,0.597-7.27-6.972-5.723-10.528C359.91,787.923,360.577,787.199,361.242,786.477L361.242,786.477z M564.839,793.443
		c1.966,0.102,2.95,0.995,3.775,2.171c-0.064,0.481-0.127,0.962-0.19,1.446c-3.451,1.772-19.026,4.114-20.187,6.148
		c0.504,1.384,1.008,2.773,1.509,4.158c-4.679,5.542-14.154,7.98-16.789,15.188c0.063,0.061,0.123,0.121,0.187,0.181
		c5.123,0.044,8.19-2.369,12.831-3.074c0.063,0.058,0.127,0.119,0.187,0.18c0,0.3,0,0.604,0,0.905
		c-3.996,2.86-13.185,6.26-19.055,6.871c-0.557-0.68-1.276-1.004-2.073-1.447c-0.261-1.123-0.792-2.973-0.377-3.978
		c0.941-1.763,3.56-1.714,5.093-2.892c3.151-2.419,9.702-7.303,11.319-10.85c-0.103-0.895-0.163-1.047-0.754-1.445
		c-1.642-0.985-3.746-0.146-5.661,0c-3.109,0.233-5.498-1.07-7.547-2.532c0.042-0.817,0.134-0.977,0.378-1.448
		c4.394-0.502,7.781-1.611,11.51-2.35c1.006,0,2.011,0,3.019,0c1.278-0.303,1.897-1.088,3.585-1.264
		c0.606-0.136,0.711,0.067,1.077-0.066c0.202-0.074,0.354-0.095,0.532-0.245C550.572,796.266,560.911,795.229,564.839,793.443
		L564.839,793.443z M653.034,801.456c2.449-0.053,3.737,1.46,4.391,3.259c0,0.424,0,0.846,0,1.269
		c-0.785,1.24-1.421,2.314-3.379,2.356c-4.737-1.835-11.62,2.285-13.684,1.449c0-0.301,0-0.603,0-0.907
		C643.066,804.653,649.362,804.598,653.034,801.456L653.034,801.456z M632.94,807.631c1.701-0.149,2.954,0.216,2.702,1.631
		c0.168,1.207,0.338,2.413,0.507,3.622c-0.748,2.277-3.356,4.48-5.405,4.891c-0.057,0.606-0.114,1.208-0.171,1.815
		c-0.338-0.122-0.675-0.244-1.013-0.363c-0.057-0.121-0.113-0.243-0.168-0.363c0.145-3.384,2.508-5.422,3.209-8.153
		C632.981,809.238,632.358,808.703,632.94,807.631L632.94,807.631z M623.469,817.596c0.337,0.061,0.675,0.121,1.013,0.179
		c0.337,0.304,0.675,0.606,1.013,0.907c-0.056,0.484-0.11,0.966-0.167,1.449c-1.849,0.512-1.876,3.596-3.548,4.35
		c-0.959-0.061-1.916-0.122-2.872-0.183c-0.614,0.19-1.19,0.736-2.196,0.907c0.641,1.734-0.183,2.504-1.184,3.442
		c-1.237,0-4.446-0.896-4.728-0.724c-0.216,0.129-0.555,1.559-0.846,1.811c-1.239,0.907-2.478,1.81-3.718,2.718
		c-0.448,0-0.9,0-1.351,0c-3.535,2.516-7.347,9.447-13.177,5.253c-0.056-0.424-0.111-0.846-0.167-1.269
		c2.822-3.137,3.027-0.86,6.082-1.266c1.053-3.221,3.336-2.65,6.082-3.987c5.631-2.743,9.294-8.394,14.528-11.414
		c0.505,0.183,1.014,0.362,1.519,0.545C620.711,819.105,622.48,818.828,623.469,817.596L623.469,817.596z M642.053,817.398
		c0.618,0.061,1.237,0.122,1.857,0.183c0.398,0.05,0.557,0.427,1.226,0.412c0.462-0.01,0.909-0.034,1.645,0.491
		c0,1.932,0,3.865,0,5.798c-0.562,0.663-1.124,1.33-1.69,1.994c0,1.932,0,3.865,0,5.798c-1.173,2.953-2.528,1.075-3.547,1.628
		c-1.344,0.73-3.486,2.638-5.068,3.08c-1.013,0.061-2.027,0.122-3.04,0.183c-1.625,0.589-2.033,2.185-4.056,2.356
		c-3.088-1.736-4.766-6.436-6.924-9.241c-0.932-1.208-2.679-0.533-3.719-1.632c0-1.146,0.147-1.374,0.509-1.993
		c8.822-0.222,7.641,3.927,11.993,8.516c3.731-0.036,7.507-3.221,9.462-5.436c-0.169-0.785-0.34-1.57-0.507-2.355
		c-0.189-1.824,0.637-3.04,0.168-4.892c-0.449-0.118-0.9-0.24-1.352-0.363c-1.718,0.785-2.678,2.398-4.39,2.901
		c-0.057-0.06-0.113-0.121-0.171-0.182c-0.177-1.822-0.081-2.362,0.676-3.442c2.529-0.872,1.35-1.804,2.872-2.897
		C639.348,818.002,640.702,817.699,642.053,817.398L642.053,817.398z M557.359,813.233c7.341-0.043,10.863,0.564,14.716,4.52
		c-0.063,0.483-0.126,0.963-0.186,1.446c-0.378,0.76-0.748,0.9-1.512,1.267c-3.511-0.6-6.174-3.263-9.243-4.158
		c-1.729-0.505-3.954-0.153-5.284-0.906c0-0.061,0-0.121,0-0.179C556.004,813.859,556.484,813.827,557.359,813.233L557.359,813.233z
		 M467.05,809.14c3.885-0.877,10.116,1.411,8.907,6.161c-0.166,0.801-0.289,1.001-1.03,1.435c-2.069,1.34-7.454-0.118-11.554-0.286
		c-3.851-0.157-7.571,0.654-10.2-1.367c-0.042-0.228-0.085-0.459-0.127-0.686c0.344-0.478,0.687-0.957,1.031-1.435
		c1.86-0.309,11.253-1.25,12.238-2.798C466.557,809.822,466.803,809.481,467.05,809.14L467.05,809.14z M552.766,823.338
		c4.148,0.318,2.458,5.254,5.093,6.872c2.242,1.781,4.646-1.257,7.17-0.723c0.298,0.066,0.494-0.047,0.769-0.013
		c0.124-0.061,0.492-0.121,0.618-0.18c0.176-0.106,0.357-0.136,0.498-0.169c0.504,0.06,1.008,0.12,1.508,0.179
		c0.44,0.362,0.881,0.724,1.321,1.087c-0.031,1.247-0.255,1.314-0.754,1.988c-3.911,1.45-11.047,2.124-11.886,6.509
		c-0.332,1.733-0.007,3.57-0.568,5.426c-0.486,1.61-1.744,2.296-1.886,4.34c0.251,0.42,0.504,0.842,0.754,1.264
		c6.914,1.843,16.333-7.62,23.394-0.54c-0.062,0.479-0.122,0.962-0.186,1.446c-0.377,0.24-0.754,0.483-1.132,0.723
		c-1.047,0.508-3.169,0.477-4.152,0c-0.274-0.274-0.595-0.493-0.937-0.444c-3.545,0.516-5.327,0.066-8.873,0.082
		c-0.811,0.002-2.46,1.364-3.585,1.629c-2.427,0.565-4.913-0.022-7.36,0.54c-1.758,0.784-3.522,1.568-5.28,2.352
		c-3.776,1.39-8.593,2.726-12.076,3.797c-3.291,1.011-6.485-1.045-7.736-3.074c0.062-0.179,0.125-0.362,0.19-0.541
		c0.338-0.744,0.741-1.113,1.508-1.448c2.229-1.073,4.237,0.94,6.605,0.723c4.628-0.42,9.932-2.183,13.204-4.159
		c0.734-2.219,1.245-8.958-0.564-10.485c-3.629-1.678-9.7,1.919-14.152-0.906c0.056-1.011,0.193-1.055,0.568-1.625
		c4.403-0.86,13.27-1.636,15.47-5.246C552.14,829.743,550.315,825.665,552.766,823.338L552.766,823.338z M451.85,824.916
		c4.043-0.901,9.464,0.688,10.493,3.738c0.938,2.777-5.774,10.205-8.37,9.718c-2.701-0.783,0.615-5.028,1.244-6.267
		c-1.225-2.186-2.721-2.246-4.37-3.629c-0.286-1.182-0.526-1.779-0.299-2.608C450.984,825.55,451.418,825.235,451.85,824.916
		L451.85,824.916z M449.859,843.102c0.487-0.03,0.976-0.062,1.464-0.094c0.786,1.232,1.979,2.642,3.086,3.689
		c1.651,1.563,6.83,1.098,5.972,5.286c-0.2,1-0.734,1.85-1.585,2.423c-1.114,0.574-3.323,1.456-4.436,1.002
		c-1.354-0.554-0.701-1.904-1.468-2.925C451.03,850.006,446.214,847.175,449.859,843.102L449.859,843.102z"/>
	<circle id="白色底_2_" fill="#FFFFFF" cx="500.082" cy="499.582" r="281.934"/>
	<path id="内粗线_2_" stroke="#000000" stroke-width="4" stroke-miterlimit="10" d="M500.619,781.778
		c154.783,0,281.024-126.383,281.024-281.339S655.402,219.1,500.619,219.1S219.595,345.482,219.595,500.439
		S345.836,781.778,500.619,781.778L500.619,781.778z M500.619,785.685c-156.931,0-284.926-128.138-284.926-285.246
		s127.995-285.246,284.926-285.246s284.926,128.138,284.926,285.246S657.55,785.685,500.619,785.685L500.619,785.685z"/>
	<polygon id="绿色底_2_" fill="#3D6016" points="501.888,388.104 741.095,388.104 621.491,595.263 501.888,802.421 
		382.285,595.263 262.682,388.104 	"/>
	<path id="内黄底_2_" fill="#FFCC00" d="M498.509,406.01l-0.047,8.504l-3.514,0.377l-19.52,7.217v4.268l4.407,0.088
		l-0.158,11.627l-2.427,0.335c-2.05,0.213-56.357,4.017-75.31,64.39l-0.628,2.887l-26.066-0.502l-0.084,27.446l-24.427,0.013
		l1.768,2.938l72.686,122.607l74.786-0.132l73.419,0.426l77.151-124.978l-4.184-1.041l-20.501,0.084v-26.484l-25.857-0.565
		l-0.439-1.946c-17.384-58.867-73.876-65.18-74.055-65.206l-3.452-0.251l-0.251-11.924l4.268,0.063l-0.188-3.577l-19.256-7.419
		l-3.462-0.677l0.146-16.234l-2.594-4.268l-2.212,4.184V406.01z"/>
	<path id="大礼堂轮廓_2_" d="M498.188,406.314l-0.047,8.504l-3.514,0.377l-19.52,7.217v4.268l4.407,0.088l-0.158,11.627
		l-2.427,0.335c-2.05,0.213-56.357,4.017-75.31,64.39l-0.628,2.887l-26.066-0.502l-0.084,27.446l-24.427,0.013l1.768,2.938
		l72.686,122.607l74.786-0.132l73.419,0.426l77.151-124.978l-4.184-1.041l-20.501,0.084v-26.484l-25.857-0.565l-0.439-1.946
		c-17.384-58.867-73.876-65.18-74.055-65.206l-3.452-0.251l-0.251-11.924l4.268,0.063l-0.188-3.577l-19.256-7.419l-3.462-0.677
		l0.146-16.234l-2.594-4.268l-2.212,4.184V406.314z M492.702,404.122l0.084-7.525l1.339-0.711l6.276-4.184l4.77,3.096l2.72,1.423
		l-0.067,6.778l-0.076,7.552l12.422,5.303l10.962,5.868l-0.073,3.012l0.067,6.741l-5.475,0.016l-0.008,2.631
		c16.663,2.428,57.557,9.628,77.807,67.542h27.739l-0.126,25.576l19.079,0.042l7.468,0.063l1.381,2.134l-1.019,1.857l-1.244,2.089
		l-78.716,135.505l-0.853,1.433l-1.668,0.013l-75.812,0.592h-0.047l-75.812-0.592l-1.669-0.013l-0.853-1.433l-78.716-135.505
		l-1.244-2.089l1.799-1.625l3.588-1.362l3.582,0.162l19.555,0.006l0-26.526l27.488-0.326c17.572-59.044,65.249-63.922,77.319-66.407
		l0.084-3.933l-5.104-0.126l-0.126-9.1v-2.134l1.284-0.727l21.616-8.148l0.258-5.998L492.702,404.122z M470.807,419.236
		l21.968-8.436l-0.22,1.412"/>
	<path id="内三角_2_" stroke="#000000" stroke-miterlimit="10" d="M758.228,378.453l-11.222,19.251L511.08,802.423L500,821.429
		l-11.08-19.006L252.995,397.705l-11.223-19.251H758.228L758.228,378.453z M726.868,399.232l-451.771-1.03l225.136,391.472
		l217.626-374.836L726.868,399.232z"/>
	<path fill-rule="evenodd" clip-rule="evenodd" d="M259.658,568.639l-0.063,36.902h-5.46l0.102-29.379l-9.269,6.661v-5.146
		c6.213-4.662,7.212-5.454,10.706-8.981h3.608L259.658,568.639z M269.272,596.931h4.292c0.391,4.168,2.408,6.257,6.058,6.257
		c4.426,0.283,7.228-4.527,8.403-14.448h-0.201c-1.432,2.872-4.099,4.382-8.009,4.53c-7.027-0.296-10.677-4.464-10.936-12.517
		c0.393-8.484,4.169-12.938,11.327-13.369c7.945,0.148,12.053,6.109,12.312,17.906c-0.525,14.09-4.817,21.274-12.895,21.56
		C273.112,606.563,269.663,603.26,269.272,596.931L269.272,596.931z M280.599,588.954c4.3-0.148,6.508-3.092,6.642-8.846
		c-0.257-5.316-2.609-8.05-7.035-8.198c-4.426,0.296-6.7,3.165-6.834,8.632C273.238,586.292,275.649,589.098,280.599,588.954
		L280.599,588.954z M313.923,587.444c-0.134-10.205-2.656-15.386-7.56-15.534c-5.04,0-7.492,5.181-7.356,15.534
		c0,10.353,2.452,15.524,7.356,15.524C311.267,602.968,313.79,597.796,313.923,587.444L313.923,587.444z M318.777,587.444
		c-0.401,12.652-4.541,19.12-12.426,19.406c-8.149-0.286-12.289-6.754-12.426-19.406c0.137-13.086,4.278-19.774,12.426-20.06
		C314.236,567.67,318.376,574.357,318.777,587.444L318.777,587.444z M325.304,579.433l-5.188-0.125
		c0.293-8.995,4.383-11.895,12.51-12.175c6.944,0.567,10.58,4.617,11.107,11.653c0.261,5.352-3.285,8.69-8.764,13.366l-3.473,2.971
		c-3.389,2.893-3.791,3.14-4.184,5.816l16.421,0.015v4.431h-23.701c0.293-7.039,3.075-9.29,8.368-13.859l5.021-4.142
		c4.007-3.096,5.859-5.29,5.592-8.813c-0.388-4.36-1.901-6.105-6.22-6.25C328.204,572.32,325.722,573.032,325.304,579.433
		L325.304,579.433z"/>
	<path id="东南大学_2_" fill-rule="evenodd" clip-rule="evenodd" d="M595.761,314.231c-0.099-0.974-0.12-1.293-0.188-3.954
		c-0.045-1.767-0.01-2.842-0.241-4.508c-0.672-4.862-0.326-3.409-1.396-7.08c-0.142-0.487-0.744-4.156-0.796-4.661
		c-0.167-1.632,0.566-2.871,1.213-3.222c1.004-0.544,2.356,0.918,2.948,1.687c1.695,2.203,2.445,4.255,2.675,5.578
		c0.17,0.977,0.705,5.565,0.711,5.648c0.165,2.349,0.435,4.8,0.669,6.987c0.251,2.343-0.46,2.678,0.709,4.032
		c0.576,0.667,1.369,0.365,1.607,0.365c1.541-0.344,1.809-2.345,1.595-4.073c-0.611-4.94-1.412-5.713-1.945-8.734
		c-0.377-2.134-0.316-2.41-0.471-3.473c-0.121-0.832-0.379-2.057-0.575-6.108c-0.126-2.594-0.031-2.665,0.45-4.78
		c0.38-1.669,1.039-2.677,1.766-2.962c1.968-0.772,3.214-0.472,3.317,0.389c0.578,4.804,0.656,5.262,0.743,8.519
		c0.089,3.333,0.427,4.011,0.513,5.946c0.088,2,0.67,4.927,0.784,7.845c0.133,3.389,0.802,7.701,3.235,4.46
		c0.875-1.166,0.123-2.56,0.31-4.084c0.217-1.761-0.064-2.115,0.157-4.048c0.376-3.283-0.125-4.205,0.126-8.661
		c0.078-1.385,1.237-2.143,1.192-2.458c-0.084-0.586-0.074-0.42-0.92-2.636c-0.879-2.301,0.544-11.788,0.669-16.118
		c0.045-1.569-0.29-4.742,1.098-6.307c0.822-0.927,2.197-0.385,3.556,0.302l0.837,0.702c0.094,1.318-2.385,4.111,4.079,1.098
		c1.316-0.613,3.86-2.165,5.805-1.349c1.611,0.675,0.502,4.022,0.502,4.079c-0.059,0.448-4.165,1.782-5.681,2.714
		c-3.198,1.966-7.69,0.556-7.341,8.865c-0.037,0.836-0.031,2.604-0.094,4.33c-0.046,1.265,2.078-0.942,3.358-0.941
		c0.636,0,1.825,1.153,1.93,1.224c0.452,0.307,1.318,1.192,1.02,0.863c0.411,0.454,0.685,0.818,0.722,1.083
		c0.173,1.255,0.204,4.114,1.945,3.467c2.425-0.9,1.272-0.463,2.887-1.192c0.773-0.349,2.636,0.031,3.922-0.22
		c1.67-0.326,2.138-3.191,2.228-4.676c0.167-2.761-0.044-3.489-1.067-4.33c-1.435-1.18-3.618-0.816-6.433,0
		c-3.358,0.973-4.389,4.017-6.135,3.891c-0.134-0.01-1.368-0.277-1.506-0.298c-0.061-0.504,0.031-0.643,0.379-1.388
		c1.982-4.24,14.74-11.906,19.28-5.735c2.479,3.37,1.598,6.748,0.941,9.811c-0.628,2.929-1.579,5.138-2.134,7.322
		c-0.487,1.916-0.31,2.049-0.669,4.142c-0.339,1.977-0.287,1.419-0.627,3.113c-0.24,1.195-1.207,4.184-0.335,4.56
		c1.975,0.802,5.129-0.013,6.841-0.408c3.126-0.723,8.851,0.946,10.146,2.353c1.541,1.674-2.27,5.786-3.598,6.527
		c-1.377,0.281-5.484,3.904-6.862,4.184c-2.935,1.683-2.839,1.497-5.774,3.18c-3.196,1.202-7.594-1.213-5.272,1.328
		c1.295,1.418,0.728,2.933-0.256,5.404c-0.987,0.37-3.054,1.636-4.095,2.18c-1.123,1.435-1.157,1.357-1.506,2.092
		c-1.18,2.486-4.373,6.148-1.843,6.073c6.25-0.188,4.939,5.977,4.939,5.977s2.248-0.604,4.937-0.293
		c2.555,0.296,4.725-0.258,6.109,0.084c2.879,0.713,5.46,3.996,6.59,6.286c0.43,0.872,0.119,1.728-0.722,2.008
		c-0.941,0.314-1.987,0.816-2.772,0.282c-1.77-1.204-2.065-2.287-3.598-2.552c-3.557-0.615-10.449-0.711-10.449-0.711
		s-0.379,4.017-0.439,4.205c-0.61,1.89-2.798,5.205-3.703,6.496c-1.694,2.416-5.603,4.265-7.562,4.738
		c-9.1,2.197-12.849-4.326-11.276-13.765c0.544-3.263,3.039-5.241,6.109-6.067c2.593-0.697,7.387-0.119,7.238-2.552
		c-0.126-2.05-0.494-0.925-1.632-2.259c-2.803-3.286-0.456-4.442,1.255-6.203c1.083-1.114,1.059-1.409,1.569-2.228
		c0.378-0.606,0.879-1.834,0.973-2.448c0.141-0.926-1.255-0.533-2.667-0.361c-3.442,0.421-3.687,1.757-6.213,1.03
		c-1.082-0.311-1.956-1.092-1.443-1.862c1.088-1.632,0.947-1.809,2.155-2.385c1.52-0.725,1.987-1.004,3.964-2.102
		c2.835-1.575,3.819-2.105,5.397-2.228c1.15,0.426,2.719,0.956,4.283,0.675c2.92-0.526,2.743-0.82,5.382-2.871
		c2.195-1.706,5.488-4.232,6.778-5.568c0.261-0.27,1.544-1.072,3.024-2.701c0.31-0.342,0.367-0.571,0.349-1.255
		c-0.008-0.299,0.062-0.533-0.11-0.91c-0.172-0.377-0.891-0.47-1.898-0.11c-0.659,0.235-1.036,0.361-1.707,0.699
		c-0.114,0.057-1.81,0.947-1.923,1.005c-0.781,0.407-1.124,0.431-1.877,0.806c-1.838,0.916-1.424,0.779-3.538,1.159
		c-0.418,0.075-1.691,0.667-3.065,1.123c-1.154,0.383-1.712,1.633-2.34,0.26c-0.251-0.549-0.471-1.067-0.329-1.804
		c0.143-0.747,0.298-0.612,0.381-1.413c0.025-0.244-0.034-0.707-0.271-0.768c-0.397-0.102,0.361,0.115-0.894-0.22
		c-0.883-0.235-2.322,0.751-2.161,0.641c1.206-0.826-0.585,0.596-2.028,0.756c-0.764,0.085-1.191,0.802-1.82,1.396
		c-0.975,0.922-1.726,1.349-2.699,1.491c-1.455,0.211-1.506-0.753-3.138-1.192c-1.605-0.432-3.303,0.463-4.383,1.443
		c-0.644,0.584-0.418,0.502-1.925,1.046c-0.451,0.163-1.632,0.377-3.439-0.26c-1.169-0.412-0.371-0.68-2.756-0.68
		c-1.293,0-1.667,0.482-3.679-0.231c-0.791-0.28-1.42-0.936-1.732-1.616 M364.965,272.199c3.067-0.053,5.805,1.888,6.655,3.984
		c0.941,2.322,0.628,3.161,0.628,4.707c0,1.726-0.1,3.505-0.188,4.268c-0.147,1.26-0.185,1.726,0,3.546
		c0.135,1.325,1.929,1.569,3.075,2.625c1.146,1.056,1.396,3.157,0.795,4.728c-0.556,0.973-1.472,1.573-2.385,1.925
		c-1.317,0.508-2.56,0.767-2.121,3.126c0.325,0.249,0.652,0.498,0.978,0.747c2.431,0.604,4.976-0.284,6.833-0.651
		c4.017-0.795,6.408-1.153,9.996-1.401c1.681-0.323,4.114-0.563,6.071-0.732c2.117,1.125,4.937,6.137,3.305,9.832
		c-2.518,5.611-12.038,9.157-16.108,13.807c-1.283,1.465-2.606,2.582-3.64,3.849c-1.569,1.922-3.095,2.864-5.087,4.391
		c-1.462,1.118-2.967,1.756-4.097,3.223c-0.848,0.559-1.029,1.258-2.051,2.387c-1.172,1.296-1.084,9.136-1.024,11.378
		c0.084,3.138-0.126,6.286,0.094,8.922c0.046,0.549,0.565,1.541,1.004,3.044c0.143,0.49,0.263,2.398,0.251,3.075
		c0,0,0.324,2.322-0.178,3.828c-0.414,1.242-2.494,1.892-3.473,2.761c-0.717-0.061-2.002-0.148-2.72-0.209
		c-1.793-0.82-3.635-2.538-5.104-3.64c-2.535-1.898-4.961-1.485-5.439-4.937c-0.199-1.436-0.01-1.003,0.396-1.566
		c0.084-0.117,1.838,0.045,1.969-0.016c2.262,0.027,3.823,0.215,5.874,0.106c2.344-0.125,1.761-2.081,2.012-4.005
		c0.201-1.543,0-2.008-0.084-4.393c-0.054-1.529,0.111-2.988-0.933-4.107c-0.066,0-0.13,0-0.197,0
		c-4.918,3.574-14.814,13.383-23.285,11.936c-0.066-0.622-0.13-1.243-0.197-1.865c3.76-1.89,6.432-4.643,9.393-7.272
		c6.348-5.637,7.713-6.823,13.835-13.865c0.077-0.088,0.108-0.48,0.086-1.311c-0.01-0.384,0.11-1.537-0.042-1.59
		c-0.818-0.284-0.633-0.138-1.255-0.105c-1.639,0.088-0.923,0.074-3.243,0.272c-4.594,0.391-10.733,3.077-12.907,0.084
		c-1.113-1.532-0.886-3.657-1.213-5.523c-0.705-1.364-1.23-3.74-2.301-5.146c-0.887-1.165-3.391-2.981-3.918-4.15
		c-0.59-1.308,0.607-2.107,0.978-2.61c4.303-1.248,6.145,0.971,9.038,2.294c1.233,0.564,3.139,0.014,4.581-0.063
		c2.353-0.126,4.234-0.266,5.512-0.508c4.062-0.768,6.115-1.318,6.036-3.571c-0.019-0.527,0.086-0.28,0.063-1.726
		c-0.007-0.422-0.021-0.967-0.157-1.192c-0.071-0.118-0.986-0.252-1.381-0.094c-1.981,0.793-2.687,1.006-4.362,1.13
		c-4.676,0.345-8.141,0.846-11.202-1.82c-0.973-0.847-0.505-2.389-0.439-2.887c0.13-0.186,1.974-0.362,2.197-0.408
		c5.999-1.248,4.26-0.742,7.405-1.381c1.341-0.272,7.916,0.143,7.866-2.343c-0.03-1.504,0.336-3.418-0.426-4.044
		c-1.669-1.372-1.997-0.249-4.145-0.195c-2.876,0.072-6.027,0.089-9.04-3.52c0.001-1.37,0.245-1.515,0.784-2.239
		c3.934-0.594,7.617-0.815,9.919-1.152c1.74-0.255,2.94-0.341,3.012-1.632c0.172-3.074,0.075-5.838,0.126-7.217
		c0.073-2.002-0.004-1.541-3.075-5.899c-0.215-0.305-0.199-2.003-0.199-2.376c0.287-0.382,0.832-1.187,1.266-1.452
		C361.221,272.339,363.337,273.224,364.965,272.199L364.965,272.199z M526.047,292.627c0.011-0.371,0.084-7.35,0.167-7.615
		c0.24-0.759,0.24-1.538,0.528-1.83l0.31-0.348c2.366-1.141,3.406-0.134,4.036,1.007c0.603,1.691,0.44,7.601,0.397,8.954
		c-0.136,4.267-0.085,4.479-0.167,7.615c-0.051,1.945,0.331,6.719,0.377,8.284c0.047,1.616,0.163,2.854,0.335,3.556
		c0.214,0.875,0.515,1.703,1.925,1.966c3.138,0.586,5.216,0.021,10.418-2.134c4.142-1.715,5.659-1.693,8.159-3.766
		c1.715-1.423,1.797-3.342,2.817-3.483c1.743-0.241,2.172,0.638,2.748,0.638c0.98,1.274,3.476,7.506,2.803,9.288
		c-0.434,0.942-0.434,0.942-2.106,1.344c-4.101,0.987-5.991,1.172-9.734,2.422c-1.539,0.514-2.552,0.74-4.142,1.381
		c-2.423,0.976-2.702,1.256-5.515,2.002c-4.543,1.205-10.61,1.555-10.676,6.115c-0.065,4.479,0.126,3.514-0.544,7.28
		c-0.308,1.732-0.72,3.837-1.417,5.849c-0.618,1.786-0.709,3.234-1.596,4.903c-2.517,4.737-3.117,5.502-7.698,6.945
		c-4.694,1.479-10.659,2.636-13.734,0.745c-0.227-0.782-0.335-1.218-0.174-2.111c1.958-2.4,5.457-3.538,8.009-4.972
		c2.762-1.55,3.954-2.28,6.255-5.795c1.234-1.885,3.401-6.647,3.975-8.828c0.392-1.491,1.018-3.691,1.083-4.974
		c0.079-1.553,0.2-1.226-0.031-2.903c-2.798-1.403-6.679-1.254-9.837-2.667c-1.672-0.75-3.87-2.586-4.832-4.268
		c-1.569-2.74-0.753-0.146-1.862,1.464c-0.453,0.658-0.941-0.6-1.653-1.213c-0.717-0.617-2.406-0.732-2.636-1.297
		c-0.225-0.554-0.584-1.836-0.126-2.217c1.004-0.837,2.28-0.92,3.326,0.251c1.271,1.423,2.313,2.247,3.954,1.13
		c0.924-0.629,3.388-0.421,4.205-0.408c1.318,0.021,3.915,0.17,5.083,0.126c1.176-0.045,2.464,0.154,3.64,0.073
		c2.185-0.15,2.319,0.287,2.907-1.398c1.235-3.539,0.809-4.548,0.733-8.497 M475.924,333.587c0.389-1.343,0.92-5.104,1.255-7.071
		c0.327-1.921,0.557-4.916,0.565-7.552c0.009-3.126-0.825-3.836-2.04-3.87c-5.586-0.157-10.527-0.85-15.451,0.117
		c-2.436,0.477-2.738,0.49-3.784,0.741c-0.211,0.051-0.778,0.526-0.769,0.743c0.061,1.522,0.078,0.957,0.099,1.924
		c0.01,0.478,0.059,3.08-0.366,3.3c-1.003,0.52-4.03,1.93-5.178,3.813c-0.499,0.819-0.973,1.036-0.439,2.04
		c0.247,0.464,1.95-0.036,2.918-0.628c2.317-1.416,3.333-2.493,6.221-2.605c0.742,0.537,1.484,1.076,2.226,1.613
		c-0.061,0.301-0.124,0.599-0.185,0.897c-1.249,2.071-8.042,2.087-10.529,4.53c0.061,0.538,0.03,1.319,0.008,2.436
		c-0.026,1.319-0.605,2.328,0.628,2.824c1.769-0.237,2.029-1.285,3.954-1.475c0.558,0.299,1.734,0.139,2.291,0.439
		c0.248,0.777,0.248,0.777-0.187,2.009c-0.624,1.768-0.865,1.696-1.444,1.976c-1.82,0.879-3.532,0.416-5.24,1.255
		c-0.749,4.033,0.66,9.341-1.119,13.587c-1.297,3.096-0.937,3.281-3.447,6.056c-1.036,1.145-3.24,3.029-4.095,2.855
		c-0.647-0.131-2.584-0.795-2.584-2.469c0-1.828,0.71-0.839,1.631-1.717c1.394-1.331,1.583-2.002,2.485-4.12
		c0.323-0.758,0.417-1.375,0.822-2.656c0.289-0.915,0.742-2.151,0.681-3.109c0.2-0.836-0.008-1.088,0.072-2.498
		c0.084-1.464-0.597-2.857-1.789-2.573c-1.579,0.377-2.671,1.006-5.272,1.13c-1.736,0.083-3.966,0.478-4.895-0.753
		c-0.01-1.154,0.051-1.081,0.439-1.726c3.233-0.771,5.716-1.521,8.504-2.291c1.267-0.35,1.925-0.272,2.659-1.002
		c0.549-0.546,0.249-1.028,0.228-1.696c-0.063-2.029-0.155-4.041-0.155-4.041s-3.793,1.411-5.838,2.503
		c-1.599,0.854-2.391,1.24-4.268-0.063c-1.13-0.784-0.986-1.33-0.753-1.883c0.502-1.192,0.188-1.443,0.031-3.326
		c-0.329-3.945-2.581-3.535-4.362-5.178c-0.351-0.323-1.036-0.941-0.91-1.906c0.322-2.472,3.734-3.79,5.005-5.45
		c1.008-1.317,1.349-1.867,2.306-3.69c0.529-1.006,1.074-2.321,1.538-3.358c1.091-2.439,3.577-6.652,3.263-10.481
		c-0.089-1.084-1.273-2.416-2.071-2.604c-2.072-0.49-3.004-0.698-4.613-0.157c-1.71,0.575-2.896,1.059-4.738-0.471
		c-1.507-1.252-2.233-2.682-1.088-3.381c1.794-0.643,5.191-0.106,6.924-0.102c2.988,0.008,3.947-0.155,6.119-0.078
		c0.894,0.031,0.767-0.296,0.8-0.973c0.11-2.244-0.211-6.296,0.063-8.347c0.061-0.46-0.21-1.315,0.216-1.59
		c0.486-0.314,1.738-1.004,2.326-0.779c1.954,0.746,5.646,3.589,3.824,2.158c-0.137-0.108,1.321,0.816,1.17,1.901
		c-0.356,2.552-1.088,2.688-0.962,4.853c0.108,1.866,0.48,2.362,3.577,1.464c2.548-0.738,5.583-2.451,7.813-2.657
		c0.972,0.475,1.428,1.375,1.098,2.416c-0.973,3.075-3.086,3.373-6.057,4.246c-1.728,0.507-3.251,0.708-4.769,1.245
		c-1.991,0.704-1.715,0.408-2.604,1.255c-1.946,1.851-1.81,3.326-2.406,5.146c-0.743,2.269-1.511,3.888-2.301,5.899
		c-0.365,0.929-0.863,2.739-1.271,3.734c-0.483,1.177-1.696,4.157-2.139,4.822c-0.887,1.327-0.565,0.941-1.381,2.343
		c-0.325,0.558-0.306,1.862,0.335,1.794c1.757-0.188,1.969-0.005,3.28-0.882c1.05-0.703,3.559-2.562,3.969-1.974
		c0.973,1.396-1.089,3.12-2.134,4.456c-0.986,1.261-2.642,2.571-2.981,2.981c-0.228,0.276-0.854,3.175,0.806,2.4l3.678-3.129
		c2.607-1.672,5.507-7.067,4.741-9.093c-0.662-1.337-0.894-1.569-0.957-2.934c-0.019-0.418,0.396-1.223,0.988-1.726
		c0.518-0.439,1.492-0.77,1.616-0.832c8.87-1.667,10.41-0.916,18.456-2.568c1.361,0,3.839-0.491,5.188-0.669
		c4.388-0.58,6.75-1.522,8.117,3.054c1.799,6.025,1.853,8.076,1.255,12.886c-0.31,2.493-0.917,5.084-1.645,7.488
		c-0.701,2.313-0.996,3.807-1.451,5.273c-0.48,1.546-0.879,3.012-1.673,5.222c-0.641,1.782-1.532,4.391-2.636,6.827
		c-1.659,3.663-3.258,8.212-8.117,8.41c-4.112-1.967-7.624-5.424-10.339-8.818c-0.377-0.471-0.634-1.763,0.141-1.883
		c2.432-0.377,8.321,1.234,10.575-0.282c2.194-1.476,2.963-3.372,4.205-6.684 M614.579,293.401c1.192,0.983,1.674,1.32,1.674,1.946
		c-0.003,3.532-0.137,8.832-0.377,11.631c-0.105,1.221,2.729-0.915,2.95-1.548c0.464-1.329,1.366-2.285,1.485-4.686
		c0.085-1.715,0.037-2.635,0.042-3.849c0.005-1.284,0.091-2.166-0.92-2.217l-1.966-0.586L614.579,293.401z M633.385,295.827
		c-1.177,0.722-0.874,1.049-2.159,2.023c-0.576,0.437-2.395,1.876-3.489,2.433c-1.023,0.52-0.915,0.149-1.412-0.533
		c-1.328-0.446-1.822-0.235-1.883,1.224c-0.083,1.982-0.22,2.134-0.188,3.593c0.028,1.322-0.091,1.521-0.016,2.903
		c0.014,0.253,0.17,2.965,0.382,3.107c1.35,0.901,3.003,0.244,4.288,0.084c4.696-0.586,2.708-3.746,0.607-3.975
		c-2.258-0.246-2.51-0.377-2.427-2.761c0.002-0.057-0.344-1.9,0.021-2.526c0.668-1.144,0.503-1.042,1.758-1.804
		c0.667-0.406,1.838-0.723,2.217-0.167c0.309,0.453,0.055,1.519,0.084,2.28c0.044,1.186-0.042,3.619,1.067,2.636
		c0.821-0.728,1.527-2.314,2.301-4.351c0.671-1.766,0.908-2.247,0.811-3.677c-0.047-0.69-0.516-0.729-0.816-0.784L633.385,295.827z
		 M377.686,307.73c-3.519,0.471-9.037-1.297-8.535,4.519c0.175,2.028,1.408,1.474,2.636,1.423c1.932-0.081,3.847-0.414,4.707,0.397
		c0.439,0.414,0.742,1.382,0.753,2.28c0.014,1.066-0.916,2.193-1.192,2.469c-0.481,0.481-1.157,0.159-1.841,0.167
		c-2.528,0.031-5.142-0.629-4.979,1.506c0.196,2.575,0.126,5.68,3.25,3.265c3.094-2.393,11.942-9.892,14.005-13.303
		c1.088-1.799,0.986-3.337,0.527-3.601c-1.199-0.591-2.803-0.293-4.811,0.126L377.686,307.73z M585.082,315.847
		c1.925-0.711,3.471,3.006,3.682,4.393c0.564,3.707-0.273,6.287-2.118,11.203c-1.099,2.926-8.708,5.322-8.927,2.813
		c-0.586-6.694,2.99-7.105,4.339-11.153c0.767-2.298,0.829-3.878,1.686-5.582L585.082,315.847z M357.75,321.621
		c-4.958,0.471-6.621-0.722-7.97,1.13c-0.658,0.903-1.072,2.156-1.036,2.95c0.053,1.157-0.159,2.692,1.381,2.855
		c3.109,0.33,4.456,0.251,8.127-0.126c1.895-0.194,2.604-0.973,2.933-2.993c0.152-0.933-0.015-1.024,0.026-2.604
		c0.008-0.291,0.157-1.123-0.323-1.182L357.75,321.621z M418.5,322.346c0.62,0,1.297-0.259,1.862,0
		c1.338,0.613,2.844,3.542,3.096,5.048c0.745,4.472,0.187,5.721,0.063,7.845c-0.137,2.345,0.025,2.836,0.188,4.163
		c0.314,2.552,1.666,3.747,1.624,5.109c-0.076,2.463,0.426,2.171-1.54,5.392c-0.669,1.097-1.962-0.132-2.427-0.837
		c-1.065-1.617-1.065-1.617-2.09-3.254c-1.402-2.239-3.809-2.989-2.805-7.749c1.003-4.758,1.016-1.615,1.004-5.23
		C417.461,328.659,416.114,325.043,418.5,322.346L418.5,322.346z M542.265,336.152c0.643-0.264,2.401,0.238,3.698,0.907
		c1.18,0.609,1.494,1.169,2.761,2.008c0.851,0.563,1.628,0.989,2.552,1.423c1.339,0.628,1.991,1.211,2.51,1.883
		c1.417,0.989,2.328,1.943,3.347,3.284c1.082,1.422,2.077,3.139,2.887,4.895c0.597,1.295,1.82,4.543,1.004,7.092
		c-0.135,0.422-1.725,1.613-2.014,1.95c-0.577-0.057-1.154-0.112-1.731-0.169c-3.042-1.438-6.924-3.286-8.493-6.173
		c-1.267-2.332-1.959-6.016-3.138-9.477 M377.833,343.649c5.511,0.924,9.001,2.371,13.158,3.535
		c4.601,1.285,6.621,2.082,6.862,5.355c0.182,2.475-0.416,3.907-2.197,6.987c-1.601,2.771-3.05,2.283-4.189,1.836
		c-0.671-0.264-1.03-0.726-1.522-1.365c-1.255-1.632-1.215-4.463-1.318-4.927c-0.628-2.824-7.082-4.885-10.672-7.066
		c-1.923-1.168-4.095-1.969-2.81-4.089c0.116-0.055,0.458-0.473,1.788-0.393L377.833,343.649z M620.331,353.293
		c-1.589-0.029-2.489-0.335-4.791,0.084c-2.345,0.426-2.992,1.214-4.811,2.845c-3.099,2.777,0.555,10.922,5.397,9.414
		c2.237-0.697,4.895-2.594,5.439-6.36c0.182-1.26,0.063-4.205,0.063-5.92L620.331,353.293z"/>
	<path id="大礼堂正面_2_" fill-rule="evenodd" clip-rule="evenodd" d="M423.207,578.973h3.628v-50.362
		c49.186,0,98.377,0,147.568,0v50.362l6.244,0.042l-0.042,6.814l-160.662-0.119l0.062-6.746L423.207,578.973z M420.529,591.875
		h160.327v13.046H420.529V591.875L420.529,591.875z M575.334,610.929v36.481h-17.384l0.063-24.674l-19.581-0.048v24.721h-28.116
		l0.002-24.694l-18.829,0.272l0.126,24.423h-29.12l-0.007-24.666l-18.695,0.369l0.126,24.297h-17.531v-36.481
		C476.032,610.929,525.684,610.929,575.334,610.929L575.334,610.929z M574.668,504.162l-73.721-24.746l-73.721,24.746H574.668
		L574.668,504.162z M485.409,539.047v39.384h29.206v-39.384H485.409L485.409,539.047z M472.036,578.432v-39.384H442.83v39.384
		H472.036L472.036,578.432z M528.993,539.047v39.384h29.206v-39.384H528.993L528.993,539.047z M427.226,510.673h147.442v10.977
		H427.226V510.673L427.226,510.673z"/>
	<circle id="左点_2_" fill-rule="evenodd" clip-rule="evenodd" cx="262.682" cy="727.425" r="10.166"/>
	<g id="southeast_2_">
		<path d="M163.321,623.826l17.287-7.496l0.642,1.584c-4.075,2.52-6.854,5.782-8.336,9.783c-1.481,4.002-1.534,7.703-0.157,11.102
			c1.064,2.627,2.608,4.423,4.631,5.385c2.025,0.964,3.951,1.077,5.779,0.335c1.159-0.469,2.08-1.157,2.761-2.062
			c0.909-1.237,1.622-2.92,2.138-5.048c0.36-1.553,0.735-4.958,1.126-10.212c0.531-7.35,1.702-12.635,3.514-15.857
			c1.824-3.196,4.46-5.493,7.911-6.891c4.377-1.773,8.835-1.593,13.371,0.542c4.536,2.135,7.868,5.829,9.995,11.083
			c0.669,1.648,1.131,3.273,1.391,4.877c0.26,1.603,0.374,3.701,0.344,6.291c-0.015,1.444,0.14,2.566,0.464,3.364
			c0.271,0.671,0.815,1.274,1.633,1.811c0.818,0.538,1.846,0.827,3.091,0.862l0.58,1.43l-19.778,8.01l-0.58-1.43
			c5.104-3.385,8.463-7.286,10.077-11.703c1.614-4.416,1.665-8.489,0.153-12.224c-1.169-2.884-2.884-4.864-5.149-5.94
			c-2.263-1.077-4.439-1.192-6.525-0.348c-1.237,0.501-2.301,1.314-3.194,2.441c-0.892,1.126-1.59,2.569-2.091,4.33
			c-0.5,1.763-0.899,4.681-1.197,8.759c-0.413,5.713-1.022,9.946-1.826,12.7c-0.802,2.754-1.995,5.102-3.576,7.047
			c-1.58,1.945-3.593,3.411-6.04,4.402c-4.172,1.691-8.347,1.597-12.523-0.279c-4.177-1.876-7.209-5.144-9.097-9.806
			c-0.688-1.698-1.149-3.43-1.385-5.194c-0.181-1.336-0.205-3.042-0.073-5.12c0.133-2.077,0.059-3.463-0.223-4.158
			c-0.272-0.67-0.69-1.114-1.259-1.334c-0.569-0.22-1.706-0.178-3.412,0.123L163.321,623.826z"/>
		<path d="M148.592,563.535c-1.826-8.82-0.455-16.47,4.115-22.948c4.571-6.477,10.993-10.414,19.266-11.81
			c7.068-1.193,13.636-0.174,19.704,3.057c8.049,4.277,12.916,11.416,14.603,21.416c1.693,10.027-0.395,18.354-6.266,24.98
			c-4.638,5.234-10.642,8.473-18.013,9.717c-8.273,1.397-15.646-0.254-22.117-4.952C153.415,578.296,149.65,571.81,148.592,563.535z
			 M151.139,562.598c0.86,5.096,4.119,8.534,9.771,10.312c4.638,1.443,10.958,1.49,18.958,0.139
			c9.507-1.604,16.252-4.461,20.236-8.571c2.785-2.864,3.823-6.393,3.116-10.585c-0.477-2.821-1.558-5.063-3.249-6.722
			c-2.159-2.115-5.278-3.518-9.353-4.212c-4.076-0.692-9.21-0.517-15.402,0.529c-7.369,1.244-12.766,2.859-16.192,4.846
			c-3.426,1.989-5.714,4.171-6.862,6.547C151.014,557.26,150.672,559.831,151.139,562.598z"/>
		<path d="M143.146,505.999l1.985-29.105l1.54,0.105l-0.1,1.455c-0.15,2.19-0.024,3.71,0.379,4.558
			c0.402,0.849,0.992,1.474,1.773,1.875c0.781,0.402,2.778,0.712,5.993,0.931l27.608,1.883c5.045,0.344,8.411,0.192,10.098-0.46
			c1.689-0.65,3.131-1.812,4.331-3.485c1.2-1.672,1.891-3.839,2.072-6.5c0.209-3.049-0.3-5.695-1.526-7.937
			c-1.226-2.241-3.008-3.978-5.347-5.21c-2.339-1.232-6.501-2.052-12.489-2.46l-22.992-1.568c-2.522-0.172-4.342-0.031-5.459,0.422
			c-1.117,0.453-1.91,1.067-2.381,1.843c-0.723,1.204-1.162,2.943-1.317,5.215l-1.54-0.105l1.332-19.501l1.538,0.105l-0.078,1.164
			c-0.109,1.58,0.121,2.919,0.686,4.016c0.566,1.097,1.47,1.925,2.712,2.482c0.863,0.421,2.445,0.71,4.745,0.867l21.412,1.461
			c6.625,0.452,11.377,1.214,14.255,2.288c2.879,1.074,5.436,3.386,7.673,6.935c2.236,3.551,3.155,8.25,2.755,14.098
			c-0.332,4.879-1.241,8.604-2.725,11.176c-2.022,3.512-4.47,5.919-7.344,7.227c-2.874,1.308-6.653,1.802-11.339,1.483
			l-27.608-1.884c-3.243-0.221-5.272-0.177-6.086,0.128c-0.814,0.306-1.488,0.887-2.019,1.742c-0.532,0.856-0.865,2.476-1,4.861
			L143.146,505.999z"/>
		<path d="M166.839,373.393l14.648,4.396l-0.43,1.437c-3.636-0.162-6.347,0.053-8.136,0.648c-1.788,0.594-3.394,1.665-4.815,3.211
			c-0.783,0.868-1.553,2.566-2.311,5.094l-1.21,4.031l41.752,12.532c2.768,0.831,4.544,1.197,5.328,1.098
			c0.784-0.098,1.569-0.515,2.355-1.251c0.786-0.735,1.411-1.875,1.874-3.419l0.54-1.796l1.477,0.443l-8.507,28.341l-1.477-0.443
			l0.539-1.796c0.472-1.569,0.571-2.918,0.3-4.044c-0.165-0.804-0.639-1.541-1.426-2.212c-0.55-0.484-2.183-1.134-4.897-1.948
			l-41.753-12.532l-1.173,3.912c-1.094,3.646-1.117,6.525-0.07,8.638c1.46,2.962,4.094,5.349,7.903,7.159l-0.455,1.517
			l-14.649-4.397L166.839,373.393z"/>
		<path d="M213.171,344.193l15.151,8.765c2.502,1.447,4.145,2.213,4.929,2.298c0.785,0.086,1.645-0.139,2.581-0.674
			c0.935-0.533,1.799-1.487,2.592-2.857l0.939-1.623l1.335,0.772l-14.796,25.577l-1.335-0.772l0.939-1.623
			c0.82-1.418,1.23-2.707,1.225-3.866c0.025-0.82-0.274-1.634-0.896-2.444c-0.425-0.599-1.863-1.608-4.316-3.027l-32.179-18.615
			c-2.502-1.447-4.141-2.219-4.919-2.316c-0.779-0.097-1.636,0.122-2.571,0.656c-0.935,0.535-1.798,1.487-2.592,2.858l-0.939,1.623
			l-1.335-0.772l14.796-25.577l1.336,0.773l-0.94,1.623c-0.82,1.419-1.228,2.707-1.225,3.866c-0.025,0.821,0.269,1.647,0.876,2.481
			c0.425,0.599,1.863,1.607,4.317,3.026l13.853,8.013l9.995-17.28l-13.852-8.014c-2.502-1.446-4.141-2.218-4.92-2.316
			c-0.779-0.097-1.639,0.128-2.58,0.674c-0.942,0.547-1.81,1.505-2.603,2.876l-0.919,1.587l-1.334-0.772l14.775-25.54l1.335,0.772
			l-0.919,1.588c-0.834,1.443-1.242,2.732-1.225,3.866c-0.025,0.821,0.268,1.647,0.876,2.481c0.425,0.599,1.863,1.607,4.316,3.026
			l32.178,18.614c2.503,1.447,4.142,2.22,4.92,2.316c0.779,0.098,1.639-0.127,2.581-0.674c0.941-0.546,1.809-1.505,2.602-2.876
			l0.92-1.587l1.335,0.772l-14.776,25.541l-1.336-0.772l0.919-1.588c0.834-1.442,1.243-2.731,1.225-3.865
			c0.025-0.82-0.266-1.647-0.876-2.48c-0.425-0.599-1.863-1.608-4.316-3.027l-15.151-8.765L213.171,344.193z"/>
		<path d="M241.482,259.978l16.714,15.807l0.774-0.818c2.462-2.604,3.43-5.264,2.903-7.982c-0.529-2.717-2.235-5.745-5.119-9.085
			l1.088-1.151l21.499,20.332l-1.088,1.15c-2.57-1.972-4.971-3.275-7.199-3.912c-2.23-0.635-4.088-0.682-5.577-0.139
			c-1.488,0.543-3.159,1.794-5.01,3.751l11.566,10.939c2.262,2.138,3.735,3.351,4.422,3.636c0.685,0.286,1.439,0.319,2.258,0.099
			c0.818-0.219,1.782-0.914,2.889-2.085l2.32-2.453c3.627-3.835,5.645-7.748,6.054-11.74c0.409-3.991-0.725-8.21-3.404-12.655
			l1.06-1.121l11.302,14.189l-33.561,35.488l-1.12-1.06l1.288-1.363c1.127-1.19,1.822-2.35,2.085-3.478
			c0.214-0.792,0.112-1.654-0.308-2.586c-0.275-0.68-1.44-1.994-3.5-3.941l-27.01-25.544c-1.857-1.756-3.046-2.784-3.564-3.084
			c-0.898-0.466-1.796-0.608-2.696-0.426c-1.29,0.233-2.566,1.015-3.825,2.348l-1.289,1.363l-1.12-1.06l32.502-34.367l12.143,11.482
			l-1.089,1.15c-3.52-2.22-6.428-3.411-8.722-3.574c-2.294-0.162-4.661,0.44-7.099,1.804c-1.433,0.787-3.619,2.735-6.558,5.843
			L241.482,259.978z"/>
		<path d="M330.944,232.876l-16.637,11.032l1.06,5.897c0.366,1.958,0.879,3.436,1.539,4.431c0.876,1.32,2.052,1.939,3.533,1.858
			c0.871-0.044,2.595-0.786,5.171-2.229l0.852,1.285l-15.664,10.388l-0.852-1.285c1.522-1.375,2.447-2.997,2.774-4.865
			c0.328-1.868,0.102-5.126-0.681-9.774l-8.075-48.752l0.66-0.438l42.596,27.361c4.047,2.584,6.906,4.005,8.577,4.263
			c1.263,0.196,2.652-0.124,4.164-0.961l0.853,1.285l-22.785,15.109l-0.852-1.285l0.937-0.622c1.829-1.213,2.946-2.32,3.349-3.321
			c0.263-0.708,0.165-1.41-0.295-2.104c-0.277-0.417-0.63-0.799-1.061-1.147c-0.184-0.177-1.107-0.815-2.769-1.914L330.944,232.876z
			 M328.058,231.088l-17.771-11.568l3.532,21.011L328.058,231.088z"/>
		<path d="M386.816,159.809l7.228,17.402l-1.593,0.617c-2.457-4.113-5.675-6.942-9.653-8.486c-3.979-1.543-7.678-1.653-11.098-0.329
			c-2.644,1.023-4.463,2.54-5.457,4.548c-0.994,2.009-1.137,3.933-0.424,5.773c0.45,1.166,1.124,2.098,2.019,2.793
			c1.223,0.927,2.894,1.666,5.014,2.215c1.547,0.383,4.946,0.811,10.193,1.282c7.341,0.645,12.608,1.898,15.8,3.76
			c3.168,1.873,5.425,4.545,6.768,8.016c1.705,4.405,1.455,8.859-0.749,13.362c-2.204,4.503-5.949,7.777-11.235,9.824
			c-1.659,0.642-3.291,1.08-4.898,1.315c-1.608,0.234-3.707,0.317-6.295,0.247c-1.444-0.036-2.569,0.101-3.371,0.412
			c-0.674,0.26-1.286,0.795-1.837,1.604c-0.551,0.81-0.854,1.835-0.909,3.078l-1.439,0.557l-7.702-19.9l1.438-0.556
			c3.307,5.155,7.154,8.574,11.545,10.256c4.39,1.683,8.464,1.796,12.22,0.342c2.903-1.123,4.909-2.809,6.021-5.056
			c1.11-2.247,1.26-4.421,0.447-6.52c-0.481-1.243-1.278-2.321-2.39-3.231c-1.112-0.91-2.546-1.63-4.299-2.158
			c-1.752-0.527-4.666-0.971-8.737-1.332c-5.707-0.502-9.931-1.176-12.671-2.022c-2.74-0.845-5.07-2.074-6.99-3.685
			c-1.919-1.61-3.356-3.646-4.309-6.108c-1.624-4.197-1.467-8.369,0.473-12.517c1.941-4.147,5.255-7.128,9.945-8.944
			c1.71-0.661,3.448-1.096,5.215-1.304c1.339-0.16,3.046-0.158,5.12,0.007c2.076,0.165,3.463,0.112,4.163-0.158
			c0.673-0.261,1.125-0.673,1.352-1.239c0.228-0.564,0.205-1.702-0.071-3.413L386.816,159.809z"/>
		<path d="M467.815,143.796l2.415,15.103l-1.482,0.237c-1.436-3.344-2.809-5.692-4.122-7.044c-1.314-1.352-2.976-2.331-4.986-2.938
			c-1.122-0.327-2.986-0.282-5.591,0.135l-4.157,0.664l6.884,43.045c0.457,2.854,0.899,4.612,1.329,5.275s1.147,1.188,2.151,1.576
			c1.004,0.388,2.302,0.454,3.894,0.201l1.851-0.297l0.243,1.523l-29.217,4.672l-0.244-1.522l1.852-0.296
			c1.618-0.258,2.875-0.755,3.77-1.489c0.652-0.498,1.11-1.247,1.372-2.245c0.195-0.707,0.071-2.46-0.378-5.258l-6.884-43.045
			l-4.032,0.645c-3.76,0.601-6.362,1.834-7.808,3.696c-2.032,2.604-3.034,6.014-3.007,10.231l-1.563,0.25l-2.415-15.103
			L467.815,143.796z"/>
	</g>
	<text transform="matrix(0.9759 0 0 1 654.4135 607.1395)" font-family="'AdobeHeitiStd-Regular-GBpc-EUC-H'" font-size="49.3125">南京</text>
	<g id="university_2_">
		<path d="M530.259,144.359l28.726,5.082l-0.268,1.517l-1.437-0.253c-2.161-0.382-3.685-0.42-4.572-0.111
			c-0.888,0.308-1.573,0.829-2.055,1.562c-0.482,0.732-1.004,2.686-1.565,5.86l-4.82,27.25c-0.882,4.98-1.089,8.341-0.622,10.088
			c0.467,1.748,1.468,3.307,3.004,4.68c1.534,1.371,3.615,2.289,6.242,2.753c3.009,0.533,5.693,0.309,8.054-0.669
			c2.359-0.98,4.277-2.567,5.752-4.76c1.474-2.194,2.734-6.246,3.779-12.155l4.015-22.694c0.439-2.49,0.494-4.314,0.165-5.473
			c-0.333-1.159-0.859-2.014-1.579-2.564c-1.121-0.847-2.803-1.47-5.045-1.866l0.268-1.519l19.247,3.405l-0.269,1.519l-1.149-0.204
			c-1.559-0.276-2.914-0.19-4.065,0.254c-1.152,0.447-2.07,1.257-2.758,2.433c-0.511,0.813-0.966,2.354-1.369,4.624l-3.738,21.135
			c-1.157,6.54-2.422,11.182-3.797,13.93c-1.375,2.748-3.947,5.044-7.715,6.888c-3.767,1.845-8.539,2.256-14.311,1.236
			c-4.816-0.852-8.423-2.153-10.822-3.904c-3.275-2.384-5.409-5.075-6.401-8.073c-0.993-2.997-1.081-6.809-0.264-11.432l4.82-27.249
			c0.568-3.201,0.74-5.223,0.524-6.065c-0.218-0.843-0.724-1.574-1.516-2.194c-0.794-0.62-2.369-1.124-4.727-1.513L530.259,144.359z
			"/>
		<path d="M626.425,168.194l12.225,43.085l9.362-22.422c1.306-3.127,1.74-5.43,1.302-6.906c-0.608-2.001-2.373-3.581-5.291-4.74
			l0.594-1.423l17.229,7.194l-0.594,1.423c-2.323-0.638-3.957-0.891-4.9-0.758c-0.943,0.132-1.839,0.617-2.684,1.453
			c-0.846,0.836-1.783,2.484-2.81,4.946l-18.128,43.419l-1.308-0.546l-17.136-58.144l-13.842,33.151
			c-1.253,3.001-1.412,5.312-0.48,6.936c0.934,1.625,2.284,2.806,4.054,3.544l1.23,0.514l-0.594,1.423l-18.498-7.723l0.595-1.424
			c2.881,1.174,5.128,1.419,6.738,0.736c1.61-0.682,2.993-2.409,4.148-5.178l15.368-36.804l-0.537-1.85
			c-0.525-1.845-1.119-3.162-1.783-3.951c-0.665-0.789-1.781-1.541-3.348-2.256l0.593-1.423L626.425,168.194z"/>
		<path d="M674.429,255.627l-0.832,1.299l-24.889-15.926l0.831-1.298l1.58,1.01c1.381,0.884,2.651,1.349,3.807,1.397
			c0.819,0.061,1.645-0.201,2.483-0.787c0.617-0.397,1.689-1.789,3.215-4.176l20.038-31.313c1.556-2.433,2.401-4.037,2.532-4.811
			c0.132-0.772-0.047-1.639-0.539-2.597c-0.492-0.958-1.404-1.864-2.739-2.717l-1.58-1.011l0.832-1.3l24.888,15.926l-0.831,1.298
			l-1.58-1.011c-1.381-0.883-2.65-1.348-3.807-1.396c-0.818-0.062-1.657,0.193-2.516,0.764c-0.618,0.397-1.69,1.79-3.216,4.176
			l-20.037,31.314c-1.558,2.434-2.397,4.041-2.517,4.822c-0.12,0.781,0.067,1.649,0.558,2.608c0.492,0.958,1.405,1.864,2.74,2.716
			L674.429,255.627z"/>
		<path d="M764.27,260.801l-1.047,1.132c-1.736-1.152-3.828-1.59-6.274-1.317c-1.8,0.228-5.291,1.446-10.474,3.655l-43.601,18.492
			l-1.01-0.934l16.268-46.144c1.963-5.563,2.975-8.959,3.036-10.191c0.059-1.231-0.632-2.684-2.074-4.356l1.046-1.133l19.893,18.39
			l-1.047,1.132l-0.673-0.622c-1.797-1.66-3.228-2.567-4.295-2.722c-0.753-0.128-1.402,0.103-1.949,0.696
			c-0.338,0.367-0.659,0.875-0.957,1.526c-0.299,0.652-0.988,2.502-2.067,5.553l-10.253,28.832l25.203-10.81
			c3.036-1.318,5.014-2.251,5.937-2.8c0.922-0.547,1.629-1.086,2.119-1.617c0.566-0.612,0.902-1.304,1.011-2.074
			c0.106-0.771-0.043-1.571-0.449-2.401c-0.557-1.158-1.559-2.406-3.008-3.746l1.046-1.132L764.27,260.801z"/>
		<path d="M787.412,296.308l-18.863,13.167l0.644,0.923c2.051,2.939,4.461,4.424,7.228,4.458c2.769,0.033,6.079-1.024,9.933-3.173
			l0.906,1.298l-24.262,16.937l-0.906-1.298c2.451-2.118,4.213-4.204,5.287-6.258c1.073-2.053,1.495-3.865,1.265-5.433
			c-0.229-1.567-1.116-3.456-2.659-5.666l-13.054,9.112c-2.552,1.782-4.037,2.98-4.454,3.593c-0.42,0.613-0.605,1.345-0.555,2.192
			c0.048,0.847,0.534,1.93,1.457,3.253l1.932,2.767c3.02,4.328,6.445,7.098,10.271,8.306c3.826,1.209,8.186,0.952,13.083-0.771
			l0.883,1.264l-16.184,8.197l-27.958-40.051l1.264-0.882l1.073,1.537c0.938,1.344,1.934,2.259,2.985,2.747
			c0.732,0.369,1.596,0.442,2.594,0.221c0.723-0.131,2.245-1.008,4.569-2.63l30.483-21.278c2.095-1.464,3.343-2.419,3.742-2.867
			c0.637-0.784,0.959-1.634,0.963-2.552c0.033-1.31-0.475-2.718-1.525-4.221l-1.074-1.537l1.265-0.883l27.076,38.787l-13.705,9.565
			l-0.906-1.298c2.887-2.999,4.644-5.605,5.266-7.819c0.624-2.214,0.514-4.653-0.329-7.317c-0.482-1.563-1.946-4.098-4.395-7.607
			L787.412,296.308z"/>
		<path d="M798.707,370.759l-14.624,6.081c-2.822,1.174-4.526,2.086-5.113,2.736c-0.587,0.65-0.919,1.502-0.991,2.556
			c-0.074,1.053,0.386,2.773,1.379,5.159l-1.424,0.592l-11.106-26.705l1.424-0.593c1.002,2.412,1.907,3.955,2.714,4.626
			c0.806,0.674,1.64,1.034,2.503,1.081c0.861,0.048,2.704-0.514,5.527-1.688l33.863-14.083c2.821-1.173,4.526-2.085,5.114-2.736
			c0.586-0.649,0.916-1.501,0.99-2.556c0.073-1.054-0.386-2.773-1.379-5.159l1.424-0.592l10.083,24.242
			c2.624,6.312,4.108,11.11,4.452,14.397c0.343,3.288-0.274,6.343-1.853,9.166c-1.579,2.823-3.946,4.891-7.102,6.204
			c-3.848,1.599-7.606,1.538-11.271-0.188c-2.328-1.108-4.55-3.089-6.668-5.938l-12.446,19.89c-1.6,2.591-2.539,4.351-2.814,5.278
			c-0.359,1.383-0.288,2.783,0.212,4.199l-1.424,0.593l-6.833-16.431l16.788-26.706L798.707,370.759z M824.296,360.117
			l-22.857,9.505l0.912,2.194c1.483,3.565,2.918,6.097,4.31,7.595c1.389,1.498,3.149,2.4,5.277,2.704
			c2.126,0.303,4.562-0.115,7.307-1.257c3.977-1.653,6.527-3.805,7.653-6.454c1.124-2.65,0.829-6.04-0.888-10.17L824.296,360.117z"
			/>
		<path d="M855.448,451.218l-18.402,4.049l-0.327-1.677c4.482-1.694,7.834-4.362,10.054-8.007c2.22-3.645,2.979-7.267,2.279-10.868
			c-0.541-2.781-1.714-4.838-3.516-6.172c-1.802-1.333-3.672-1.811-5.608-1.435c-1.228,0.238-2.261,0.737-3.105,1.496
			c-1.129,1.04-2.15,2.555-3.064,4.546c-0.65,1.456-1.67,4.726-3.059,9.808c-1.928,7.111-4.089,12.075-6.486,14.891
			c-2.401,2.788-5.429,4.538-9.082,5.249c-4.636,0.903-8.977-0.127-13.02-3.091c-4.044-2.964-6.607-7.226-7.691-12.79
			c-0.34-1.745-0.483-3.43-0.431-5.054c0.052-1.622,0.34-3.703,0.866-6.24c0.29-1.415,0.353-2.546,0.189-3.391
			c-0.138-0.709-0.556-1.405-1.256-2.09c-0.7-0.685-1.655-1.163-2.869-1.438l-0.294-1.515l20.944-4.076l0.295,1.514
			c-5.657,2.347-9.701,5.532-12.129,9.557c-2.43,4.025-3.26,8.014-2.49,11.968c0.594,3.055,1.899,5.328,3.916,6.818
			c2.017,1.489,4.13,2.019,6.339,1.589c1.31-0.255,2.51-0.849,3.603-1.784c1.092-0.935,2.051-2.218,2.881-3.85
			c0.828-1.634,1.777-4.423,2.85-8.367c1.499-5.529,2.907-9.568,4.222-12.115c1.316-2.549,2.935-4.626,4.86-6.233
			c1.922-1.605,4.179-2.66,6.771-3.165c4.418-0.86,8.497,0.031,12.237,2.671c3.742,2.64,6.092,6.429,7.052,11.365
			c0.351,1.799,0.472,3.588,0.365,5.363c-0.077,1.346-0.38,3.026-0.908,5.038c-0.529,2.014-0.722,3.388-0.578,4.125
			c0.138,0.709,0.465,1.225,0.981,1.55c0.517,0.324,1.641,0.501,3.374,0.531L855.448,451.218z"/>
		<path d="M802.924,507.556l-1.542,0.051l-0.987-29.531l1.541-0.052l0.063,1.875c0.054,1.638,0.391,2.947,1.007,3.927
			c0.412,0.709,1.097,1.241,2.055,1.599c0.677,0.282,2.43,0.378,5.263,0.282l37.154-1.244c2.888-0.097,4.687-0.31,5.399-0.638
			c0.712-0.331,1.324-0.969,1.834-1.918c0.51-0.949,0.738-2.213,0.685-3.796l-0.062-1.875l1.541-0.052l0.988,29.531l-1.542,0.052
			l-0.062-1.874c-0.056-1.639-0.39-2.948-1.008-3.927c-0.414-0.71-1.098-1.256-2.056-1.642c-0.676-0.284-2.431-0.378-5.263-0.282
			l-37.155,1.243c-2.888,0.097-4.687,0.316-5.397,0.66c-0.712,0.343-1.324,0.989-1.834,1.939c-0.51,0.947-0.739,2.213-0.685,3.796
			L802.924,507.556z"/>
		<path d="M850.408,577.617l-15.139-2.177l0.214-1.485c3.618-0.378,6.269-0.993,7.949-1.846c1.681-0.853,3.11-2.149,4.286-3.888
			c0.644-0.976,1.156-2.768,1.531-5.381l0.599-4.166l-43.148-6.205c-2.86-0.411-4.671-0.511-5.432-0.296
			c-0.761,0.214-1.475,0.742-2.144,1.587c-0.669,0.843-1.118,2.063-1.347,3.66l-0.267,1.855l-1.526-0.22l4.211-29.289l1.526,0.22
			l-0.267,1.856c-0.232,1.623-0.131,2.971,0.304,4.044c0.281,0.77,0.86,1.429,1.736,1.975c0.618,0.397,2.328,0.798,5.132,1.201
			l43.149,6.204l0.581-4.043c0.541-3.767,0.137-6.618-1.213-8.552c-1.884-2.713-4.841-4.682-8.876-5.908l0.227-1.568l15.139,2.176
			L850.408,577.617z"/>
		<path d="M823.822,655.454l-1.44-0.551c0.431-1.828,0.436-3.358,0.016-4.589c-0.592-1.716-2.779-4.902-6.558-9.562l-14.729-18.759
			l-12.766-4.887c-2.724-1.044-4.472-1.549-5.243-1.517c-0.771,0.031-1.572,0.373-2.4,1.023c-0.83,0.649-1.512,1.675-2.049,3.075
			l-1.132,2.958l-1.44-0.551l11.34-29.618l1.44,0.552l-1.057,2.763c-0.596,1.556-0.796,2.892-0.598,4.01
			c0.104,0.814,0.524,1.584,1.257,2.31c0.514,0.524,2.093,1.293,4.74,2.306l10.587,4.053l27.366-3.757
			c5.406-0.758,8.699-1.49,9.878-2.199c1.179-0.709,2.104-1.901,2.777-3.578l1.44,0.552l-9.686,25.298l-1.44-0.552l0.431-1.128
			c0.586-1.532,0.776-2.687,0.569-3.464c-0.209-0.779-0.559-1.263-1.051-1.451c-0.934-0.358-3.68-0.22-8.237,0.417l-21.126,2.844
			l12.282,15.593c2.988,3.851,5.118,6.019,6.39,6.506c0.701,0.269,1.413,0.154,2.139-0.341c0.987-0.634,1.997-2.107,3.03-4.418
			l1.44,0.551L823.822,655.454z"/>
	</g>
	<circle id="右点_2_" fill-rule="evenodd" clip-rule="evenodd" cx="737.471" cy="727.425" r="10.166"/>
</g>
</svg>
