<?xml version="1.0" encoding="utf-8"?>
<!-- Generator: Adobe Illustrator 17.0.0, SVG Export Plug-In . SVG Version: 6.00 Build 0)  -->
<!DOCTYPE svg PUBLIC "-//W3C//DTD SVG 1.1//EN" "http://www.w3.org/Graphics/SVG/1.1/DTD/svg11.dtd">
<svg version="1.1" id="图层_1" xmlns="http://www.w3.org/2000/svg" xmlns:xlink="http://www.w3.org/1999/xlink" x="0px" y="0px"
	 width="1000px" height="500px" viewBox="0 0 1000 500" enable-background="new 0 0 1000 500" xml:space="preserve">
<g>
	<path id="东南大学_7_" fill-rule="evenodd" clip-rule="evenodd" d="M780.49,211.559c-0.149-1.462-0.18-1.943-0.283-5.939
		c-0.068-2.653-0.015-4.269-0.361-6.771c-1.01-7.302-0.489-5.12-2.097-10.634c-0.213-0.732-1.118-6.242-1.196-7.001
		c-0.251-2.451,0.85-4.312,1.822-4.839c1.508-0.817,3.539,1.379,4.427,2.534c2.545,3.309,3.672,6.39,4.018,8.378
		c0.256,1.467,1.06,8.358,1.068,8.484c0.248,3.528,0.653,7.209,1.005,10.495c0.377,3.519-0.691,4.022,1.065,6.057
		c0.864,1.001,2.056,0.548,2.414,0.548c2.315-0.517,2.717-3.522,2.396-6.118c-0.917-7.42-2.121-8.581-2.922-13.118
		c-0.566-3.205-0.475-3.62-0.707-5.216c-0.181-1.249-0.57-3.09-0.864-9.175c-0.188-3.896-0.047-4.003,0.676-7.18
		c0.57-2.507,1.561-4.02,2.653-4.449c2.956-1.16,4.827-0.709,4.983,0.584c0.867,7.215,0.985,7.904,1.115,12.796
		c0.133,5.006,0.642,6.025,0.77,8.932c0.133,3.004,1.006,7.401,1.178,11.783c0.2,5.09,1.205,11.567,4.86,6.7
		c1.315-1.751,0.185-3.845,0.466-6.134c0.325-2.645-0.097-3.176,0.236-6.08c0.564-4.931-0.189-6.316,0.189-13.008
		c0.117-2.08,1.859-3.22,1.791-3.692c-0.126-0.88-0.112-0.631-1.383-3.959c-1.32-3.456,0.817-17.706,1.005-24.21
		c0.068-2.357-0.435-7.122,1.65-9.474c1.235-1.392,3.299-0.579,5.341,0.453l1.257,1.055c0.141,1.98-3.582,6.174,6.127,1.65
		c1.977-0.921,5.797-3.252,8.719-2.027c2.419,1.014,0.754,6.041,0.754,6.127c-0.088,0.673-6.256,2.676-8.534,4.076
		c-4.803,2.953-11.55,0.836-11.026,13.315c-0.056,1.256-0.047,3.912-0.141,6.504c-0.069,1.901,3.12-1.415,5.043-1.414
		c0.956,0.001,2.742,1.732,2.899,1.838c0.679,0.461,1.98,1.791,1.532,1.296c0.617,0.682,1.029,1.229,1.084,1.626
		c0.259,1.885,0.306,6.18,2.922,5.208c3.642-1.353,1.911-0.695,4.336-1.791c1.161-0.525,3.959,0.047,5.892-0.33
		c2.509-0.49,3.211-4.792,3.346-7.023c0.251-4.148-0.066-5.241-1.602-6.504c-2.155-1.772-5.434-1.225-9.662,0
		c-5.043,1.461-6.592,6.033-9.214,5.844c-0.201-0.014-2.055-0.416-2.262-0.448c-0.092-0.757,0.047-0.966,0.57-2.085
		c2.977-6.368,22.14-17.884,28.958-8.614c3.724,5.062,2.4,10.135,1.414,14.737c-0.943,4.399-2.371,7.718-3.205,10.997
		c-0.732,2.878-0.466,3.078-1.005,6.221c-0.51,2.97-0.431,2.132-0.942,4.675c-0.361,1.795-1.813,6.285-0.503,6.849
		c2.966,1.205,7.704-0.019,10.275-0.613c4.695-1.086,13.294,1.422,15.239,3.535c2.314,2.514-3.409,8.691-5.404,9.803
		c-2.068,0.422-8.236,5.864-10.306,6.284c-4.408,2.529-4.264,2.248-8.672,4.776c-4.8,1.805-11.406-1.822-7.918,1.995
		c1.945,2.129,1.093,4.405-0.384,8.116c-1.483,0.555-4.587,2.457-6.151,3.274c-1.687,2.155-1.739,2.039-2.262,3.142
		c-1.773,3.734-6.569,9.235-2.769,9.121c9.388-0.282,7.419,8.978,7.419,8.978s3.377-0.908,7.415-0.44
		c3.838,0.445,7.097-0.388,9.175,0.126c4.324,1.071,8.201,6.001,9.898,9.442c0.646,1.309,0.179,2.595-1.084,3.016
		c-1.414,0.471-2.985,1.225-4.163,0.424c-2.659-1.808-3.101-3.435-5.404-3.833c-5.342-0.924-15.695-1.068-15.695-1.068
		s-0.569,6.033-0.66,6.316c-0.916,2.839-4.202,7.818-5.562,9.756c-2.545,3.629-8.416,6.407-11.359,7.117
		c-13.668,3.299-19.299-6.497-16.936-20.675c0.817-4.902,4.565-7.872,9.175-9.112c3.895-1.047,11.096-0.179,10.872-3.833
		c-0.189-3.079-0.742-1.39-2.451-3.394c-4.21-4.936-0.684-6.672,1.885-9.316c1.626-1.673,1.591-2.117,2.357-3.346
		c0.567-0.911,1.321-2.755,1.461-3.676c0.212-1.39-1.885-0.801-4.006-0.542c-5.17,0.632-5.538,2.639-9.332,1.548
		c-1.625-0.468-2.939-1.641-2.168-2.796c1.634-2.451,1.423-2.717,3.236-3.582c2.283-1.089,2.985-1.508,5.954-3.158
		c4.258-2.366,5.737-3.161,8.107-3.346c1.727,0.639,4.084,1.436,6.433,1.013c4.385-0.79,4.12-1.231,8.083-4.312
		c3.296-2.563,8.243-6.357,10.181-8.363c0.392-0.406,2.32-1.611,4.542-4.057c0.466-0.513,0.552-0.857,0.524-1.885
		c-0.012-0.449,0.093-0.801-0.165-1.367c-0.258-0.566-1.338-0.705-2.852-0.165c-0.99,0.353-1.555,0.542-2.564,1.049
		c-0.171,0.086-2.719,1.422-2.888,1.51c-1.173,0.611-1.688,0.647-2.82,1.211c-2.761,1.376-2.138,1.17-5.314,1.74
		c-0.627,0.113-2.539,1.002-4.604,1.687c-1.733,0.575-2.572,2.452-3.514,0.391c-0.377-0.825-0.707-1.602-0.495-2.71
		c0.215-1.122,0.448-0.919,0.573-2.122c0.038-0.367-0.051-1.063-0.408-1.154c-0.596-0.153,0.542,0.173-1.343-0.33
		c-1.326-0.354-3.488,1.128-3.246,0.962c1.812-1.24-0.879,0.895-3.046,1.135c-1.148,0.127-1.789,1.204-2.734,2.097
		c-1.464,1.384-2.592,2.027-4.053,2.239c-2.185,0.317-2.262-1.131-4.713-1.791c-2.411-0.649-4.961,0.695-6.583,2.168
		c-0.967,0.877-0.628,0.754-2.891,1.571c-0.677,0.245-2.451,0.566-5.165-0.391c-1.755-0.619-0.557-1.022-4.139-1.022
		c-1.943,0-2.503,0.724-5.527-0.347c-1.188-0.421-2.133-1.406-2.601-2.428 M427.83,148.426c4.607-0.08,8.719,2.835,9.995,5.985
		c1.414,3.488,0.943,4.747,0.943,7.07c0,2.592-0.15,5.265-0.283,6.41c-0.22,1.893-0.278,2.592,0,5.326
		c0.202,1.989,2.898,2.357,4.619,3.943s2.096,4.743,1.194,7.101c-0.836,1.461-2.21,2.362-3.582,2.891
		c-1.979,0.763-3.845,1.152-3.186,4.695c0.488,0.375,0.98,0.748,1.47,1.122c3.651,0.907,7.475-0.426,10.263-0.978
		c6.033-1.194,9.626-1.732,15.013-2.105c2.524-0.484,6.179-0.845,9.118-1.1c3.18,1.69,7.416,9.218,4.965,14.768
		c-3.782,8.428-18.082,13.754-24.194,20.738c-1.927,2.201-3.914,3.878-5.467,5.782c-2.356,2.886-4.648,4.302-7.64,6.596
		c-2.195,1.68-4.457,2.638-6.154,4.841c-1.273,0.84-1.546,1.889-3.08,3.585c-1.76,1.947-1.629,13.723-1.539,17.09
		c0.126,4.713-0.189,9.442,0.141,13.401c0.069,0.825,0.849,2.314,1.508,4.572c0.215,0.736,0.395,3.602,0.377,4.619
		c0,0,0.487,3.488-0.267,5.75c-0.622,1.865-3.746,2.842-5.216,4.148c-1.077-0.092-3.008-0.223-4.085-0.314
		c-2.693-1.232-5.46-3.813-7.667-5.467c-3.807-2.851-7.451-2.23-8.17-7.415c-0.299-2.158-0.015-1.507,0.596-2.352
		c0.127-0.175,2.761,0.068,2.957-0.023c3.398,0.041,5.742,0.323,8.822,0.159c3.52-0.188,2.645-3.125,3.022-6.016
		c0.302-2.318,0-3.016-0.126-6.598c-0.081-2.297,0.166-4.488-1.401-6.169c-0.099,0-0.195,0-0.296,0
		c-7.387,5.368-22.25,20.101-34.974,17.928c-0.099-0.934-0.196-1.866-0.296-2.802c5.647-2.838,9.661-6.974,14.109-10.923
		c9.535-8.466,11.585-10.248,20.78-20.825c0.115-0.132,0.162-0.722,0.13-1.969c-0.015-0.577,0.166-2.309-0.063-2.388
		c-1.228-0.427-0.95-0.207-1.885-0.157c-2.461,0.132-1.387,0.112-4.87,0.408c-6.901,0.588-16.121,4.621-19.387,0.126
		c-1.671-2.301-1.331-5.493-1.822-8.295c-1.059-2.048-1.847-5.617-3.456-7.73c-1.332-1.749-5.093-4.477-5.884-6.233
		c-0.887-1.964,0.912-3.165,1.469-3.921c6.464-1.874,9.23,1.458,13.575,3.445c1.852,0.847,4.715,0.021,6.881-0.094
		c3.535-0.189,6.36-0.4,8.279-0.763c6.101-1.154,9.185-1.98,9.065-5.364c-0.028-0.791,0.13-0.42,0.094-2.592
		c-0.01-0.635-0.031-1.453-0.236-1.791c-0.107-0.177-1.482-0.379-2.074-0.141c-2.975,1.192-4.036,1.511-6.551,1.697
		c-7.023,0.518-12.228,1.271-16.826-2.734c-1.461-1.273-0.759-3.588-0.66-4.336c0.195-0.28,2.965-0.543,3.299-0.613
		c9.011-1.874,6.399-1.114,11.123-2.074c2.014-0.409,11.89,0.215,11.814-3.519c-0.046-2.259,0.505-5.133-0.64-6.074
		c-2.506-2.061-3-0.374-6.225-0.293c-4.32,0.108-9.052,0.134-13.579-5.287c0.001-2.058,0.368-2.276,1.177-3.363
		c5.909-0.893,11.44-1.224,14.899-1.73c2.613-0.383,4.416-0.512,4.525-2.451c0.259-4.618,0.113-8.769,0.189-10.84
		c0.11-3.007-0.006-2.315-4.619-8.861c-0.323-0.458-0.299-3.009-0.299-3.569c0.431-0.574,1.25-1.783,1.902-2.181
		C422.207,148.636,425.384,149.965,427.83,148.426L427.83,148.426z M672.778,179.108c0.016-0.557,0.126-11.04,0.251-11.437
		c0.36-1.141,0.361-2.31,0.793-2.749l0.465-0.523c3.554-1.714,5.115-0.201,6.063,1.513c0.905,2.54,0.662,11.417,0.597,13.448
		c-0.204,6.409-0.127,6.727-0.251,11.437c-0.077,2.921,0.498,10.093,0.566,12.443c0.07,2.427,0.245,4.286,0.503,5.342
		c0.321,1.314,0.774,2.558,2.891,2.954c4.713,0.88,7.835,0.031,15.648-3.205c6.221-2.577,8.5-2.543,12.254-5.656
		c2.577-2.137,2.7-5.02,4.231-5.231c2.619-0.362,3.262,0.958,4.127,0.958c1.472,1.914,5.221,11.274,4.21,13.951
		c-0.652,1.414-0.652,1.414-3.163,2.018c-6.16,1.482-8.999,1.76-14.621,3.637c-2.311,0.772-3.833,1.112-6.221,2.074
		c-3.639,1.466-4.058,1.886-8.284,3.007c-6.823,1.81-15.937,2.335-16.036,9.184c-0.098,6.727,0.189,5.279-0.817,10.935
		c-0.462,2.601-1.082,5.763-2.128,8.786c-0.928,2.683-1.065,4.857-2.397,7.365c-3.78,7.115-4.682,8.264-11.563,10.432
		c-7.051,2.221-16.01,3.959-20.629,1.118c-0.341-1.175-0.503-1.829-0.262-3.171c2.941-3.604,8.197-5.315,12.03-7.468
		c4.148-2.329,5.939-3.425,9.395-8.704c1.854-2.831,5.108-9.984,5.97-13.26c0.589-2.239,1.529-5.543,1.626-7.47
		c0.118-2.333,0.301-1.842-0.047-4.36c-4.203-2.107-10.032-1.883-14.776-4.006c-2.512-1.126-5.813-3.885-7.258-6.41
		c-2.357-4.116-1.131-0.22-2.797,2.199c-0.681,0.989-1.413-0.901-2.482-1.822c-1.076-0.927-3.615-1.099-3.959-1.948
		c-0.338-0.831-0.877-2.757-0.189-3.331c1.508-1.257,3.425-1.383,4.996,0.377c1.909,2.138,3.474,3.376,5.939,1.697
		c1.388-0.945,5.089-0.632,6.316-0.613c1.98,0.031,5.881,0.256,7.635,0.189c1.767-0.067,3.701,0.231,5.467,0.11
		c3.282-0.225,3.483,0.431,4.366-2.1c1.855-5.315,1.215-6.832,1.101-12.762 M593.492,240.631c0.585-2.018,1.383-7.667,1.885-10.62
		c0.491-2.886,0.837-7.383,0.848-11.343c0.014-4.695-1.239-5.762-3.064-5.813c-8.39-0.236-15.812-1.276-23.208,0.175
		c-3.659,0.717-4.113,0.736-5.684,1.113c-0.317,0.076-1.168,0.789-1.155,1.115c0.092,2.286,0.118,1.438,0.149,2.89
		c0.016,0.718,0.088,4.626-0.55,4.957c-1.506,0.782-6.053,2.899-7.777,5.727c-0.75,1.23-1.461,1.555-0.66,3.064
		c0.37,0.697,2.929-0.054,4.383-0.943c3.481-2.126,5.006-3.744,9.343-3.912c1.114,0.807,2.23,1.616,3.344,2.423
		c-0.092,0.451-0.186,0.899-0.278,1.348c-1.876,3.111-12.079,3.135-15.815,6.804c0.092,0.808,0.045,1.982,0.012,3.659
		c-0.039,1.981-0.909,3.497,0.943,4.242c2.657-0.356,3.048-1.929,5.939-2.215c0.838,0.449,2.605,0.209,3.441,0.66
		c0.372,1.168,0.372,1.168-0.281,3.018c-0.938,2.655-1.299,2.548-2.17,2.968c-2.734,1.32-5.305,0.625-7.871,1.885
		c-1.125,6.058,0.991,14.03-1.681,20.408c-1.948,4.65-1.408,4.928-5.177,9.097c-1.555,1.72-4.867,4.549-6.151,4.289
		c-0.972-0.197-3.881-1.194-3.881-3.708c0-2.746,1.067-1.26,2.45-2.58c2.094-1.999,2.378-3.007,3.732-6.188
		c0.485-1.139,0.626-2.066,1.234-3.99c0.434-1.374,1.114-3.231,1.023-4.669c0.301-1.256-0.012-1.635,0.109-3.752
		c0.126-2.2-0.897-4.292-2.687-3.865c-2.372,0.566-4.011,1.511-7.918,1.697c-2.607,0.124-5.956,0.717-7.353-1.131
		c-0.016-1.733,0.076-1.624,0.66-2.592c4.856-1.158,8.585-2.284,12.773-3.441c1.904-0.526,2.891-0.408,3.993-1.506
		c0.825-0.821,0.374-1.543,0.343-2.548c-0.094-3.048-0.233-6.069-0.233-6.069s-5.697,2.119-8.769,3.76
		c-2.402,1.283-3.591,1.863-6.41-0.094c-1.697-1.178-1.481-1.998-1.131-2.828c0.754-1.791,0.283-2.168,0.047-4.996
		c-0.494-5.925-3.877-5.31-6.551-7.777c-0.526-0.486-1.555-1.414-1.367-2.862c0.483-3.713,5.609-5.692,7.518-8.186
		c1.514-1.978,2.026-2.805,3.464-5.542c0.794-1.511,1.613-3.486,2.309-5.043c1.638-3.663,5.373-9.992,4.902-15.742
		c-0.133-1.629-1.912-3.629-3.111-3.912c-3.113-0.735-4.511-1.049-6.928-0.236c-2.568,0.864-4.35,1.591-7.117-0.707
		c-2.264-1.88-3.355-4.029-1.634-5.079c2.695-0.966,7.797-0.16,10.4-0.153c4.488,0.011,5.928-0.232,9.191-0.118
		c1.343,0.047,1.152-0.444,1.202-1.461c0.165-3.37-0.316-9.457,0.094-12.537c0.092-0.691-0.316-1.975,0.324-2.388
		c0.731-0.471,2.61-1.508,3.493-1.171c2.935,1.121,8.481,5.391,5.744,3.241c-0.206-0.162,1.985,1.225,1.758,2.855
		c-0.534,3.833-1.634,4.038-1.445,7.29c0.163,2.803,0.721,3.547,5.373,2.2c3.827-1.109,8.386-3.682,11.736-3.991
		c1.46,0.713,2.145,2.065,1.65,3.629c-1.461,4.619-4.635,5.066-9.097,6.378c-2.596,0.762-4.882,1.064-7.163,1.87
		c-2.991,1.057-2.576,0.613-3.912,1.885c-2.922,2.781-2.718,4.996-3.613,7.73c-1.116,3.408-2.269,5.839-3.456,8.861
		c-0.549,1.396-1.296,4.113-1.909,5.609c-0.725,1.768-2.547,6.244-3.213,7.243c-1.332,1.993-0.848,1.414-2.074,3.519
		c-0.488,0.838-0.459,2.797,0.503,2.694c2.639-0.283,2.957-0.007,4.926-1.325c1.578-1.056,5.346-3.848,5.961-2.964
		c1.461,2.097-1.636,4.687-3.205,6.693c-1.482,1.895-3.968,3.862-4.478,4.478c-0.343,0.414-1.283,4.769,1.211,3.605l5.525-4.7
		c3.916-2.511,8.272-10.615,7.121-13.658c-0.994-2.009-1.343-2.357-1.438-4.407c-0.029-0.627,0.595-1.837,1.485-2.592
		c0.778-0.66,2.241-1.157,2.427-1.249c13.323-2.503,15.636-1.377,27.722-3.857c2.044,0,5.766-0.738,7.792-1.005
		c6.591-0.871,10.139-2.286,12.192,4.588c2.702,9.049,2.783,12.13,1.885,19.356c-0.465,3.745-1.377,7.636-2.471,11.247
		c-1.053,3.474-1.496,5.718-2.179,7.92c-0.721,2.322-1.32,4.525-2.513,7.844c-0.963,2.677-2.302,6.596-3.959,10.255
		c-2.492,5.502-4.894,12.335-12.192,12.631c-6.177-2.955-11.452-8.147-15.53-13.244c-0.566-0.707-0.952-2.648,0.212-2.828
		c3.653-0.566,12.498,1.853,15.884-0.424c3.296-2.216,4.45-5.064,6.316-10.039 M808.753,180.271
		c1.791,1.477,2.514,1.983,2.514,2.922c-0.004,5.305-0.205,13.266-0.566,17.47c-0.157,1.834,4.098-1.374,4.43-2.325
		c0.697-1.996,2.051-3.432,2.231-7.038c0.128-2.577,0.055-3.958,0.063-5.782c0.008-1.929,0.136-3.253-1.383-3.331l-2.954-0.88
		L808.753,180.271z M837.001,183.916c-1.767,1.084-1.313,1.575-3.243,3.039c-0.865,0.656-3.597,2.818-5.241,3.654
		c-1.536,0.781-1.374,0.224-2.121-0.801c-1.994-0.67-2.736-0.353-2.828,1.838c-0.124,2.977-0.33,3.205-0.283,5.397
		c0.043,1.986-0.137,2.284-0.024,4.36c0.021,0.38,0.256,4.454,0.573,4.666c2.027,1.353,4.511,0.366,6.441,0.126
		c7.054-0.88,4.068-5.626,0.911-5.97c-3.392-0.37-3.771-0.566-3.645-4.148c0.003-0.085-0.517-2.854,0.031-3.794
		c1.003-1.719,0.755-1.564,2.64-2.71c1.002-0.609,2.76-1.086,3.33-0.252c0.465,0.681,0.083,2.282,0.126,3.425
		c0.066,1.782-0.063,5.436,1.602,3.959c1.233-1.094,2.293-3.476,3.456-6.536c1.008-2.652,1.364-3.376,1.218-5.522
		c-0.071-1.037-0.774-1.096-1.225-1.178L837.001,183.916z M446.937,201.794c-5.286,0.707-13.574-1.948-12.82,6.787
		c0.263,3.047,2.114,2.214,3.959,2.137c2.902-0.122,5.779-0.622,7.07,0.597c0.659,0.622,1.114,2.075,1.131,3.425
		c0.02,1.601-1.376,3.293-1.791,3.708c-0.723,0.723-1.738,0.239-2.765,0.251c-3.797,0.046-7.723-0.945-7.478,2.262
		c0.295,3.868,0.19,8.532,4.882,4.904c4.647-3.594,17.937-14.857,21.035-19.982c1.634-2.702,1.48-5.012,0.791-5.409
		c-1.801-0.888-4.21-0.44-7.227,0.189L446.937,201.794z M764.449,213.986c2.891-1.068,5.213,4.515,5.53,6.598
		c0.847,5.568-0.409,9.443-3.182,16.826c-1.651,4.396-13.079,7.993-13.409,4.226c-0.88-10.055,4.491-10.671,6.517-16.753
		c1.153-3.451,1.245-5.825,2.533-8.385L764.449,213.986z M416.993,222.658c-7.447,0.707-9.945-1.084-11.972,1.697
		c-0.989,1.357-1.61,3.238-1.555,4.43c0.079,1.737-0.238,4.043,2.074,4.289c4.669,0.496,6.693,0.377,12.207-0.189
		c2.847-0.292,3.912-1.461,4.406-4.495c0.228-1.402-0.023-1.538,0.039-3.911c0.011-0.438,0.235-1.687-0.486-1.775L416.993,222.658z
		 M507.241,223.748c0.931,0,1.948-0.389,2.797,0c2.01,0.921,4.272,5.32,4.65,7.583c1.119,6.717,0.28,8.594,0.094,11.783
		c-0.205,3.522,0.038,4.259,0.283,6.253c0.471,3.833,2.502,5.628,2.439,7.674c-0.114,3.7,0.64,3.26-2.314,8.099
		c-1.006,1.647-2.947-0.198-3.645-1.257c-1.599-2.429-1.599-2.429-3.139-4.888c-2.105-3.364-5.721-4.489-4.214-11.639
		c1.507-7.147,1.526-2.426,1.508-7.855C505.68,233.229,503.656,227.798,507.241,223.748L507.241,223.748z M697.137,244.484
		c0.966-0.397,3.606,0.357,5.554,1.363c1.773,0.915,2.244,1.756,4.148,3.016c1.278,0.846,2.445,1.486,3.833,2.137
		c2.011,0.943,2.991,1.818,3.771,2.828c2.129,1.486,3.496,2.918,5.027,4.933c1.625,2.136,3.12,4.715,4.336,7.353
		c0.897,1.945,2.733,6.823,1.508,10.652c-0.203,0.633-2.591,2.422-3.025,2.928c-0.867-0.085-1.733-0.169-2.601-0.254
		c-4.568-2.159-10.399-4.936-12.756-9.272c-1.904-3.503-2.942-9.037-4.713-14.234 M447.157,255.745
		c8.278,1.387,13.519,3.562,19.764,5.31c6.91,1.93,9.944,3.127,10.306,8.044c0.274,3.717-0.625,5.868-3.299,10.495
		c-2.405,4.161-4.581,3.43-6.292,2.757c-1.008-0.396-1.547-1.09-2.286-2.05c-1.885-2.451-1.825-6.703-1.98-7.4
		c-0.943-4.242-10.637-7.337-16.029-10.613c-2.888-1.755-6.151-2.957-4.22-6.142c0.174-0.083,0.688-0.711,2.685-0.59
		L447.157,255.745z M817.394,270.23c-2.387-0.044-3.739-0.503-7.195,0.126c-3.523,0.641-4.494,1.824-7.227,4.273
		c-4.654,4.171,0.833,16.405,8.107,14.14c3.361-1.047,7.353-3.896,8.17-9.552c0.273-1.893,0.094-6.316,0.094-8.892L817.394,270.23z"
		/>
	<rect x="382.869" y="293.893" fill-rule="evenodd" clip-rule="evenodd" fill="none" width="492.487" height="89"/>
	<text transform="matrix(1 0 0 1 382.8689 324.6419)" font-family="'TimesNewRomanPS-BoldMT'" font-size="37">SOUTHEAST UNIVERSITY</text>
	<g>
		<circle id="全白底_6_" fill="#FFFFFF" cx="233.903" cy="235.063" r="117.473"/>
		<path id="外粗线_7_" d="M233.619,351.638c63.771,0,115.783-52.012,115.783-115.783s-52.012-115.783-115.783-115.783
			s-115.783,52.012-115.783,115.783S169.848,351.638,233.619,351.638L233.619,351.638z M233.619,355.855
			c-66.094,0-120-53.906-120-120s53.906-120,120-120s120,53.906,120,120S299.713,355.855,233.619,355.855L233.619,355.855z"/>
		<circle id="黄色底_6_" fill="#FFCC00" cx="232.552" cy="235.832" r="111.665"/>
		<path id="外细线_7_" fill="#FFE610" stroke="#000000" stroke-width="1.1864" stroke-miterlimit="10" d="M233.619,347.398
			c61.085,0,110.907-50.108,110.907-111.544s-49.821-111.544-110.907-111.544s-110.907,50.108-110.907,111.544
			S172.534,347.398,233.619,347.398L233.619,347.398z M233.619,348.216c-61.533,0-111.72-50.475-111.72-112.362
			s50.187-112.362,111.72-112.362s111.72,50.475,111.72,112.362S295.153,348.216,233.619,348.216L233.619,348.216z"/>
		<circle fill-rule="evenodd" clip-rule="evenodd" fill="none" cx="233.619" cy="235.213" r="120"/>
		
			<circle fill-rule="evenodd" clip-rule="evenodd" fill="none" stroke="#E6B800" stroke-width="0.0641" stroke-miterlimit="2.4142" cx="233.619" cy="235.213" r="84.965"/>
		<polygon fill-rule="evenodd" clip-rule="evenodd" fill="none" points="165.906,202.909 302.389,202.909 233.813,321.685 
			165.906,202.909 		"/>
		<path fill-rule="evenodd" clip-rule="evenodd" fill="none" d="M232.69,206.129v2.497l-6.454,1.729v3.468l1.372,0.792v1.123
			c0,0-18.736,2.3-22.962,22.661l-3.842,0.384v2.689l-10.565,0.384l-1.153,1.729l22.858,39.378l44.756,0.384l23.435-39.378
			l-1.729-2.113h-10.181l-0.192-2.881h-3.458c0,0-3.842-19.593-23.819-23.242v-1.729h2.305l-0.576-3.265l-5.955-1.921l-0.384-2.113
			l-1.537-1.537L232.69,206.129L232.69,206.129z"/>
		<path fill-rule="evenodd" clip-rule="evenodd" d="M217.033,186.4"/>
		<path fill-rule="evenodd" clip-rule="evenodd" d="M217.033,186.4"/>
		<path id="止于至善_7_" fill-rule="evenodd" clip-rule="evenodd" d="M269.6,315.593c0.701,0.022,2.605,1.309,2.205,2.31
			c-0.317,0.737-1.013,1.387-1.754,1.666c0.034,0.358,0.006,0.353-0.15,0.591c-0.134,0.036-0.268,0.072-0.401,0.107
			c-0.084-0.071-0.167-0.143-0.251-0.215c0-0.036,0-0.071,0-0.108c-0.182-0.786,0.462-1.023,0.401-1.612
			c-0.049-0.479-0.611-2.068-0.601-2.149C269.149,315.819,269.351,315.785,269.6,315.593L269.6,315.593z M266.641,319.437
			c0.117,0.036,0.233,0.072,0.35,0.107c-0.017,0.645-0.033,1.29-0.05,1.935c-0.2,0.233-0.401,0.466-0.602,0.699
			c-1.176,0.015-1.65-0.971-2.154-1.666c0.037-0.24,0.063-0.226,0.15-0.377c0.017,0,0.033,0,0.05,0
			c0.647,0.031,0.838,0.373,1.504,0.43C265.982,320.038,266.36,319.766,266.641,319.437L266.641,319.437z M271.699,320.131
			c0.15,0,0.301,0,0.451,0c0.151,0.143,0.301,0.286,0.451,0.43c-0.017,0.143-0.034,0.286-0.05,0.43
			c-0.213,0.442-2.049,1.228-2.655,1.398c-0.033,0.071-0.067,0.143-0.1,0.215c0.065,0.381,0.229,0.701,0.401,0.967
			c0.752,0.051,1.498-0.552,2.004-0.967c0.462,0.027,0.82,0.297,0.551,0.752c-0.633,1.07-2.267,0.806-2.455,2.472
			c0.21,0.562,0.377,0.64,0.701,1.021c-0.148,0.848-3.342,2.811-4.109,3.601c-0.652,0.013-0.995-0.199-1.353-0.484
			c0.017-0.144,0.034-0.287,0.05-0.43c0.117-0.09,0.234-0.18,0.351-0.269c0.4-0.111,0.569,0.115,0.903,0.215
			c0.387-1.146,2.234-0.73,2.305-2.257c-0.171-0.368-0.373-0.559-0.651-0.806c-0.814,0.147-1.459,1.338-2.405,0.968
			c-0.1-0.072-0.2-0.144-0.301-0.215c0.011-0.243,0.035-0.29,0.1-0.431c0.56-0.02,2.699-1.627,2.906-2.042
			c-0.066-0.441-0.294-0.481-0.501-0.752c-0.151-0.018-0.301-0.036-0.451-0.053c-0.53,0.422-1.064,0.877-1.503,1.396
			c-0.579,0.015-0.866-0.149-1.202-0.376c-0.027-0.793,1.056-0.902,1.553-1.29c0.426-0.333,1.005-0.515,1.453-0.86
			c0.915-0.704,1.7-1.829,2.706-2.418C271.131,320.275,271.415,320.202,271.699,320.131L271.699,320.131z M186.938,318.45
			c0.124,0.032,0.249,0.064,0.373,0.096c0.198,0.559,0.906,0.759,1.001,1.395c0.443,2.988-2.625,3.236-3.045,4.929
			c0.036,0.004,0.952,0.363,0.987,0.372c1.028,0.286,1.005,0.223,1.843,0.428c1.217,0.297,3.749,1.707,4.895,1.619
			c0.754-0.058,1.097-0.281,1.898-0.258c0.605,0.355,2.358,2.122,1.863,3.056c-0.421,0.762-1.434,0.401-2.026,0.007
			c-1.76-1.169-4.319-2.12-6.5-3.217c-1.286-0.646-4.404-0.039-4.944-0.361c-0.559-0.283-0.79-1.315-0.322-2.108
			c0.651-0.621,1.301-1.242,1.952-1.863c0.405-0.444,0.499-0.931,0.87-1.476c0.312-0.359,0.624-0.717,0.936-1.076
			c-0.051-0.379-0.101-0.758-0.151-1.136C186.69,318.723,186.814,318.586,186.938,318.45L186.938,318.45z M201.245,321.007
			c1.439,0.198,1.367,1.253,1.671,2.413c0.089,0.338,0.394,0.695,0.224,1.083c-0.718,1.282-3.332,0.202-3.291-1.058
			c0.303-0.36,0.606-0.718,0.91-1.078c0.217-0.632,0.008-0.887,0.367-1.313C201.167,321.039,201.205,321.023,201.245,321.007
			L201.245,321.007z M212.581,332.333c-1.717,0.338-3.974,4.626-5.999,4.324c-0.098-0.034-0.196-0.069-0.294-0.103
			c-0.007-0.139-0.015-0.279-0.022-0.418c0.402-0.696,1.4-0.784,2.119-1.288c0.562-0.393,3.487-4.042,3.64-4.624
			c-0.022-0.119-0.044-0.238-0.066-0.357c-0.098-0.034-0.195-0.069-0.293-0.103c-1.45,0.274-1.774,0.877-2.118,1.1
			c-0.113,0.073-1.105,0.58-0.94,0.484c-0.534,0.31-0.646,0.286-1.018,0.54c-0.472,0.323-0.609,0.234-0.924,0.175
			c-0.107-0.02-0.481,0.145-0.59,0.148c-0.267,0.403-0.325,0.371-0.943,0.558c-0.146-0.096-0.264-0.152-0.41-0.248
			c-0.09-0.725,0.401-1.575,0.893-1.986c0.447-0.372,0.621-0.445,1.005-0.447c0.493-0.002,0.539-0.298,0.8-0.434
			c0.428-0.223,0.629,0.155,1.62,0.037c0.428-0.051,0.748-0.167,1.104-0.409c0.343-0.114,0.461-0.019,0.654-0.042
			c1.345-0.164,2.112-1.729,2.602-2.536c-0.118-0.698-0.26-2.992-0.083-3.408c0.002-0.045,0.022-0.22-0.079-0.222
			c-0.492-0.009-0.899-0.424-0.833-0.557c0.008-1.148,2.148-0.491,2.437,0.128c0.735,1.58-0.242,2.972-0.191,4.3
			c0.319,0.351,0.578,0.464,0.704,1.134c-0.116,0.427-0.265,0.694-0.894,0.797c0.177,0.236,0.296,0.607,0.662,0.614
			c0.678-0.465,3.314-4.267,3.209-5.175c-0.472-0.515-0.443-0.676-0.121-1.242c0.018-0.003,0.036-0.007,0.054-0.01
			c1.051-0.165,2.776,1.389,2.268,2.477c-0.73,1.566-1.822,3.109-3.157,4.272c-0.698,0.607-1.995,0.762-2.361,1.754
			c-0.248,0.667-0.211,1.226-0.359,1.909c-0.084,0.387-0.531,0.845-0.605,1.182c-0.164,0.749-0.036,0.322-0.17,1.425
			c-0.025,0.205-0.055,0.547-0.03,0.682c0.033,0.147,0.004,0.086,0.03,0.225c0.069,0.984-0.142,1.814-0.843,2.3
			c-0.993,0.69-1.975-0.186-2.378-0.527c0.161,0.137-0.089-0.112-0.234-0.255c-0.034-0.081-0.097-0.229-0.13-0.31
			c0.061-0.222,0.11-0.19,0.293-0.335c0.462-0.255,1.035-0.136,1.384-0.52C212.364,336.913,212.765,333.284,212.581,332.333
			L212.581,332.333z M274.354,323.458c0.37,0,0.446,0.075,0.651,0.215c0.017,0.18,0.034,0.358,0.051,0.538
			c-0.436,0.92-1.923,0.876-2.555,1.988c-0.334-0.018-0.668-0.036-1.002-0.054c-0.067-0.035-0.133-0.071-0.201-0.107
			c0.017-0.107,0.034-0.215,0.051-0.322C271.623,325.081,273.624,323.905,274.354,323.458L274.354,323.458z M192.464,320.33
			c0.208,0.042,0.417,0.084,0.625,0.126c0.328,0.384,0.407,0.476,0.774,0.906c0.923,0.469,1.458-0.212,2.163,0.409
			c-0.002,0.019-0.004,0.039-0.006,0.058c-0.052,0.323-0.095,0.334-0.228,0.505c-0.945,0.313-1.316,1.569-2.221,1.763
			c-0.831,0.177-2.156-2.068-1.698-3.123C192.069,320.759,192.267,320.544,192.464,320.33L192.464,320.33z M252.85,322.396
			c0.583,0.03,0.875,0.295,1.12,0.644c-0.019,0.143-0.038,0.285-0.057,0.429c-1.024,0.525-5.643,1.22-5.987,1.824
			c0.15,0.411,0.299,0.822,0.448,1.233c-1.388,1.644-4.198,2.367-4.979,4.505c0.019,0.018,0.037,0.036,0.055,0.054
			c1.519,0.013,2.429-0.703,3.805-0.912c0.019,0.017,0.038,0.035,0.055,0.053c0,0.089,0,0.179,0,0.268
			c-1.185,0.848-3.911,1.857-5.652,2.038c-0.165-0.202-0.378-0.298-0.615-0.429c-0.077-0.333-0.235-0.882-0.112-1.18
			c0.279-0.523,1.056-0.508,1.511-0.858c0.934-0.717,2.878-2.166,3.357-3.218c-0.031-0.266-0.048-0.311-0.224-0.429
			c-0.487-0.292-1.111-0.043-1.679,0c-0.922,0.069-1.631-0.317-2.238-0.751c0.012-0.242,0.04-0.29,0.112-0.429
			c1.303-0.149,2.308-0.478,3.414-0.697c0.298,0,0.596,0,0.895,0c0.379-0.09,0.563-0.323,1.063-0.375
			c0.18-0.04,0.211,0.02,0.32-0.02c0.06-0.022,0.105-0.028,0.158-0.073C248.619,323.233,251.685,322.926,252.85,322.396
			L252.85,322.396z M279.009,324.773c0.726-0.016,1.108,0.433,1.302,0.967c0,0.126,0,0.251,0,0.376
			c-0.233,0.368-0.422,0.686-1.002,0.699c-1.405-0.544-3.447,0.678-4.059,0.43c0-0.089,0-0.179,0-0.269
			C276.052,325.721,277.92,325.704,279.009,324.773L279.009,324.773z M273.049,326.604c0.505-0.044,0.876,0.064,0.801,0.484
			c0.05,0.358,0.1,0.716,0.15,1.074c-0.222,0.675-0.995,1.329-1.603,1.451c-0.017,0.18-0.034,0.358-0.051,0.538
			c-0.1-0.036-0.2-0.072-0.3-0.108c-0.017-0.036-0.034-0.072-0.05-0.108c0.043-1.004,0.744-1.608,0.952-2.418
			C273.061,327.081,272.876,326.922,273.049,326.604L273.049,326.604z M270.24,329.56c0.1,0.018,0.2,0.036,0.301,0.053
			c0.1,0.09,0.2,0.18,0.3,0.269c-0.017,0.144-0.033,0.286-0.049,0.43c-0.548,0.152-0.557,1.067-1.052,1.29
			c-0.284-0.018-0.568-0.036-0.852-0.054c-0.182,0.056-0.353,0.218-0.651,0.269c0.19,0.514-0.054,0.743-0.351,1.021
			c-0.367,0-1.319-0.266-1.402-0.215c-0.064,0.038-0.164,0.463-0.251,0.537c-0.368,0.269-0.735,0.537-1.103,0.806
			c-0.133,0-0.267,0-0.401,0c-1.049,0.746-2.179,2.802-3.908,1.558c-0.017-0.126-0.033-0.251-0.05-0.376
			c0.837-0.93,0.898-0.255,1.804-0.376c0.312-0.955,0.99-0.786,1.804-1.183c1.67-0.814,2.757-2.49,4.309-3.385
			c0.15,0.054,0.301,0.107,0.45,0.162C269.422,330.007,269.947,329.925,270.24,329.56L270.24,329.56z M275.752,329.501
			c0.183,0.018,0.367,0.036,0.551,0.054c0.118,0.015,0.165,0.127,0.363,0.122c0.137-0.003,0.27-0.01,0.488,0.146
			c0,0.573,0,1.146,0,1.72c-0.167,0.197-0.333,0.394-0.501,0.591c0,0.573,0,1.146,0,1.72c-0.348,0.876-0.75,0.319-1.052,0.483
			c-0.399,0.217-1.034,0.783-1.503,0.913c-0.301,0.018-0.601,0.036-0.902,0.054c-0.482,0.175-0.603,0.648-1.203,0.699
			c-0.916-0.515-1.414-1.909-2.054-2.741c-0.276-0.358-0.794-0.158-1.103-0.484c0-0.34,0.044-0.408,0.151-0.591
			c2.616-0.066,2.266,1.165,3.557,2.526c1.107-0.011,2.226-0.955,2.806-1.612c-0.05-0.233-0.101-0.466-0.15-0.698
			c-0.056-0.541,0.189-0.902,0.05-1.451c-0.133-0.035-0.267-0.071-0.401-0.108c-0.51,0.233-0.794,0.711-1.302,0.86
			c-0.017-0.018-0.034-0.036-0.051-0.054c-0.052-0.54-0.024-0.701,0.2-1.021c0.75-0.259,0.4-0.535,0.852-0.859
			C274.95,329.68,275.351,329.59,275.752,329.501L275.752,329.501z M250.632,328.265c2.177-0.013,3.222,0.167,4.365,1.341
			c-0.019,0.143-0.037,0.286-0.055,0.429c-0.112,0.225-0.222,0.267-0.448,0.376c-1.041-0.178-1.831-0.968-2.741-1.233
			c-0.513-0.15-1.173-0.045-1.567-0.269c0-0.018,0-0.036,0-0.053C250.23,328.451,250.372,328.442,250.632,328.265L250.632,328.265z
			 M223.846,327.052c1.152-0.26,3,0.418,2.642,1.827c-0.049,0.238-0.086,0.297-0.305,0.426c-0.614,0.397-2.211-0.035-3.427-0.085
			c-1.142-0.047-2.246,0.194-3.025-0.405c-0.013-0.068-0.025-0.136-0.038-0.203c0.102-0.142,0.204-0.284,0.306-0.426
			c0.552-0.091,3.338-0.371,3.63-0.83C223.7,327.254,223.773,327.153,223.846,327.052L223.846,327.052z M249.27,331.263
			c1.23,0.094,0.729,1.558,1.51,2.038c0.665,0.528,1.378-0.373,2.127-0.214c0.088,0.02,0.147-0.014,0.228-0.004
			c0.037-0.018,0.146-0.036,0.183-0.053c0.052-0.032,0.106-0.04,0.148-0.05c0.15,0.018,0.299,0.036,0.447,0.053
			c0.131,0.107,0.261,0.215,0.392,0.322c-0.009,0.37-0.076,0.39-0.224,0.59c-1.16,0.43-3.276,0.63-3.525,1.931
			c-0.099,0.514-0.002,1.059-0.168,1.609c-0.144,0.478-0.517,0.681-0.559,1.287c0.074,0.125,0.15,0.25,0.224,0.375
			c2.051,0.547,4.844-2.26,6.939-0.16c-0.018,0.142-0.036,0.285-0.055,0.429c-0.112,0.071-0.224,0.143-0.336,0.214
			c-0.31,0.151-0.94,0.141-1.231,0c-0.081-0.081-0.176-0.146-0.278-0.132c-1.051,0.153-1.58,0.02-2.632,0.024
			c-0.241,0-0.73,0.405-1.063,0.483c-0.72,0.168-1.457-0.007-2.183,0.16c-0.522,0.232-1.045,0.465-1.566,0.697
			c-1.12,0.412-2.549,0.808-3.582,1.126c-0.976,0.3-1.923-0.31-2.294-0.912c0.018-0.053,0.037-0.107,0.056-0.161
			c0.1-0.221,0.22-0.33,0.447-0.429c0.661-0.318,1.257,0.279,1.959,0.215c1.373-0.124,2.946-0.647,3.916-1.234
			c0.218-0.658,0.369-2.657-0.167-3.11c-1.076-0.498-2.877,0.569-4.198-0.269c0.017-0.3,0.057-0.313,0.168-0.482
			c1.306-0.255,3.936-0.485,4.588-1.556C249.084,333.163,248.543,331.953,249.27,331.263L249.27,331.263z M219.338,331.731
			c1.199-0.267,2.807,0.204,3.112,1.109c0.278,0.824-1.713,3.027-2.483,2.882c-0.801-0.232,0.183-1.491,0.369-1.859
			c-0.363-0.648-0.807-0.666-1.296-1.076c-0.085-0.351-0.156-0.528-0.089-0.774C219.081,331.919,219.21,331.825,219.338,331.731
			L219.338,331.731z M218.748,337.125c0.145-0.009,0.289-0.018,0.434-0.028c0.233,0.366,0.587,0.784,0.915,1.094
			c0.49,0.463,2.026,0.326,1.771,1.568c-0.059,0.296-0.218,0.549-0.47,0.719c-0.33,0.17-0.986,0.432-1.316,0.297
			c-0.402-0.164-0.208-0.565-0.435-0.868C219.095,339.172,217.667,338.333,218.748,337.125L218.748,337.125z"/>
		<circle id="白色底_6_" fill="#FFFFFF" cx="233.643" cy="235.237" r="83.621"/>
		<path id="内粗线_7_" stroke="#000000" stroke-width="1.1864" stroke-miterlimit="10" d="M233.803,318.936
			c45.908,0,83.351-37.485,83.351-83.445s-37.443-83.445-83.351-83.445s-83.351,37.485-83.351,83.445
			S187.895,318.936,233.803,318.936L233.803,318.936z M233.803,320.095c-46.546,0-84.509-38.006-84.509-84.603
			s37.963-84.603,84.509-84.603s84.509,38.006,84.509,84.603S280.348,320.095,233.803,320.095L233.803,320.095z"/>
		<polygon id="绿色底_6_" fill="#3D6016" points="234.179,202.173 305.127,202.173 269.653,263.616 234.179,325.059 
			198.705,263.616 163.231,202.173 		"/>
		<path id="内黄底_6_" fill="#FFCC00" d="M233.177,207.484l-0.014,2.522l-1.042,0.112l-5.79,2.141v1.266l1.307,0.026
			l-0.047,3.448l-0.72,0.099c-0.608,0.063-16.715,1.191-22.337,19.098l-0.186,0.856l-7.731-0.149l-0.025,8.141l-7.245,0.004
			l0.524,0.872l21.559,36.365l22.182-0.039l21.776,0.126l22.883-37.068l-1.241-0.309l-6.081,0.025v-7.855l-7.669-0.168l-0.13-0.577
			c-5.156-17.46-21.912-19.332-21.965-19.34l-1.024-0.074l-0.074-3.537l1.266,0.019l-0.056-1.061l-5.711-2.201l-1.027-0.201
			l0.043-4.815l-0.769-1.266l-0.656,1.241V207.484z"/>
		<path id="大礼堂轮廓_7_" d="M233.082,207.574l-0.014,2.522l-1.042,0.112l-5.79,2.141v1.266l1.307,0.026l-0.047,3.448
			l-0.72,0.099c-0.608,0.063-16.715,1.191-22.337,19.098l-0.186,0.856l-7.731-0.149l-0.025,8.141l-7.245,0.004l0.524,0.872
			l21.559,36.365l22.182-0.039l21.776,0.126l22.883-37.068l-1.241-0.309l-6.081,0.025v-7.855l-7.669-0.168l-0.13-0.577
			c-5.156-17.46-21.912-19.332-21.965-19.34l-1.024-0.074l-0.074-3.537l1.266,0.019l-0.056-1.061l-5.711-2.201l-1.027-0.201
			l0.043-4.815l-0.769-1.266l-0.656,1.241V207.574z M231.455,206.924l0.025-2.232l0.397-0.211l1.861-1.241l1.415,0.918l0.807,0.422
			l-0.02,2.01l-0.022,2.24l3.684,1.573l3.251,1.74l-0.022,0.893l0.02,1.999l-1.624,0.005l-0.002,0.78
			c4.942,0.72,17.071,2.856,23.077,20.033h8.227l-0.037,7.586l5.659,0.012l2.215,0.019l0.41,0.633l-0.302,0.551l-0.369,0.62
			l-23.347,40.19l-0.253,0.425l-0.495,0.004l-22.486,0.176h-0.014l-22.486-0.176l-0.495-0.004l-0.253-0.425l-23.347-40.19
			l-0.369-0.62l0.534-0.482l1.064-0.404l1.062,0.048l5.8,0.002l0-7.868l8.153-0.097c5.212-17.512,19.353-18.959,22.933-19.696
			l0.025-1.166l-1.514-0.037l-0.037-2.699v-0.633l0.381-0.216l6.411-2.417l0.077-1.779L231.455,206.924z M224.961,211.407
			l6.516-2.502l-0.065,0.419"/>
		<path id="内三角_7_" stroke="#000000" stroke-width="0.2966" stroke-miterlimit="10" d="M310.209,199.311l-3.328,5.71
			l-69.975,120.039l-3.286,5.637l-3.286-5.637l-69.975-120.039l-3.329-5.71H310.209L310.209,199.311z M300.908,205.474
			l-133.994-0.305l66.775,116.11l64.547-111.176L300.908,205.474z"/>
		<path fill-rule="evenodd" clip-rule="evenodd" d="M162.334,255.719l-0.019,10.945h-1.619l0.03-8.714l-2.749,1.976V258.4
			c1.843-1.383,2.139-1.618,3.175-2.664h1.07L162.334,255.719z M165.186,264.111h1.273c0.116,1.236,0.714,1.856,1.797,1.856
			c1.313,0.084,2.144-1.343,2.492-4.285h-0.06c-0.425,0.852-1.216,1.3-2.375,1.344c-2.084-0.088-3.167-1.324-3.244-3.713
			c0.117-2.516,1.237-3.837,3.36-3.965c2.356,0.044,3.575,1.812,3.652,5.311c-0.156,4.179-1.429,6.31-3.825,6.395
			C166.325,266.968,165.302,265.988,165.186,264.111L165.186,264.111z M168.545,261.745c1.275-0.044,1.93-0.917,1.97-2.624
			c-0.076-1.577-0.774-2.388-2.087-2.431c-1.313,0.088-1.987,0.939-2.027,2.56C166.362,260.955,167.077,261.788,168.545,261.745
			L168.545,261.745z M178.429,261.297c-0.04-3.027-0.788-4.563-2.242-4.607c-1.495,0-2.222,1.537-2.182,4.607
			c0,3.071,0.727,4.604,2.182,4.604S178.39,264.367,178.429,261.297L178.429,261.297z M179.869,261.297
			c-0.119,3.753-1.347,5.671-3.686,5.756c-2.417-0.085-3.645-2.003-3.686-5.756c0.041-3.881,1.269-5.865,3.686-5.95
			C178.522,255.432,179.75,257.416,179.869,261.297L179.869,261.297z M181.805,258.921l-1.539-0.037
			c0.087-2.668,1.3-3.528,3.71-3.611c2.06,0.168,3.138,1.37,3.294,3.456c0.077,1.587-0.974,2.578-2.6,3.964l-1.03,0.881
			c-1.005,0.858-1.124,0.931-1.241,1.725l4.87,0.004v1.314h-7.03c0.087-2.088,0.912-2.755,2.482-4.111l1.489-1.229
			c1.188-0.918,1.738-1.569,1.659-2.614c-0.115-1.293-0.564-1.811-1.845-1.854C182.665,256.811,181.929,257.022,181.805,258.921
			L181.805,258.921z"/>
		<path id="东南大学_8_" fill-rule="evenodd" clip-rule="evenodd" d="M262.022,180.263c-0.029-0.289-0.036-0.384-0.056-1.173
			c-0.013-0.524-0.003-0.843-0.071-1.337c-0.199-1.442-0.097-1.011-0.414-2.1c-0.042-0.145-0.221-1.233-0.236-1.383
			c-0.05-0.484,0.168-0.852,0.36-0.956c0.298-0.161,0.699,0.272,0.874,0.5c0.503,0.653,0.725,1.262,0.793,1.654
			c0.05,0.29,0.209,1.65,0.211,1.675c0.049,0.697,0.129,1.424,0.199,2.072c0.074,0.695-0.136,0.794,0.21,1.196
			c0.171,0.198,0.406,0.108,0.477,0.108c0.457-0.102,0.537-0.695,0.473-1.208c-0.181-1.465-0.419-1.694-0.577-2.59
			c-0.112-0.633-0.094-0.715-0.14-1.03c-0.036-0.247-0.112-0.61-0.171-1.812c-0.037-0.769-0.009-0.79,0.133-1.418
			c0.113-0.495,0.308-0.794,0.524-0.878c0.584-0.229,0.953-0.14,0.984,0.115c0.171,1.425,0.195,1.561,0.22,2.527
			c0.026,0.989,0.127,1.19,0.152,1.764c0.026,0.593,0.199,1.461,0.233,2.327c0.04,1.005,0.238,2.284,0.96,1.323
			c0.26-0.346,0.036-0.759,0.092-1.211c0.064-0.522-0.019-0.627,0.047-1.201c0.111-0.974-0.037-1.247,0.037-2.569
			c0.023-0.411,0.367-0.636,0.354-0.729c-0.025-0.174-0.022-0.125-0.273-0.782c-0.261-0.683,0.161-3.496,0.199-4.781
			c0.013-0.465-0.086-1.406,0.326-1.871c0.244-0.275,0.651-0.114,1.055,0.089l0.248,0.208c0.028,0.391-0.707,1.219,1.21,0.326
			c0.39-0.182,1.145-0.642,1.722-0.4c0.478,0.2,0.149,1.193,0.149,1.21c-0.017,0.133-1.235,0.528-1.685,0.805
			c-0.948,0.583-2.281,0.165-2.177,2.629c-0.011,0.248-0.009,0.772-0.028,1.284c-0.014,0.375,0.616-0.279,0.996-0.279
			c0.189,0,0.541,0.342,0.572,0.363c0.134,0.091,0.391,0.354,0.302,0.256c0.122,0.135,0.203,0.243,0.214,0.321
			c0.051,0.372,0.06,1.22,0.577,1.028c0.719-0.267,0.377-0.137,0.856-0.354c0.229-0.104,0.782,0.009,1.163-0.065
			c0.495-0.097,0.634-0.946,0.661-1.387c0.05-0.819-0.013-1.035-0.316-1.284c-0.426-0.35-1.073-0.242-1.908,0
			c-0.996,0.289-1.302,1.191-1.82,1.154c-0.04-0.003-0.406-0.082-0.447-0.088c-0.018-0.15,0.009-0.191,0.113-0.412
			c0.588-1.258,4.372-3.531,5.718-1.701c0.735,1,0.474,2.001,0.279,2.91c-0.186,0.869-0.468,1.524-0.633,2.172
			c-0.145,0.568-0.092,0.608-0.199,1.229c-0.101,0.586-0.085,0.421-0.186,0.923c-0.071,0.354-0.358,1.241-0.099,1.352
			c0.586,0.238,1.521-0.004,2.029-0.121c0.927-0.214,2.625,0.281,3.009,0.698c0.457,0.496-0.673,1.716-1.067,1.936
			c-0.408,0.083-1.626,1.158-2.035,1.241c-0.87,0.499-0.842,0.444-1.712,0.943c-0.948,0.356-2.252-0.36-1.564,0.394
			c0.384,0.42,0.216,0.87-0.076,1.603c-0.293,0.11-0.906,0.485-1.215,0.646c-0.333,0.426-0.343,0.403-0.447,0.62
			c-0.35,0.737-1.297,1.824-0.547,1.801c1.854-0.056,1.465,1.773,1.465,1.773s0.667-0.179,1.464-0.087
			c0.758,0.088,1.401-0.077,1.812,0.025c0.854,0.212,1.619,1.185,1.954,1.865c0.128,0.259,0.035,0.513-0.214,0.596
			c-0.279,0.093-0.589,0.242-0.822,0.084c-0.525-0.357-0.612-0.678-1.067-0.757c-1.055-0.182-3.099-0.211-3.099-0.211
			s-0.112,1.191-0.13,1.247c-0.181,0.561-0.83,1.544-1.098,1.927c-0.503,0.717-1.662,1.265-2.243,1.405
			c-2.699,0.651-3.811-1.283-3.344-4.083c0.161-0.968,0.901-1.554,1.812-1.799c0.769-0.207,2.191-0.035,2.147-0.757
			c-0.037-0.608-0.147-0.274-0.484-0.67c-0.831-0.975-0.135-1.318,0.372-1.84c0.321-0.33,0.314-0.418,0.465-0.661
			c0.112-0.18,0.261-0.544,0.289-0.726c0.042-0.275-0.372-0.158-0.791-0.107c-1.021,0.125-1.094,0.521-1.843,0.306
			c-0.321-0.092-0.58-0.324-0.428-0.552c0.323-0.484,0.281-0.537,0.639-0.707c0.451-0.215,0.589-0.298,1.176-0.624
			c0.841-0.467,1.133-0.624,1.601-0.661c0.341,0.126,0.806,0.283,1.27,0.2c0.866-0.156,0.814-0.243,1.596-0.852
			c0.651-0.506,1.628-1.255,2.01-1.651c0.077-0.08,0.458-0.318,0.897-0.801c0.092-0.101,0.109-0.169,0.103-0.372
			c-0.002-0.089,0.018-0.158-0.033-0.27c-0.051-0.112-0.264-0.139-0.563-0.033c-0.195,0.07-0.307,0.107-0.506,0.207
			c-0.034,0.017-0.537,0.281-0.57,0.298c-0.232,0.121-0.333,0.128-0.557,0.239c-0.545,0.272-0.422,0.231-1.049,0.344
			c-0.124,0.022-0.501,0.198-0.909,0.333c-0.342,0.114-0.508,0.484-0.694,0.077c-0.074-0.163-0.14-0.316-0.098-0.535
			c0.042-0.222,0.088-0.181,0.113-0.419c0.008-0.072-0.01-0.21-0.081-0.228c-0.118-0.03,0.107,0.034-0.265-0.065
			c-0.262-0.07-0.689,0.223-0.641,0.19c0.358-0.245-0.174,0.177-0.602,0.224c-0.227,0.025-0.353,0.238-0.54,0.414
			c-0.289,0.273-0.512,0.4-0.8,0.442c-0.431,0.063-0.447-0.223-0.931-0.354c-0.476-0.128-0.98,0.137-1.3,0.428
			c-0.191,0.173-0.124,0.149-0.571,0.31c-0.134,0.048-0.484,0.112-1.02-0.077c-0.347-0.122-0.11-0.202-0.817-0.202
			c-0.384,0-0.494,0.143-1.091-0.068c-0.235-0.083-0.421-0.278-0.514-0.479 M193.568,167.796c0.91-0.016,1.722,0.56,1.974,1.182
			c0.279,0.689,0.186,0.937,0.186,1.396c0,0.512-0.03,1.04-0.056,1.266c-0.043,0.374-0.055,0.512,0,1.052
			c0.04,0.393,0.572,0.465,0.912,0.779c0.34,0.313,0.414,0.936,0.236,1.402c-0.165,0.289-0.436,0.466-0.707,0.571
			c-0.391,0.151-0.759,0.227-0.629,0.927c0.096,0.074,0.193,0.148,0.29,0.222c0.721,0.179,1.476-0.084,2.027-0.193
			c1.191-0.236,1.901-0.342,2.965-0.416c0.498-0.096,1.22-0.167,1.801-0.217c0.628,0.334,1.464,1.82,0.98,2.916
			c-0.747,1.664-3.571,2.716-4.778,4.095c-0.38,0.435-0.773,0.766-1.08,1.142c-0.465,0.57-0.918,0.849-1.509,1.302
			c-0.434,0.332-0.88,0.521-1.215,0.956c-0.251,0.166-0.305,0.373-0.608,0.708c-0.348,0.384-0.322,2.71-0.304,3.375
			c0.025,0.931-0.037,1.865,0.028,2.646c0.014,0.163,0.168,0.457,0.298,0.903c0.042,0.145,0.078,0.711,0.074,0.912
			c0,0,0.096,0.689-0.053,1.135c-0.123,0.368-0.74,0.561-1.03,0.819c-0.213-0.018-0.594-0.044-0.807-0.062
			c-0.532-0.243-1.078-0.753-1.514-1.08c-0.752-0.563-1.471-0.44-1.613-1.464c-0.059-0.426-0.003-0.298,0.118-0.464
			c0.025-0.035,0.545,0.013,0.584-0.005c0.671,0.008,1.134,0.064,1.742,0.031c0.695-0.037,0.522-0.617,0.597-1.188
			c0.06-0.458,0-0.596-0.025-1.303c-0.016-0.454,0.033-0.886-0.277-1.218c-0.019,0-0.039,0-0.058,0
			c-1.459,1.06-4.394,3.969-6.906,3.54c-0.02-0.185-0.039-0.369-0.058-0.553c1.115-0.56,1.908-1.377,2.786-2.157
			c1.883-1.672,2.288-2.024,4.103-4.112c0.023-0.026,0.032-0.142,0.026-0.389c-0.003-0.114,0.033-0.456-0.012-0.472
			c-0.242-0.084-0.188-0.041-0.372-0.031c-0.486,0.026-0.274,0.022-0.962,0.081c-1.363,0.116-3.183,0.913-3.828,0.025
			c-0.33-0.454-0.263-1.085-0.36-1.638c-0.209-0.404-0.365-1.109-0.683-1.526c-0.263-0.345-1.006-0.884-1.162-1.231
			c-0.175-0.388,0.18-0.625,0.29-0.774c1.276-0.37,1.823,0.288,2.681,0.68c0.366,0.167,0.931,0.004,1.359-0.019
			c0.698-0.037,1.256-0.079,1.635-0.151c1.205-0.228,1.814-0.391,1.79-1.059c-0.006-0.156,0.026-0.083,0.019-0.512
			c-0.002-0.125-0.006-0.287-0.047-0.354c-0.021-0.035-0.293-0.075-0.41-0.028c-0.587,0.235-0.797,0.298-1.294,0.335
			c-1.387,0.102-2.415,0.251-3.323-0.54c-0.289-0.251-0.15-0.708-0.13-0.856c0.039-0.055,0.586-0.107,0.651-0.121
			c1.779-0.37,1.264-0.22,2.196-0.41c0.398-0.081,2.348,0.042,2.333-0.695c-0.009-0.446,0.1-1.014-0.126-1.199
			c-0.495-0.407-0.592-0.074-1.229-0.058c-0.853,0.021-1.788,0.027-2.681-1.044c0-0.406,0.073-0.449,0.232-0.664
			c1.167-0.176,2.259-0.242,2.942-0.342c0.516-0.076,0.872-0.101,0.893-0.484c0.051-0.912,0.022-1.732,0.037-2.141
			c0.022-0.594-0.001-0.457-0.912-1.75c-0.064-0.09-0.059-0.594-0.059-0.705c0.085-0.113,0.247-0.352,0.376-0.431
			C192.458,167.838,193.085,168.1,193.568,167.796L193.568,167.796z M241.345,173.855c0.003-0.11,0.025-2.18,0.05-2.258
			c0.071-0.225,0.071-0.456,0.157-0.543l0.092-0.103c0.702-0.339,1.01-0.04,1.197,0.299c0.179,0.502,0.131,2.254,0.118,2.656
			c-0.04,1.266-0.025,1.328-0.05,2.259c-0.015,0.577,0.098,1.993,0.112,2.457c0.014,0.479,0.048,0.846,0.099,1.055
			c0.063,0.26,0.153,0.505,0.571,0.583c0.931,0.174,1.547,0.006,3.09-0.633c1.229-0.509,1.679-0.502,2.42-1.117
			c0.509-0.422,0.533-0.991,0.836-1.033c0.517-0.071,0.644,0.189,0.815,0.189c0.291,0.378,1.031,2.226,0.831,2.755
			c-0.129,0.279-0.129,0.279-0.625,0.399c-1.216,0.293-1.777,0.348-2.887,0.718c-0.456,0.152-0.757,0.22-1.229,0.41
			c-0.719,0.289-0.801,0.372-1.636,0.594c-1.347,0.358-3.147,0.461-3.167,1.814c-0.019,1.328,0.037,1.042-0.161,2.159
			c-0.091,0.514-0.214,1.138-0.42,1.735c-0.183,0.53-0.21,0.959-0.473,1.454c-0.746,1.405-0.924,1.632-2.283,2.06
			c-1.392,0.439-3.161,0.782-4.074,0.221c-0.067-0.232-0.099-0.361-0.052-0.626c0.581-0.712,1.619-1.049,2.376-1.475
			c0.819-0.46,1.173-0.676,1.855-1.719c0.366-0.559,1.009-1.971,1.179-2.618c0.116-0.442,0.302-1.095,0.321-1.475
			c0.023-0.461,0.059-0.364-0.009-0.861c-0.83-0.416-1.981-0.372-2.918-0.791c-0.496-0.222-1.148-0.767-1.433-1.266
			c-0.465-0.813-0.223-0.043-0.552,0.434c-0.134,0.195-0.279-0.178-0.49-0.36c-0.213-0.183-0.714-0.217-0.782-0.385
			c-0.067-0.164-0.173-0.544-0.037-0.658c0.298-0.248,0.676-0.273,0.987,0.074c0.377,0.422,0.686,0.667,1.173,0.335
			c0.274-0.187,1.005-0.125,1.247-0.121c0.391,0.006,1.161,0.05,1.508,0.037c0.349-0.013,0.731,0.046,1.08,0.022
			c0.648-0.044,0.688,0.085,0.862-0.415c0.366-1.05,0.24-1.349,0.217-2.52 M226.478,186.004c0.116-0.398,0.273-1.514,0.372-2.097
			c0.097-0.57,0.165-1.458,0.168-2.24c0.003-0.927-0.245-1.138-0.605-1.148c-1.657-0.047-3.122-0.252-4.583,0.035
			c-0.723,0.142-0.812,0.145-1.122,0.22c-0.063,0.015-0.231,0.156-0.228,0.22c0.018,0.451,0.023,0.284,0.029,0.571
			c0.003,0.142,0.017,0.913-0.109,0.979c-0.297,0.154-1.195,0.572-1.536,1.131c-0.148,0.243-0.289,0.307-0.13,0.605
			c0.073,0.138,0.578-0.011,0.866-0.186c0.687-0.42,0.989-0.739,1.845-0.773c0.22,0.159,0.44,0.319,0.66,0.478
			c-0.018,0.089-0.037,0.178-0.055,0.266c-0.37,0.614-2.385,0.619-3.123,1.344c0.018,0.16,0.009,0.391,0.002,0.723
			c-0.008,0.391-0.18,0.691,0.186,0.838c0.525-0.07,0.602-0.381,1.173-0.437c0.166,0.089,0.514,0.041,0.679,0.13
			c0.074,0.231,0.074,0.231-0.056,0.596c-0.185,0.524-0.256,0.503-0.428,0.586c-0.54,0.261-1.048,0.123-1.554,0.372
			c-0.222,1.196,0.196,2.77-0.332,4.03c-0.385,0.918-0.278,0.973-1.022,1.796c-0.307,0.34-0.961,0.898-1.215,0.847
			c-0.192-0.039-0.766-0.236-0.766-0.732c0-0.542,0.211-0.249,0.484-0.509c0.414-0.395,0.47-0.594,0.737-1.222
			c0.096-0.225,0.124-0.408,0.244-0.788c0.086-0.271,0.22-0.638,0.202-0.922c0.059-0.248-0.002-0.323,0.021-0.741
			c0.025-0.434-0.177-0.847-0.531-0.763c-0.468,0.112-0.792,0.298-1.564,0.335c-0.515,0.025-1.176,0.142-1.452-0.223
			c-0.003-0.342,0.015-0.321,0.13-0.512c0.959-0.229,1.695-0.451,2.522-0.679c0.376-0.104,0.571-0.081,0.789-0.297
			c0.163-0.162,0.074-0.305,0.068-0.503c-0.019-0.602-0.046-1.198-0.046-1.198s-1.125,0.419-1.732,0.742
			c-0.474,0.253-0.709,0.368-1.266-0.019c-0.335-0.233-0.292-0.395-0.223-0.558c0.149-0.354,0.056-0.428,0.009-0.987
			c-0.098-1.17-0.766-1.049-1.294-1.536c-0.104-0.096-0.307-0.279-0.27-0.565c0.095-0.733,1.108-1.124,1.484-1.616
			c0.299-0.391,0.4-0.554,0.684-1.094c0.157-0.298,0.319-0.688,0.456-0.996c0.324-0.723,1.061-1.973,0.968-3.109
			c-0.026-0.322-0.378-0.717-0.614-0.772c-0.615-0.145-0.891-0.207-1.368-0.047c-0.507,0.171-0.859,0.314-1.405-0.14
			c-0.447-0.371-0.662-0.796-0.323-1.003c0.532-0.191,1.54-0.031,2.054-0.03c0.886,0.002,1.171-0.046,1.815-0.023
			c0.265,0.009,0.227-0.088,0.237-0.289c0.033-0.665-0.062-1.867,0.019-2.476c0.018-0.137-0.062-0.39,0.064-0.471
			c0.144-0.093,0.515-0.298,0.69-0.231c0.58,0.221,1.675,1.064,1.134,0.64c-0.041-0.032,0.392,0.242,0.347,0.564
			c-0.105,0.757-0.323,0.797-0.285,1.439c0.032,0.554,0.142,0.701,1.061,0.434c0.756-0.219,1.656-0.727,2.317-0.788
			c0.288,0.141,0.423,0.408,0.326,0.717c-0.289,0.912-0.915,1-1.796,1.259c-0.513,0.15-0.964,0.21-1.415,0.369
			c-0.591,0.209-0.509,0.121-0.772,0.372c-0.577,0.549-0.537,0.987-0.714,1.526c-0.22,0.673-0.448,1.153-0.683,1.75
			c-0.108,0.276-0.256,0.812-0.377,1.108c-0.143,0.349-0.503,1.233-0.634,1.43c-0.263,0.394-0.168,0.279-0.41,0.695
			c-0.096,0.165-0.091,0.552,0.099,0.532c0.521-0.056,0.584-0.001,0.973-0.262c0.312-0.208,1.056-0.76,1.177-0.585
			c0.289,0.414-0.323,0.925-0.633,1.322c-0.293,0.374-0.784,0.763-0.884,0.884c-0.068,0.082-0.253,0.942,0.239,0.712l1.091-0.928
			c0.773-0.496,1.633-2.096,1.406-2.697c-0.196-0.397-0.265-0.465-0.284-0.87c-0.006-0.124,0.117-0.363,0.293-0.512
			c0.154-0.13,0.442-0.228,0.479-0.247c2.631-0.494,3.088-0.272,5.474-0.762c0.404,0,1.139-0.146,1.539-0.199
			c1.301-0.172,2.002-0.451,2.407,0.906c0.534,1.787,0.549,2.395,0.372,3.822c-0.092,0.74-0.272,1.508-0.488,2.221
			c-0.208,0.686-0.295,1.129-0.43,1.564c-0.142,0.459-0.261,0.893-0.496,1.549c-0.19,0.529-0.455,1.302-0.782,2.025
			c-0.492,1.086-0.966,2.436-2.407,2.494c-1.22-0.584-2.261-1.609-3.067-2.615c-0.112-0.14-0.188-0.523,0.042-0.558
			c0.721-0.112,2.468,0.366,3.136-0.084c0.651-0.438,0.879-1,1.247-1.982 M267.603,174.084c0.354,0.292,0.497,0.392,0.496,0.577
			c-0.001,1.048-0.041,2.62-0.112,3.45c-0.031,0.362,0.809-0.271,0.875-0.459c0.138-0.394,0.405-0.678,0.441-1.39
			c0.025-0.509,0.011-0.782,0.012-1.142c0.002-0.381,0.027-0.642-0.273-0.658l-0.583-0.174L267.603,174.084z M273.181,174.804
			c-0.349,0.214-0.259,0.311-0.64,0.6c-0.171,0.129-0.71,0.557-1.035,0.722c-0.303,0.154-0.271,0.044-0.419-0.158
			c-0.394-0.132-0.54-0.07-0.558,0.363c-0.025,0.588-0.065,0.633-0.056,1.066c0.008,0.392-0.027,0.451-0.005,0.861
			c0.004,0.075,0.051,0.88,0.113,0.921c0.4,0.267,0.891,0.072,1.272,0.025c1.393-0.174,0.803-1.111,0.18-1.179
			c-0.67-0.073-0.745-0.112-0.72-0.819c0.001-0.017-0.102-0.564,0.006-0.749c0.198-0.339,0.149-0.309,0.521-0.535
			c0.198-0.12,0.545-0.215,0.658-0.05c0.092,0.134,0.016,0.451,0.025,0.676c0.013,0.352-0.012,1.073,0.316,0.782
			c0.243-0.216,0.453-0.686,0.682-1.291c0.199-0.524,0.269-0.667,0.24-1.09c-0.014-0.205-0.153-0.216-0.242-0.233L273.181,174.804z
			 M197.341,178.335c-1.044,0.14-2.68-0.385-2.532,1.34c0.052,0.602,0.417,0.437,0.782,0.422c0.573-0.024,1.141-0.123,1.396,0.118
			c0.13,0.123,0.22,0.41,0.223,0.676c0.004,0.316-0.272,0.65-0.354,0.732c-0.143,0.143-0.343,0.047-0.546,0.05
			c-0.75,0.009-1.525-0.187-1.477,0.447c0.058,0.764,0.037,1.685,0.964,0.968c0.918-0.71,3.542-2.934,4.154-3.946
			c0.323-0.534,0.292-0.99,0.156-1.068c-0.356-0.175-0.831-0.087-1.427,0.037L197.341,178.335z M258.854,180.742
			c0.571-0.211,1.029,0.891,1.092,1.303c0.167,1.1-0.081,1.865-0.628,3.323c-0.326,0.868-2.583,1.578-2.648,0.834
			c-0.174-1.986,0.887-2.107,1.287-3.308c0.228-0.681,0.246-1.15,0.5-1.656L258.854,180.742z M191.428,182.454
			c-1.471,0.14-1.964-0.214-2.364,0.335c-0.195,0.268-0.318,0.639-0.307,0.875c0.016,0.343-0.047,0.798,0.41,0.847
			c0.922,0.098,1.322,0.074,2.411-0.037c0.562-0.058,0.772-0.289,0.87-0.888c0.045-0.277-0.004-0.304,0.008-0.772
			c0.002-0.086,0.046-0.333-0.096-0.35L191.428,182.454z M209.447,182.67c0.184,0,0.385-0.077,0.552,0
			c0.397,0.182,0.844,1.051,0.918,1.497c0.221,1.326,0.055,1.697,0.019,2.327c-0.041,0.696,0.007,0.841,0.056,1.235
			c0.093,0.757,0.494,1.111,0.482,1.515c-0.023,0.731,0.126,0.644-0.457,1.599c-0.199,0.325-0.582-0.039-0.72-0.248
			c-0.316-0.48-0.316-0.48-0.62-0.965c-0.416-0.664-1.13-0.886-0.832-2.298c0.298-1.411,0.301-0.479,0.298-1.551
			C209.138,184.542,208.739,183.469,209.447,182.67L209.447,182.67z M246.155,186.764c0.191-0.078,0.712,0.071,1.097,0.269
			c0.35,0.181,0.443,0.347,0.819,0.596c0.252,0.167,0.483,0.293,0.757,0.422c0.397,0.186,0.591,0.359,0.745,0.558
			c0.42,0.293,0.69,0.576,0.993,0.974c0.321,0.422,0.616,0.931,0.856,1.452c0.177,0.384,0.54,1.347,0.298,2.103
			c-0.04,0.125-0.512,0.478-0.597,0.578c-0.171-0.017-0.342-0.033-0.514-0.05c-0.902-0.426-2.054-0.975-2.519-1.831
			c-0.376-0.692-0.581-1.784-0.931-2.811 M197.385,188.988c1.635,0.274,2.67,0.703,3.903,1.049c1.365,0.381,1.964,0.618,2.035,1.588
			c0.054,0.734-0.123,1.159-0.651,2.072c-0.475,0.822-0.905,0.677-1.242,0.544c-0.199-0.078-0.306-0.215-0.451-0.405
			c-0.372-0.484-0.36-1.324-0.391-1.461c-0.186-0.838-2.1-1.449-3.165-2.096c-0.57-0.346-1.215-0.584-0.833-1.213
			c0.034-0.016,0.136-0.14,0.53-0.116L197.385,188.988z M269.309,191.848c-0.471-0.009-0.738-0.099-1.421,0.025
			c-0.696,0.126-0.887,0.36-1.427,0.844c-0.919,0.824,0.165,3.239,1.601,2.792c0.664-0.207,1.452-0.769,1.613-1.886
			c0.054-0.374,0.019-1.247,0.019-1.756L269.309,191.848z"/>
		<path id="大礼堂正面_7_" fill-rule="evenodd" clip-rule="evenodd" d="M210.843,258.784h1.076v-14.937
			c14.589,0,29.178,0,43.768,0v14.937l1.852,0.012l-0.012,2.021l-47.652-0.035l0.018-2.001L210.843,258.784z M210.048,262.611
			h47.553v3.87h-47.553V262.611L210.048,262.611z M255.963,268.263v10.82h-5.156l0.019-7.318l-5.808-0.014v7.332h-8.339l0-7.324
			l-5.585,0.081l0.037,7.244h-8.637l-0.002-7.316l-5.545,0.11l0.037,7.206h-5.2v-10.82
			C226.51,268.263,241.237,268.263,255.963,268.263L255.963,268.263z M255.766,236.596l-21.866-7.34l-21.866,7.34H255.766
			L255.766,236.596z M229.292,246.943v11.681h8.662v-11.681H229.292L229.292,246.943z M225.325,258.624v-11.681h-8.662v11.681
			H225.325L225.325,258.624z M242.218,246.943v11.681h8.662v-11.681H242.218L242.218,246.943z M212.035,238.527h43.731v3.256
			h-43.731V238.527L212.035,238.527z"/>
		<circle id="左点_7_" fill-rule="evenodd" clip-rule="evenodd" cx="163.231" cy="302.815" r="3.015"/>
		<g id="southeast_7_">
			<path d="M133.761,272.088l5.127-2.223l0.191,0.47c-1.209,0.747-2.033,1.715-2.472,2.902c-0.439,1.187-0.455,2.285-0.047,3.293
				c0.316,0.779,0.774,1.312,1.374,1.597c0.601,0.286,1.172,0.319,1.714,0.099c0.344-0.139,0.617-0.343,0.819-0.612
				c0.27-0.367,0.481-0.866,0.634-1.497c0.107-0.461,0.218-1.471,0.334-3.029c0.157-2.18,0.505-3.748,1.042-4.703
				c0.541-0.948,1.323-1.629,2.347-2.044c1.298-0.526,2.62-0.472,3.966,0.161c1.345,0.633,2.334,1.729,2.965,3.287
				c0.198,0.489,0.335,0.971,0.413,1.446c0.077,0.476,0.111,1.098,0.102,1.866c-0.004,0.428,0.042,0.761,0.138,0.998
				c0.08,0.199,0.242,0.378,0.484,0.537c0.243,0.16,0.548,0.245,0.917,0.256l0.172,0.424l-5.866,2.376l-0.172-0.424
				c1.514-1.004,2.51-2.161,2.989-3.471c0.479-1.31,0.494-2.518,0.045-3.626c-0.347-0.855-0.855-1.443-1.527-1.762
				c-0.671-0.319-1.317-0.354-1.935-0.103c-0.367,0.149-0.683,0.39-0.947,0.724c-0.265,0.334-0.471,0.762-0.62,1.284
				c-0.148,0.523-0.267,1.389-0.355,2.598c-0.122,1.694-0.303,2.95-0.542,3.767c-0.238,0.817-0.592,1.513-1.061,2.09
				c-0.469,0.577-1.066,1.012-1.791,1.306c-1.238,0.501-2.476,0.474-3.714-0.083c-1.239-0.556-2.138-1.526-2.698-2.908
				c-0.204-0.504-0.341-1.017-0.411-1.541c-0.054-0.396-0.061-0.902-0.022-1.518c0.04-0.616,0.017-1.027-0.066-1.233
				c-0.081-0.199-0.205-0.33-0.373-0.396s-0.506-0.053-1.012,0.036L133.761,272.088z"/>
			<path d="M129.392,254.206c-0.542-2.616-0.135-4.885,1.22-6.806c1.356-1.921,3.26-3.089,5.714-3.503
				c2.096-0.354,4.044-0.051,5.844,0.907c2.387,1.269,3.831,3.386,4.331,6.352c0.502,2.974-0.117,5.444-1.859,7.409
				c-1.376,1.553-3.157,2.513-5.343,2.882c-2.454,0.414-4.64-0.075-6.56-1.469C130.823,258.584,129.706,256.66,129.392,254.206z
				 M130.148,253.928c0.255,1.512,1.222,2.531,2.898,3.059c1.376,0.428,3.25,0.442,5.623,0.041c2.82-0.476,4.82-1.323,6.002-2.542
				c0.826-0.85,1.134-1.896,0.924-3.139c-0.141-0.837-0.462-1.502-0.964-1.994c-0.64-0.627-1.565-1.044-2.774-1.249
				c-1.209-0.205-2.732-0.153-4.568,0.157c-2.186,0.369-3.787,0.848-4.802,1.437c-1.016,0.59-1.695,1.237-2.035,1.942
				C130.111,252.344,130.009,253.107,130.148,253.928z"/>
			<path d="M127.777,237.141l0.589-8.633l0.457,0.031l-0.03,0.432c-0.045,0.65-0.007,1.1,0.112,1.352
				c0.119,0.252,0.294,0.437,0.526,0.556c0.232,0.119,0.824,0.211,1.778,0.276l8.188,0.558c1.496,0.102,2.495,0.057,2.995-0.136
				c0.501-0.193,0.929-0.537,1.285-1.034c0.356-0.496,0.561-1.139,0.615-1.928c0.062-0.904-0.089-1.689-0.453-2.354
				c-0.364-0.665-0.892-1.18-1.586-1.545c-0.694-0.365-1.928-0.609-3.704-0.73l-6.819-0.465c-0.748-0.051-1.288-0.009-1.619,0.125
				c-0.331,0.134-0.567,0.317-0.706,0.546c-0.214,0.357-0.345,0.873-0.391,1.547l-0.457-0.031l0.395-5.784l0.456,0.031l-0.023,0.345
				c-0.032,0.469,0.036,0.866,0.204,1.191c0.168,0.325,0.436,0.571,0.804,0.736c0.256,0.125,0.725,0.211,1.407,0.257l6.351,0.433
				c1.965,0.134,3.374,0.36,4.228,0.679c0.854,0.318,1.612,1.004,2.276,2.057c0.663,1.053,0.936,2.447,0.817,4.181
				c-0.099,1.447-0.368,2.552-0.808,3.315c-0.6,1.042-1.326,1.756-2.178,2.144s-1.973,0.535-3.363,0.44l-8.188-0.559
				c-0.962-0.065-1.564-0.053-1.805,0.038c-0.241,0.091-0.441,0.263-0.599,0.517c-0.158,0.254-0.257,0.734-0.297,1.442
				L127.777,237.141z"/>
			<path d="M134.804,197.81l4.345,1.304l-0.128,0.426c-1.078-0.048-1.883,0.016-2.413,0.192c-0.53,0.176-1.007,0.494-1.428,0.952
				c-0.232,0.258-0.461,0.761-0.686,1.511l-0.359,1.196l12.384,3.717c0.821,0.246,1.348,0.355,1.58,0.326
				c0.232-0.029,0.465-0.153,0.699-0.371c0.233-0.218,0.419-0.556,0.556-1.014l0.16-0.533l0.438,0.131l-2.523,8.406l-0.438-0.131
				l0.16-0.533c0.14-0.465,0.169-0.865,0.089-1.199c-0.049-0.238-0.19-0.457-0.423-0.656c-0.163-0.144-0.647-0.336-1.452-0.578
				l-12.384-3.717l-0.348,1.16c-0.325,1.081-0.331,1.935-0.021,2.562c0.433,0.879,1.214,1.586,2.344,2.123l-0.135,0.45l-4.345-1.304
				L134.804,197.81z"/>
			<path d="M148.546,189.149l4.494,2.6c0.742,0.429,1.229,0.656,1.462,0.682c0.233,0.025,0.488-0.041,0.766-0.2
				c0.277-0.158,0.534-0.441,0.769-0.848l0.279-0.481l0.396,0.229l-4.389,7.586l-0.396-0.229l0.279-0.481
				c0.243-0.421,0.365-0.803,0.363-1.146c0.007-0.243-0.081-0.485-0.266-0.725c-0.126-0.178-0.553-0.477-1.28-0.898l-9.544-5.521
				c-0.742-0.429-1.228-0.658-1.459-0.687c-0.231-0.029-0.485,0.036-0.763,0.194c-0.277,0.159-0.533,0.441-0.769,0.848l-0.279,0.481
				l-0.396-0.229l4.389-7.586l0.396,0.229l-0.279,0.481c-0.243,0.421-0.364,0.803-0.363,1.147c-0.007,0.243,0.08,0.488,0.26,0.736
				c0.126,0.178,0.553,0.477,1.28,0.898l4.109,2.377l2.965-5.125l-4.108-2.377c-0.742-0.429-1.228-0.658-1.459-0.687
				c-0.231-0.029-0.486,0.038-0.765,0.2c-0.28,0.162-0.537,0.446-0.772,0.853l-0.273,0.471l-0.396-0.229l4.382-7.575l0.396,0.229
				l-0.273,0.471c-0.248,0.428-0.368,0.81-0.363,1.146c-0.007,0.243,0.079,0.489,0.26,0.736c0.126,0.178,0.553,0.477,1.28,0.898
				l9.544,5.521c0.742,0.429,1.229,0.658,1.459,0.687c0.231,0.029,0.486-0.038,0.766-0.2c0.279-0.162,0.537-0.446,0.772-0.853
				l0.273-0.471l0.396,0.229l-4.382,7.575l-0.396-0.229l0.273-0.471c0.248-0.428,0.369-0.81,0.363-1.146
				c0.008-0.243-0.079-0.489-0.26-0.736c-0.126-0.178-0.553-0.477-1.28-0.898l-4.494-2.6L148.546,189.149z"/>
			<path d="M156.943,164.171l4.957,4.688l0.229-0.243c0.73-0.772,1.017-1.561,0.861-2.367c-0.157-0.806-0.663-1.704-1.518-2.695
				l0.323-0.341l6.376,6.03l-0.323,0.341c-0.762-0.585-1.474-0.971-2.135-1.16c-0.661-0.188-1.213-0.202-1.654-0.041
				c-0.441,0.161-0.937,0.532-1.486,1.113l3.431,3.245c0.671,0.634,1.108,0.994,1.311,1.078c0.203,0.085,0.427,0.095,0.67,0.029
				c0.243-0.065,0.528-0.271,0.857-0.618l0.688-0.728c1.076-1.137,1.674-2.298,1.796-3.482c0.121-1.184-0.215-2.435-1.01-3.753
				l0.314-0.332l3.352,4.209l-9.954,10.526l-0.332-0.314l0.382-0.404c0.334-0.353,0.54-0.697,0.618-1.031
				c0.063-0.235,0.033-0.491-0.091-0.767c-0.081-0.202-0.427-0.591-1.038-1.169l-8.011-7.576c-0.551-0.521-0.903-0.826-1.057-0.915
				c-0.266-0.138-0.533-0.18-0.8-0.126c-0.383,0.069-0.761,0.301-1.135,0.696l-0.382,0.404l-0.332-0.314l9.64-10.193l3.602,3.406
				l-0.323,0.341c-1.044-0.658-1.906-1.012-2.587-1.06c-0.68-0.048-1.382,0.13-2.105,0.535c-0.425,0.234-1.074,0.811-1.945,1.733
				L156.943,164.171z"/>
			<path d="M183.478,156.133l-4.934,3.272l0.314,1.749c0.108,0.581,0.261,1.019,0.456,1.314c0.26,0.391,0.609,0.575,1.048,0.551
				c0.258-0.013,0.77-0.233,1.534-0.661l0.253,0.381l-4.646,3.081l-0.253-0.381c0.451-0.408,0.726-0.889,0.823-1.443
				c0.097-0.554,0.03-1.52-0.202-2.899l-2.395-14.46l0.196-0.13l12.634,8.115c1.2,0.767,2.048,1.188,2.544,1.264
				c0.375,0.058,0.786-0.037,1.235-0.285l0.253,0.381l-6.758,4.481l-0.253-0.381l0.278-0.184c0.542-0.36,0.874-0.688,0.993-0.985
				c0.078-0.21,0.049-0.418-0.088-0.624c-0.082-0.124-0.187-0.237-0.315-0.34c-0.055-0.052-0.328-0.242-0.821-0.568L183.478,156.133
				z M182.622,155.603l-5.271-3.431l1.048,6.232L182.622,155.603z"/>
			<path d="M200.049,134.461l2.144,5.161l-0.473,0.183c-0.729-1.22-1.683-2.059-2.863-2.517c-1.18-0.458-2.277-0.49-3.292-0.098
				c-0.784,0.303-1.324,0.753-1.619,1.349c-0.295,0.596-0.337,1.167-0.126,1.712c0.133,0.346,0.333,0.622,0.599,0.828
				c0.363,0.275,0.858,0.494,1.487,0.657c0.459,0.114,1.467,0.241,3.023,0.38c2.177,0.191,3.739,0.563,4.686,1.115
				c0.94,0.556,1.609,1.348,2.007,2.378c0.506,1.306,0.432,2.628-0.222,3.963c-0.654,1.336-1.765,2.307-3.332,2.914
				c-0.492,0.19-0.976,0.32-1.453,0.39c-0.477,0.07-1.099,0.094-1.867,0.073c-0.428-0.011-0.762,0.03-1,0.122
				c-0.2,0.077-0.381,0.236-0.545,0.476c-0.163,0.24-0.253,0.544-0.27,0.913l-0.427,0.165l-2.284-5.902l0.426-0.165
				c0.981,1.529,2.122,2.543,3.424,3.042c1.302,0.499,2.51,0.533,3.625,0.102c0.861-0.333,1.456-0.833,1.786-1.5
				c0.329-0.666,0.374-1.311,0.133-1.934c-0.143-0.369-0.379-0.688-0.709-0.958c-0.33-0.27-0.755-0.483-1.275-0.64
				c-0.52-0.156-1.384-0.288-2.591-0.395c-1.693-0.149-2.945-0.349-3.758-0.6c-0.813-0.251-1.504-0.615-2.073-1.093
				c-0.569-0.478-0.995-1.081-1.278-1.812c-0.482-1.245-0.435-2.482,0.14-3.712c0.576-1.23,1.559-2.114,2.95-2.653
				c0.507-0.196,1.023-0.325,1.547-0.387c0.397-0.048,0.903-0.047,1.519,0.002c0.616,0.049,1.027,0.033,1.235-0.047
				c0.2-0.077,0.334-0.2,0.401-0.367c0.068-0.167,0.061-0.505-0.021-1.012L200.049,134.461z"/>
			<path d="M224.073,129.712l0.716,4.48l-0.439,0.07c-0.426-0.992-0.833-1.688-1.223-2.089c-0.39-0.401-0.883-0.691-1.479-0.871
				c-0.333-0.097-0.886-0.084-1.658,0.04l-1.233,0.197l2.042,12.767c0.136,0.847,0.267,1.368,0.394,1.564
				c0.127,0.197,0.34,0.353,0.638,0.468c0.298,0.115,0.683,0.135,1.155,0.059l0.549-0.088l0.072,0.452l-8.666,1.386l-0.072-0.452
				l0.549-0.088c0.48-0.077,0.853-0.224,1.118-0.442c0.193-0.148,0.329-0.37,0.407-0.666c0.058-0.21,0.021-0.73-0.112-1.56
				l-2.042-12.767l-1.196,0.191c-1.115,0.178-1.887,0.544-2.316,1.096c-0.603,0.772-0.9,1.784-0.892,3.034l-0.464,0.074
				l-0.716-4.479L224.073,129.712z"/>
		</g>
		<text transform="matrix(0.9759 0 0 1 279.418 267.1387)" font-family="'AdobeHeitiStd-Regular-GBpc-EUC-H'" font-size="14.626">南京</text>
		<g id="university_7_">
			<path d="M242.594,129.879l8.52,1.507l-0.079,0.45l-0.426-0.075c-0.641-0.113-1.093-0.124-1.356-0.033
				c-0.264,0.091-0.467,0.246-0.61,0.463c-0.143,0.217-0.298,0.797-0.464,1.738l-1.43,8.082c-0.261,1.477-0.323,2.474-0.184,2.992
				c0.138,0.518,0.435,0.981,0.891,1.388c0.455,0.407,1.072,0.679,1.851,0.817c0.893,0.158,1.689,0.092,2.389-0.199
				c0.7-0.291,1.269-0.761,1.706-1.412c0.437-0.651,0.811-1.853,1.121-3.605l1.191-6.731c0.13-0.738,0.147-1.28,0.049-1.623
				c-0.099-0.344-0.255-0.597-0.468-0.76c-0.332-0.251-0.831-0.436-1.496-0.553l0.079-0.451l5.709,1.01l-0.08,0.451l-0.341-0.06
				c-0.462-0.082-0.864-0.056-1.206,0.075c-0.342,0.132-0.614,0.373-0.818,0.722c-0.152,0.241-0.286,0.698-0.406,1.371l-1.109,6.269
				c-0.343,1.94-0.718,3.316-1.126,4.132c-0.408,0.815-1.171,1.496-2.288,2.043c-1.117,0.547-2.533,0.669-4.245,0.366
				c-1.428-0.253-2.498-0.639-3.21-1.158c-0.971-0.707-1.604-1.505-1.899-2.394c-0.295-0.889-0.321-2.019-0.078-3.391l1.43-8.082
				c0.168-0.949,0.22-1.549,0.155-1.799c-0.065-0.25-0.215-0.467-0.45-0.651c-0.236-0.184-0.703-0.333-1.402-0.449L242.594,129.879z
				"/>
			<path d="M271.117,136.948l3.626,12.779l2.777-6.65c0.387-0.928,0.516-1.611,0.386-2.048c-0.18-0.594-0.704-1.062-1.569-1.406
				l0.176-0.422l5.11,2.134l-0.176,0.422c-0.689-0.189-1.174-0.264-1.453-0.225c-0.28,0.039-0.545,0.183-0.796,0.431
				c-0.251,0.248-0.529,0.737-0.834,1.467l-5.377,12.878l-0.388-0.162l-5.083-17.245l-4.106,9.832
				c-0.372,0.89-0.419,1.576-0.143,2.057c0.277,0.482,0.677,0.832,1.202,1.051l0.365,0.152l-0.176,0.422l-5.486-2.291l0.177-0.422
				c0.854,0.348,1.521,0.421,1.998,0.218c0.478-0.202,0.888-0.714,1.23-1.536l4.558-10.916l-0.159-0.549
				c-0.156-0.547-0.332-0.938-0.529-1.172c-0.197-0.234-0.528-0.457-0.993-0.669l0.176-0.422L271.117,136.948z"/>
			<path d="M285.355,162.881l-0.247,0.385l-7.382-4.724l0.246-0.385l0.469,0.3c0.41,0.262,0.786,0.4,1.129,0.414
				c0.243,0.018,0.488-0.059,0.736-0.233c0.183-0.118,0.501-0.531,0.954-1.239l5.943-9.287c0.462-0.722,0.712-1.197,0.751-1.427
				c0.039-0.229-0.014-0.486-0.16-0.77c-0.146-0.284-0.416-0.553-0.812-0.806l-0.469-0.3l0.247-0.386l7.382,4.724l-0.246,0.385
				l-0.469-0.3c-0.41-0.262-0.786-0.4-1.129-0.414c-0.243-0.018-0.492,0.057-0.746,0.227c-0.183,0.118-0.501,0.531-0.954,1.239
				l-5.943,9.288c-0.462,0.722-0.711,1.198-0.747,1.43c-0.035,0.232,0.02,0.489,0.165,0.774c0.146,0.284,0.417,0.553,0.813,0.806
				L285.355,162.881z"/>
			<path d="M312.001,164.415l-0.311,0.336c-0.515-0.342-1.135-0.472-1.861-0.391c-0.534,0.068-1.569,0.429-3.107,1.084
				l-12.932,5.485l-0.3-0.277l4.825-13.686c0.582-1.65,0.882-2.657,0.9-3.023c0.017-0.365-0.187-0.796-0.615-1.292l0.31-0.336
				l5.9,5.454l-0.311,0.336l-0.2-0.184c-0.533-0.492-0.957-0.761-1.274-0.807c-0.223-0.038-0.416,0.031-0.578,0.206
				c-0.1,0.109-0.195,0.26-0.284,0.453c-0.089,0.193-0.293,0.742-0.613,1.647l-3.041,8.552l7.475-3.206
				c0.9-0.391,1.487-0.668,1.761-0.83c0.273-0.162,0.483-0.322,0.629-0.479c0.168-0.182,0.268-0.387,0.3-0.615
				c0.031-0.229-0.013-0.466-0.133-0.712c-0.165-0.343-0.462-0.714-0.892-1.111l0.31-0.336L312.001,164.415z"/>
			<path d="M318.865,174.947l-5.595,3.905l0.191,0.274c0.608,0.872,1.323,1.312,2.144,1.322c0.821,0.01,1.803-0.304,2.946-0.941
				l0.269,0.385l-7.196,5.023l-0.269-0.385c0.727-0.628,1.249-1.247,1.568-1.856c0.318-0.609,0.444-1.146,0.375-1.611
				c-0.068-0.465-0.331-1.025-0.789-1.68l-3.872,2.703c-0.757,0.529-1.197,0.884-1.321,1.066c-0.124,0.182-0.179,0.399-0.165,0.65
				c0.014,0.251,0.159,0.572,0.432,0.965l0.573,0.821c0.896,1.284,1.911,2.105,3.046,2.464c1.135,0.359,2.428,0.282,3.88-0.229
				l0.262,0.375l-4.8,2.431l-8.292-11.879l0.375-0.261l0.318,0.456c0.278,0.399,0.574,0.67,0.885,0.815
				c0.217,0.109,0.473,0.131,0.769,0.065c0.214-0.039,0.666-0.299,1.355-0.78l9.041-6.311c0.621-0.434,0.991-0.718,1.11-0.85
				c0.189-0.232,0.284-0.485,0.286-0.757c0.01-0.389-0.141-0.806-0.452-1.252l-0.318-0.456l0.375-0.262l8.031,11.504l-4.065,2.837
				l-0.269-0.385c0.856-0.889,1.377-1.662,1.562-2.319c0.185-0.657,0.152-1.38-0.098-2.17c-0.143-0.464-0.577-1.215-1.304-2.256
				L318.865,174.947z"/>
			<path d="M322.215,197.029l-4.337,1.804c-0.837,0.348-1.342,0.619-1.516,0.811c-0.174,0.193-0.273,0.446-0.294,0.758
				c-0.022,0.312,0.115,0.823,0.409,1.53l-0.422,0.176l-3.294-7.921l0.422-0.176c0.297,0.715,0.566,1.173,0.805,1.372
				c0.239,0.2,0.486,0.307,0.742,0.32c0.255,0.014,0.802-0.153,1.639-0.501l10.044-4.177c0.837-0.348,1.343-0.618,1.517-0.811
				c0.174-0.193,0.272-0.445,0.294-0.758c0.022-0.313-0.115-0.823-0.409-1.53l0.422-0.176l2.99,7.19
				c0.778,1.872,1.218,3.295,1.32,4.27c0.102,0.975-0.081,1.881-0.55,2.719c-0.468,0.837-1.17,1.451-2.106,1.84
				c-1.141,0.474-2.256,0.456-3.343-0.056c-0.69-0.329-1.35-0.916-1.978-1.761l-3.691,5.899c-0.475,0.769-0.753,1.29-0.835,1.565
				c-0.106,0.41-0.086,0.825,0.063,1.246l-0.422,0.176l-2.027-4.873l4.979-7.921L322.215,197.029z M329.805,193.872l-6.779,2.819
				l0.27,0.651c0.44,1.057,0.866,1.808,1.278,2.253c0.412,0.444,0.934,0.712,1.565,0.802c0.631,0.09,1.353-0.034,2.167-0.373
				c1.18-0.49,1.936-1.129,2.27-1.914c0.333-0.786,0.246-1.791-0.264-3.016L329.805,193.872z"/>
			<path d="M339.045,220.893l-5.458,1.201l-0.097-0.497c1.329-0.502,2.324-1.294,2.982-2.375c0.658-1.081,0.884-2.155,0.676-3.223
				c-0.161-0.825-0.508-1.435-1.043-1.831c-0.535-0.395-1.089-0.537-1.663-0.426c-0.364,0.071-0.671,0.219-0.921,0.444
				c-0.335,0.308-0.638,0.758-0.909,1.348c-0.193,0.432-0.495,1.402-0.907,2.909c-0.572,2.109-1.213,3.581-1.924,4.417
				c-0.712,0.827-1.61,1.346-2.694,1.557c-1.375,0.268-2.663-0.038-3.862-0.917c-1.199-0.879-1.96-2.143-2.281-3.794
				c-0.101-0.518-0.143-1.017-0.128-1.499c0.015-0.481,0.101-1.098,0.257-1.851c0.086-0.42,0.105-0.755,0.056-1.006
				c-0.041-0.21-0.165-0.417-0.373-0.62c-0.208-0.203-0.491-0.345-0.851-0.426l-0.087-0.449l6.212-1.209l0.088,0.449
				c-1.678,0.696-2.877,1.641-3.597,2.835c-0.721,1.194-0.967,2.377-0.738,3.55c0.176,0.906,0.563,1.58,1.161,2.022
				c0.598,0.442,1.225,0.599,1.88,0.471c0.389-0.076,0.745-0.252,1.069-0.529s0.608-0.658,0.855-1.142
				c0.245-0.485,0.527-1.312,0.845-2.482c0.445-1.64,0.862-2.838,1.252-3.593c0.39-0.756,0.87-1.372,1.441-1.849
				c0.57-0.476,1.24-0.789,2.008-0.939c1.31-0.255,2.52,0.009,3.629,0.792c1.11,0.783,1.807,1.907,2.092,3.371
				c0.104,0.534,0.14,1.064,0.108,1.591c-0.023,0.399-0.113,0.897-0.269,1.494c-0.157,0.597-0.214,1.005-0.171,1.223
				c0.041,0.21,0.138,0.363,0.291,0.46c0.153,0.096,0.487,0.148,1.001,0.158L339.045,220.893z"/>
			<path d="M323.466,237.602l-0.457,0.015l-0.293-8.759l0.457-0.016l0.019,0.556c0.016,0.486,0.116,0.874,0.299,1.165
				c0.122,0.21,0.325,0.368,0.61,0.474c0.201,0.084,0.721,0.112,1.561,0.084l11.02-0.369c0.857-0.029,1.39-0.092,1.601-0.189
				c0.211-0.098,0.393-0.287,0.544-0.569c0.151-0.282,0.219-0.656,0.203-1.126l-0.018-0.556l0.457-0.015l0.293,8.759l-0.457,0.016
				l-0.018-0.556c-0.017-0.486-0.116-0.874-0.299-1.165c-0.123-0.211-0.326-0.373-0.61-0.487c-0.2-0.084-0.721-0.112-1.561-0.084
				l-11.02,0.369c-0.857,0.029-1.39,0.094-1.601,0.196c-0.211,0.102-0.393,0.293-0.544,0.575c-0.151,0.281-0.219,0.656-0.203,1.126
				L323.466,237.602z"/>
			<path d="M337.55,258.382l-4.49-0.646l0.063-0.44c1.073-0.112,1.859-0.295,2.358-0.548c0.499-0.253,0.923-0.638,1.271-1.153
				c0.191-0.289,0.343-0.821,0.454-1.596l0.178-1.236l-12.798-1.84c-0.848-0.122-1.385-0.152-1.611-0.088
				c-0.226,0.063-0.437,0.22-0.636,0.471c-0.198,0.25-0.332,0.612-0.4,1.085l-0.079,0.55l-0.453-0.065l1.249-8.687l0.453,0.065
				l-0.079,0.55c-0.069,0.481-0.039,0.881,0.09,1.199c0.083,0.228,0.255,0.424,0.515,0.586c0.183,0.118,0.69,0.237,1.522,0.356
				l12.798,1.84l0.172-1.199c0.161-1.117,0.041-1.963-0.36-2.536c-0.559-0.805-1.436-1.389-2.633-1.752l0.067-0.465l4.49,0.646
				L337.55,258.382z"/>
			<path d="M329.664,281.469l-0.427-0.163c0.128-0.542,0.129-0.996,0.005-1.361c-0.176-0.509-0.824-1.454-1.945-2.836l-4.368-5.564
				l-3.786-1.45c-0.808-0.31-1.327-0.46-1.555-0.45c-0.229,0.009-0.466,0.111-0.712,0.303c-0.246,0.193-0.448,0.497-0.608,0.912
				l-0.336,0.877l-0.427-0.163l3.363-8.785l0.427,0.164l-0.314,0.82c-0.177,0.462-0.236,0.858-0.177,1.189
				c0.031,0.241,0.155,0.47,0.373,0.685c0.152,0.155,0.621,0.384,1.406,0.684l3.14,1.202l8.117-1.114
				c1.603-0.225,2.58-0.442,2.93-0.652c0.35-0.21,0.624-0.564,0.824-1.061l0.427,0.164l-2.873,7.503l-0.427-0.164l0.128-0.334
				c0.174-0.454,0.23-0.797,0.169-1.028c-0.062-0.231-0.166-0.375-0.312-0.43c-0.277-0.106-1.092-0.065-2.443,0.124l-6.266,0.843
				l3.643,4.625c0.886,1.142,1.518,1.785,1.895,1.93c0.208,0.08,0.419,0.046,0.634-0.101c0.293-0.188,0.592-0.625,0.899-1.31
				l0.427,0.163L329.664,281.469z"/>
		</g>
		<circle id="右点_7_" fill-rule="evenodd" clip-rule="evenodd" cx="304.053" cy="302.815" r="3.015"/>
	</g>
</g>
</svg>
